<?xml version="1.0" encoding="UTF-8"?>
<svg width="28px" height="28px" viewBox="0 0 28 28" version="1.1" xmlns="http://www.w3.org/2000/svg" xmlns:xlink="http://www.w3.org/1999/xlink">
    <title>c-icon-05</title>
    <g id="page-v1" stroke="none" stroke-width="1" fill="none" fill-rule="evenodd">
        <g id="102_客戶服務-聯絡三花" transform="translate(-542.000000, -584.000000)">
            <g id="c-icon-05" transform="translate(542.000000, 584.000000)">
                <circle id="橢圓形copycopy" fill="#B10E0E" cx="14" cy="14" r="14"></circle>
                <g id="phone---material" transform="translate(7.250000, 6.950000)" fill="#FFFFFF" fill-rule="nonzero">
                    <path d="M2.7,5.832 C3.252,6.888 3.954,7.842 4.806,8.694 C5.658,9.546 6.612,10.248 7.668,10.8 L9.324,9.144 C9.42,9.036 9.54,8.964 9.684,8.928 C9.828,8.892 9.966,8.904 10.098,8.964 C10.89,9.24 11.778,9.378 12.762,9.378 C12.966,9.378 13.14,9.45 13.284,9.594 C13.428,9.738 13.5,9.912 13.5,10.116 L13.5,12.762 C13.5,12.966 13.428,13.14 13.284,13.284 C13.14,13.428 12.966,13.5 12.762,13.5 C11.034,13.5 9.378,13.164 7.794,12.492 C6.27,11.844 4.92,10.932 3.744,9.756 C2.568,8.58 1.656,7.23 1.008,5.706 C0.336,4.122 0,2.466 0,0.738 C0,0.534 0.072,0.36 0.216,0.216 C0.36,0.072 0.534,0 0.738,0 L3.384,0 C3.588,0 3.762,0.072 3.906,0.216 C4.05,0.36 4.122,0.534 4.122,0.738 C4.122,1.722 4.26,2.61 4.536,3.402 C4.572,3.534 4.578,3.672 4.554,3.816 C4.53,3.96 4.464,4.08 4.356,4.176 L2.7,5.832 Z" id="路徑"></path>
                </g>
            </g>
        </g>
    </g>
</svg>