<?xml version="1.0" encoding="UTF-8"?>
<svg width="28px" height="28px" viewBox="0 0 28 28" version="1.1" xmlns="http://www.w3.org/2000/svg" xmlns:xlink="http://www.w3.org/1999/xlink">
    <title>c-icon-04</title>
    <g id="page-v1" stroke="none" stroke-width="1" fill="none" fill-rule="evenodd">
        <g id="102_客戶服務-聯絡三花" transform="translate(-541.000000, -538.000000)">
            <g id="c-icon-04" transform="translate(541.000000, 538.000000)">
                <circle id="橢圓形copycopycopy" fill="#B10E0E" cx="14" cy="14" r="14"></circle>
                <g id="mail---anticon" transform="translate(7.012695, 7.250000)" fill="#FFFFFF" fill-rule="nonzero">
                    <path d="M13.6962891,0 L1.1953125,0 C0.86328125,0 0.581054688,0.116210938 0.348632812,0.348632812 C0.116210938,0.581054688 0,0.86328125 0,1.1953125 L0,11.5878906 C0,11.9199219 0.116210938,12.2021484 0.348632812,12.4345703 C0.581054688,12.6669922 0.86328125,12.7832031 1.1953125,12.7832031 L13.6962891,12.7832031 C14.0283203,12.7832031 14.3105469,12.6669922 14.5429688,12.4345703 C14.7753906,12.2021484 14.8916016,11.9199219 14.8916016,11.5878906 L14.8916016,1.1953125 C14.8916016,0.86328125 14.7753906,0.581054688 14.5429688,0.348632812 C14.3105469,0.116210938 14.0283203,0 13.6962891,0 Z M12.4179688,1.1953125 L7.96875,4.9140625 L7.93554688,4.93066406 L7.91894531,4.96386719 C7.79720052,5.08561198 7.65332031,5.14648438 7.48730469,5.14648438 L7.47070312,5.14648438 C7.3046875,5.14648438 7.16634115,5.08561198 7.05566406,4.96386719 L7.02246094,4.94726562 L2.47363281,1.1953125 L12.4179688,1.1953125 Z M13.6962891,11.5878906 L1.1953125,11.5878906 L1.1953125,11.5878906 L1.1953125,1.67675781 L6.22558594,5.82714844 C6.5686849,6.1702474 6.98925781,6.34179688 7.48730469,6.34179688 L7.48730469,6.34179688 C7.98535156,6.34179688 8.40592448,6.16471354 8.74902344,5.81054688 L13.6962891,1.67675781 L13.6962891,11.5878906 Z" id="形狀"></path>
                </g>
            </g>
        </g>
    </g>
</svg>