<?xml version="1.0" encoding="UTF-8"?>
<svg width="28px" height="28px" viewBox="0 0 28 28" version="1.1" xmlns="http://www.w3.org/2000/svg" xmlns:xlink="http://www.w3.org/1999/xlink">
    <title>c-icon-07</title>
    <g id="page-v1" stroke="none" stroke-width="1" fill="none" fill-rule="evenodd">
        <g id="102_客戶服務-聯絡三花" transform="translate(-542.000000, -740.000000)" fill="#FFFFFF">
            <g id="c-icon-07" transform="translate(542.000000, 740.000000)">
                <circle id="橢圓形copycopycopy-2" cx="14" cy="14" r="14"></circle>
                <g id="customer-service---anticon" transform="translate(6.125000, 6.375000)" fill-rule="nonzero">
                    <path d="M13.6054688,4.44726562 C13.5351562,4.14257812 13.4296875,3.83789062 13.2890625,3.53320312 C12.9960938,2.84179688 12.5742188,2.2265625 12.0234375,1.6875 C11.484375,1.16015625 10.8574219,0.75 10.1425781,0.45703125 C9.40429688,0.15234375 8.63671875,0 7.83984375,0 C7.04296875,0 6.27539062,0.15234375 5.53710938,0.45703125 C4.83398438,0.75 4.20703125,1.16308594 3.65625,1.69628906 C3.10546875,2.22949219 2.68359375,2.84179688 2.390625,3.53320312 C2.26171875,3.82617188 2.15625,4.13671875 2.07421875,4.46484375 C1.79296875,4.55859375 1.52929688,4.69335938 1.28320312,4.86914062 C1.02539062,5.05664062 0.802734375,5.27929688 0.615234375,5.53710938 C0.205078125,6.08789062 0,6.70898438 0,7.40039062 C0,8.24414062 0.298828125,8.96484375 0.896484375,9.5625 C1.33007812,9.99609375 1.83984375,10.2773438 2.42578125,10.40625 C2.47265625,10.4179688 2.51953125,10.4238281 2.56640625,10.4238281 C2.7421875,10.4238281 2.88867188,10.359375 3.00585938,10.2304688 C3.12304688,10.1132812 3.18164062,9.96679688 3.18164062,9.79101562 L3.1640625,5.80078125 C3.1640625,4.546875 3.61523438,3.47460938 4.51757812,2.58398438 C5.43164062,1.69335938 6.53613281,1.24804688 7.83105469,1.24804688 C9.12597656,1.24804688 10.2304688,1.69335938 11.1445312,2.58398438 C12.0585938,3.47460938 12.515625,4.546875 12.515625,5.80078125 L12.515625,9.94921875 C12.515625,11.203125 12.0585938,12.2753906 11.1445312,13.1660156 C10.78125,13.5292969 10.3652344,13.8222656 9.89648438,14.0449219 C9.90820312,13.9160156 9.9140625,13.7871094 9.9140625,13.6582031 C9.90234375,13.1191406 9.703125,12.65625 9.31640625,12.2695312 C8.9296875,11.8828125 8.46679688,11.6777344 7.92773438,11.6542969 L7.875,11.6542969 C7.3125,11.6542969 6.83203125,11.8564453 6.43359375,12.2607422 C6.03515625,12.6650391 5.8359375,13.1484375 5.8359375,13.7109375 C5.8359375,14.2617188 6.03222656,14.7363281 6.42480469,15.1347656 C6.81738281,15.5332031 7.2890625,15.7382812 7.83984375,15.75 L7.83984375,15.75 L7.875,15.75 L7.875,15.75 L7.91015625,15.75 L7.92773438,15.75 L7.92773438,15.75 L7.92773438,15.75 C8.70117188,15.7382812 9.43945312,15.5859375 10.1425781,15.2929688 C10.8457031,15 11.4726562,14.5869141 12.0234375,14.0537109 C12.5742188,13.5205078 13.0019531,12.9082031 13.3066406,12.2167969 C13.5644531,11.5957031 13.7167969,10.9453125 13.7636719,10.265625 C14.1738281,10.1132812 14.5371094,9.87890625 14.8535156,9.5625 C15.4511719,8.96484375 15.75,8.24414062 15.75,7.40039062 C15.75,6.72070312 15.5507812,6.10839844 15.1523438,5.56347656 C14.7539062,5.01855469 14.2382812,4.64648438 13.6054688,4.44726562 Z M0.31640625,8.38476562 C0.328125,8.41992188 0.345703125,8.4609375 0.369140625,8.5078125 C0.345703125,8.44921875 0.328125,8.40820312 0.31640625,8.38476562 Z M0.4921875,8.77148438 C0.515625,8.81835938 0.544921875,8.87109375 0.580078125,8.9296875 C0.533203125,8.859375 0.50390625,8.80664062 0.4921875,8.77148438 Z M1.91601562,8.7890625 C1.86914062,8.75390625 1.828125,8.71875 1.79296875,8.68359375 C1.4296875,8.3203125 1.24804688,7.89257812 1.24804688,7.40039062 C1.24804688,7.06054688 1.33007812,6.75 1.49414062,6.46875 C1.59960938,6.26953125 1.74023438,6.09960938 1.91601562,5.95898438 L1.91601562,8.7890625 Z M2.1796875,4.58789062 L2.1796875,4.58789062 C2.19140625,4.52929688 2.21484375,4.453125 2.25,4.359375 C2.2265625,4.44140625 2.203125,4.51757812 2.1796875,4.58789062 Z M2.4609375,10.265625 C2.40234375,10.2539062 2.34375,10.2421875 2.28515625,10.2304688 C2.390625,10.2539062 2.44921875,10.265625 2.4609375,10.265625 C2.47265625,10.265625 2.484375,10.265625 2.49609375,10.265625 C2.484375,10.265625 2.47265625,10.265625 2.4609375,10.265625 Z M3.04101562,9.80859375 L3.04101562,9.79101562 L3.0234375,5.80078125 L3.04101562,9.79101562 C3.04101562,9.80273438 3.04101562,9.80859375 3.04101562,9.80859375 Z M4.27148438,1.3359375 C4.35351562,1.27734375 4.41210938,1.23632812 4.44726562,1.21289062 C4.37695312,1.25976562 4.31835938,1.30078125 4.27148438,1.3359375 Z M5.58984375,0.580078125 C5.23828125,0.732421875 4.8984375,0.9140625 4.5703125,1.125 C4.8984375,0.9140625 5.23828125,0.732421875 5.58984375,0.580078125 C5.6015625,0.580078125 5.61621094,0.577148438 5.63378906,0.571289062 C5.65136719,0.565429688 5.66601562,0.5625 5.67773438,0.5625 C5.64257812,0.5625 5.61328125,0.568359375 5.58984375,0.580078125 Z M6.64453125,1.24804688 C6.64453125,1.24804688 6.65625,1.24511719 6.6796875,1.23925781 C6.703125,1.23339844 6.72070312,1.23046875 6.73242188,1.23046875 C6.74414062,1.23046875 6.75585938,1.23046875 6.76757812,1.23046875 C6.76757812,1.23046875 6.7265625,1.23632812 6.64453125,1.24804688 Z M11.9179688,1.79296875 C11.390625,1.27734375 10.78125,0.873046875 10.0898438,0.580078125 C10.078125,0.580078125 10.0634766,0.577148438 10.0458984,0.571289062 C10.0283203,0.565429688 10.0136719,0.5625 10.0019531,0.5625 C10.0136719,0.5625 10.0283203,0.565429688 10.0458984,0.571289062 C10.0634766,0.577148438 10.078125,0.580078125 10.0898438,0.580078125 C10.78125,0.873046875 11.390625,1.27734375 11.9179688,1.79296875 C11.953125,1.828125 11.9882812,1.86328125 12.0234375,1.8984375 L11.9179688,1.79296875 Z M12.1289062,2.00390625 C12.1757812,2.05078125 12.2285156,2.109375 12.2871094,2.1796875 C12.2285156,2.109375 12.1757812,2.05078125 12.1289062,2.00390625 Z M12.3222656,2.21484375 C12.3457031,2.25 12.3925781,2.30859375 12.4628906,2.390625 C12.4160156,2.34375 12.3691406,2.28515625 12.3222656,2.21484375 Z M8.66601562,13.7109375 C8.66601562,13.921875 8.59277344,14.1035156 8.44628906,14.2558594 C8.29980469,14.4082031 8.12109375,14.4902344 7.91015625,14.5019531 L7.875,14.5019531 C7.65234375,14.5019531 7.46484375,14.4228516 7.3125,14.2646484 C7.16015625,14.1064453 7.08398438,13.921875 7.08398438,13.7109375 C7.08398438,13.4882812 7.16015625,13.2978516 7.3125,13.1396484 C7.46484375,12.9814453 7.65234375,12.9023438 7.875,12.9023438 C8.09765625,12.9023438 8.28515625,12.9814453 8.4375,13.1396484 C8.58984375,13.2978516 8.66601562,13.4882812 8.66601562,13.7109375 Z M8.80664062,13.8515625 C8.80664062,13.8046875 8.80664062,13.7578125 8.80664062,13.7109375 C8.80664062,13.6875 8.80664062,13.6699219 8.80664062,13.6582031 C8.80664062,13.6582031 8.80664062,13.6640625 8.80664062,13.6757812 C8.80664062,13.6875 8.80664062,13.6992188 8.80664062,13.7109375 C8.80664062,13.7578125 8.80664062,13.8046875 8.80664062,13.8515625 Z M11.9179688,13.9570312 C11.9179688,13.9570312 11.8828125,13.9921875 11.8125,14.0625 C11.8242188,14.0507812 11.8447266,14.0332031 11.8740234,14.0097656 C11.9033203,13.9863281 11.9179688,13.96875 11.9179688,13.9570312 C11.953125,13.921875 11.9882812,13.8867188 12.0234375,13.8515625 C11.9882812,13.8984375 11.953125,13.9335938 11.9179688,13.9570312 Z M12.65625,9.94921875 C12.65625,10.03125 12.65625,10.1132812 12.65625,10.1953125 C12.65625,10.1132812 12.65625,10.03125 12.65625,9.94921875 L12.65625,5.80078125 C12.65625,5.75390625 12.65625,5.71875 12.65625,5.6953125 C12.65625,5.70703125 12.65625,5.72460938 12.65625,5.74804688 C12.65625,5.77148438 12.65625,5.7890625 12.65625,5.80078125 L12.65625,9.94921875 Z M13.1660156,12.1640625 C13.1308594,12.2460938 13.0898438,12.328125 13.0429688,12.4101562 C13.0898438,12.328125 13.1308594,12.2460938 13.1660156,12.1640625 C13.1660156,12.1523438 13.171875,12.1376953 13.1835938,12.1201172 C13.1953125,12.1025391 13.2011719,12.0878906 13.2011719,12.0761719 C13.1894531,12.1113281 13.1777344,12.140625 13.1660156,12.1640625 Z M13.1660156,3.5859375 C13.1308594,3.50390625 13.0898438,3.421875 13.0429688,3.33984375 C13.0898438,3.421875 13.1308594,3.50390625 13.1660156,3.5859375 C13.1777344,3.609375 13.1953125,3.65039062 13.21875,3.70898438 C13.2070312,3.67382812 13.1894531,3.6328125 13.1660156,3.5859375 Z M13.4824219,4.5703125 C13.4824219,4.53515625 13.4765625,4.49414062 13.4648438,4.44726562 C13.4648438,4.45898438 13.4677734,4.4765625 13.4736328,4.5 C13.4794922,4.5234375 13.4824219,4.546875 13.4824219,4.5703125 Z M13.6230469,5.66015625 C13.7050781,5.6953125 13.7753906,5.73632812 13.8339844,5.78320312 C13.7753906,5.73632812 13.7050781,5.6953125 13.6230469,5.66015625 Z M14.0625,8.7890625 C13.9335938,8.91796875 13.7871094,9.0234375 13.6230469,9.10546875 L13.6230469,9.10546875 C13.7871094,9.0234375 13.9335938,8.91796875 14.0625,8.7890625 C14.0625,8.77734375 14.0683594,8.77148438 14.0800781,8.77148438 C14.0800781,8.75976562 14.0859375,8.75390625 14.0976562,8.75390625 C14.0859375,8.75390625 14.0800781,8.75976562 14.0800781,8.77148438 C14.0683594,8.77148438 14.0625,8.77734375 14.0625,8.7890625 Z M13.9570312,8.68359375 C13.8984375,8.7421875 13.8339844,8.80078125 13.7636719,8.859375 L13.7636719,5.90625 C13.9628906,6.05859375 14.1210938,6.234375 14.2382812,6.43359375 C14.4140625,6.7265625 14.5019531,7.04882812 14.5019531,7.40039062 C14.5019531,7.89257812 14.3203125,8.3203125 13.9570312,8.68359375 Z M15.4863281,6.5390625 C15.4628906,6.46875 15.4511719,6.43359375 15.4511719,6.43359375 C15.4628906,6.45703125 15.4746094,6.4921875 15.4863281,6.5390625 Z M15.3105469,6.09960938 C15.3222656,6.11132812 15.3398438,6.14648438 15.3632812,6.20507812 C15.3515625,6.19335938 15.3427734,6.17285156 15.3369141,6.14355469 C15.3310547,6.11425781 15.3222656,6.09960938 15.3105469,6.09960938 Z M15.4511719,8.3671875 C15.4511719,8.34375 15.4628906,8.30273438 15.4863281,8.24414062 C15.4746094,8.26757812 15.4628906,8.30859375 15.4511719,8.3671875 Z" id="形狀"></path>
                </g>
            </g>
        </g>
    </g>
</svg>