<?xml version="1.0" encoding="UTF-8"?>
<svg width="28px" height="28px" viewBox="0 0 28 28" version="1.1" xmlns="http://www.w3.org/2000/svg" xmlns:xlink="http://www.w3.org/1999/xlink">
    <title>c-icon-03</title>
    <g id="page-v1" stroke="none" stroke-width="1" fill="none" fill-rule="evenodd">
        <g id="102_客戶服務-聯絡三花" transform="translate(-541.000000, -492.000000)">
            <g id="c-icon-03" transform="translate(541.000000, 492.000000)">
                <circle id="橢圓形" fill="#B10E0E" cx="14" cy="14" r="14"></circle>
                <g id="Location-pin---simple-line-icons" transform="translate(7.250000, 5.125000)" fill="#FFFFFF" fill-rule="nonzero">
                    <path d="M6.8203125,0 C5.89453125,0 5.01855469,0.181640625 4.19238281,0.544921875 C3.36621094,0.908203125 2.64257812,1.40332031 2.02148438,2.03027344 C1.40039062,2.65722656 0.908203125,3.38671875 0.544921875,4.21875 C0.181640625,5.05078125 0,5.9296875 0,6.85546875 C0,7.828125 0.202148438,8.80078125 0.606445312,9.7734375 C1.01074219,10.7460938 1.51464844,11.6923828 2.11816406,12.6123047 C2.72167969,13.5322266 3.37792969,14.4082031 4.08691406,15.2402344 C4.79589844,16.0722656 5.45507812,16.8398438 6.06445312,17.5429688 C6.06445312,17.5546875 6.14941406,17.6337891 6.31933594,17.7802734 C6.48925781,17.9267578 6.69726562,18 6.94335937,18 L6.99609375,18 C7.23046875,18 7.43554688,17.9267578 7.61132813,17.7802734 C7.78710937,17.6337891 7.875,17.5546875 7.875,17.5429688 C8.44921875,16.8867188 9.06445312,16.1367188 9.72070312,15.2929688 C10.3769531,14.4492188 10.9863281,13.5556641 11.5488281,12.6123047 C12.1113281,11.6689453 12.5771484,10.7080078 12.9462891,9.72949219 C13.3154297,8.75097656 13.5,7.79296875 13.5,6.85546875 C13.5,5.9296875 13.3505859,5.05078125 13.0517578,4.21875 C12.7529297,3.38671875 12.3193359,2.65722656 11.7509766,2.03027344 C11.1826172,1.40332031 10.4824219,0.908203125 9.65039062,0.544921875 C8.81835938,0.181640625 7.875,0 6.8203125,0 Z M7.03125,16.7871094 C7.03125,16.7988281 7.02246094,16.8105469 7.00488281,16.8222656 C6.98730469,16.8339844 6.97265625,16.8457031 6.9609375,16.8574219 C6.94921875,16.8457031 6.9375,16.8339844 6.92578125,16.8222656 C6.9140625,16.8105469 6.90234375,16.7988281 6.890625,16.7871094 L6.59179688,16.453125 C6.01757812,15.7851562 5.40820312,15.0673828 4.76367188,14.2998047 C4.11914062,13.5322266 3.52734375,12.7353516 2.98828125,11.9091797 C2.44921875,11.0830078 2.00390625,10.2421875 1.65234375,9.38671875 C1.30078125,8.53125 1.125,7.6875 1.125,6.85546875 C1.125,6.08203125 1.27734375,5.34667969 1.58203125,4.64941406 C1.88671875,3.95214844 2.296875,3.34277344 2.8125,2.82128906 C3.328125,2.29980469 3.93164062,1.88671875 4.62304688,1.58203125 C5.31445312,1.27734375 6.046875,1.125 6.8203125,1.125 C7.78125,1.125 8.61035156,1.2890625 9.30761719,1.6171875 C10.0048828,1.9453125 10.5820312,2.37890625 11.0390625,2.91796875 C11.4960938,3.45703125 11.8330078,4.06933594 12.0498047,4.75488281 C12.2666016,5.44042969 12.375,6.140625 12.375,6.85546875 C12.375,7.48828125 12.2636719,8.17089844 12.0410156,8.90332031 C11.8183594,9.63574219 11.484375,10.4150391 11.0390625,11.2412109 C10.59375,12.0673828 10.0371094,12.9433594 9.36914062,13.8691406 C8.70117188,14.7949219 7.921875,15.7675781 7.03125,16.7871094 Z M6.76757812,3.39257812 C5.84179688,3.39257812 5.04785156,3.72363281 4.38574219,4.38574219 C3.72363281,5.04785156 3.39257812,5.84179688 3.39257812,6.76757812 C3.39257812,7.70507812 3.72363281,8.50195312 4.38574219,9.15820312 C5.04785156,9.81445312 5.84179688,10.1425781 6.76757812,10.1425781 C7.70507812,10.1425781 8.50195312,9.81445312 9.15820312,9.15820312 C9.81445312,8.50195312 10.1425781,7.70507812 10.1425781,6.76757812 C10.1425781,5.84179688 9.81445312,5.04785156 9.15820312,4.38574219 C8.50195312,3.72363281 7.70507812,3.39257812 6.76757812,3.39257812 Z M6.76757812,9.01757812 C6.14648438,9.01757812 5.61328125,8.79492188 5.16796875,8.34960938 C4.72265625,7.90429688 4.5,7.37109375 4.5,6.75 C4.5,6.12890625 4.71972656,5.59863281 5.15917969,5.15917969 C5.59863281,4.71972656 6.12890625,4.5 6.75,4.5 C7.37109375,4.5 7.90136719,4.71972656 8.34082031,5.15917969 C8.78027344,5.59863281 9,6.12890625 9,6.75 C9,7.37109375 8.78320312,7.90429688 8.34960938,8.34960938 C7.91601562,8.79492188 7.38867188,9.01757812 6.76757812,9.01757812 Z" id="形狀"></path>
                </g>
            </g>
        </g>
    </g>
</svg>