<?xml version="1.0" encoding="UTF-8"?>
<svg width="58px" height="48px" viewBox="0 0 58 48" version="1.1" xmlns="http://www.w3.org/2000/svg" xmlns:xlink="http://www.w3.org/1999/xlink">
    <title>icon-win03</title>
    <defs>
        <polygon id="path-1" points="0 0 49 0 49 37 0 37"></polygon>
        <polygon id="path-3" points="0 0 8 0 8 8 0 8"></polygon>
    </defs>
    <g id="元素" stroke="none" stroke-width="1" fill="none" fill-rule="evenodd">
        <g id="icon-nomor" transform="translate(-257, -617)">
            <g id="icon-win03" transform="translate(257, 617)">
                <g id="群組">
                    <g transform="translate(4, 11)">
                        <mask id="mask-2" fill="white">
                            <use xlink:href="#path-1"></use>
                        </mask>
                        <g id="Clip-2"></g>
                        <path d="M44.6858234,10.4101501 L37.3100728,12.2678469 C36.985692,12.3513197 36.6469319,12.2244069 36.4342024,11.9705813 L28.3267977,1.76347038 C26.316229,-0.587823462 22.6841794,-0.587823462 20.6731877,1.76347038 L12.576779,11.9705813 C12.3678558,12.2244069 12.0147163,12.3513197 11.6903356,12.2678469 L4.31416207,10.4101501 C1.76690601,9.76068028 -0.524905477,12.0830142 0.105670446,14.6336207 L4.73962107,33.2736187 C5.28730439,35.4724469 7.24373914,37.0000852 9.49579601,37.0000852 L39.5041894,37.0000852 C41.7562463,37.0000852 43.7270604,35.4724469 44.2607873,33.2591388 L48.894315,14.6336207 C49.5248909,12.0830142 47.2335024,9.76068028 44.6858234,10.4101501" id="Fill-1" fill="#00A2D9" mask="url(#mask-2)"></path>
                    </g>
                    <path d="M8,14.9962441 C8,17.2080334 6.20803339,19 3.99624413,19 C1.78821075,19 0,17.2080334 0,14.9962441 C0,12.7882107 1.78821075,11 3.99624413,11 C6.20803339,11 8,12.7882107 8,14.9962441" id="Fill-3" fill="#00A2D9"></path>
                    <path d="M58,14.9962441 C58,17.2080334 56.2113719,19 54.0037559,19 C51.7919666,19 50,17.2080334 50,14.9962441 C50,12.7882107 51.7919666,11 54.0037559,11 C56.2113719,11 58,12.7882107 58,14.9962441" id="Fill-5" fill="#00A2D9"></path>
                    <g transform="translate(25, 0)">
                        <mask id="mask-4" fill="white">
                            <use xlink:href="#path-3"></use>
                        </mask>
                        <g id="Clip-8"></g>
                        <path d="M8,3.99997913 C8,6.20802404 6.20803339,8 4,8 C1.79196661,8 0,6.20802404 0,3.99997913 C0,1.79193423 1.79196661,-4.17320907e-05 4,-4.17320907e-05 C6.20803339,-4.17320907e-05 8,1.79193423 8,3.99997913" id="Fill-7" fill="#00A2D9" mask="url(#mask-4)"></path>
                    </g>
                </g>
                <g id="03" transform="translate(19.1807, 28.0186)" fill="#FFFFFF" fill-rule="nonzero">
                    <path d="M8.65722656,8.34960938 C8.65722656,9.84960938 8.26318359,11.0273438 7.47509766,11.8828125 C6.68701172,12.7382812 5.64257812,13.1660156 4.34179688,13.1660156 C3.02929688,13.1660156 1.97753906,12.7382812 1.18652344,11.8828125 C0.395507812,11.0273438 0,9.84960938 0,8.34960938 L0,4.82519531 C0,3.33105469 0.394042969,2.15332031 1.18212891,1.29199219 C1.97021484,0.430664062 3.01757813,0 4.32421875,0 C5.625,0 6.67236328,0.430664062 7.46630859,1.29199219 C8.26025391,2.15332031 8.65722656,3.33105469 8.65722656,4.82519531 L8.65722656,8.34960938 Z M6.09960938,4.56152344 C6.09960938,3.74121094 5.94287109,3.10546875 5.62939453,2.65429688 C5.31591797,2.203125 4.88085938,1.97753906 4.32421875,1.97753906 C3.76171875,1.97753906 3.32666016,2.203125 3.01904297,2.65429688 C2.71142578,3.10546875 2.55761719,3.74121094 2.55761719,4.56152344 L2.55761719,8.59570312 C2.55761719,9.43359375 2.71289062,10.0766602 3.0234375,10.5249023 C3.33398438,10.9731445 3.7734375,11.1972656 4.34179688,11.1972656 C4.8984375,11.1972656 5.33056641,10.9731445 5.63818359,10.5249023 C5.94580078,10.0766602 6.09960938,9.43359375 6.09960938,8.59570312 L6.09960938,4.56152344 Z" id="形狀"></path>
                    <path d="M14.5810547,5.45800781 C15.1904297,5.45800781 15.6430664,5.29980469 15.9389648,4.98339844 C16.2348633,4.66699219 16.3828125,4.22167969 16.3828125,3.64746094 C16.3828125,3.16699219 16.2275391,2.76855469 15.9169922,2.45214844 C15.6064453,2.13574219 15.1728516,1.97753906 14.6162109,1.97753906 C14.1474609,1.97753906 13.753418,2.12109375 13.434082,2.40820312 C13.1147461,2.6953125 12.9550781,3.06152344 12.9550781,3.50683594 L10.4765625,3.50683594 L10.4589844,3.45410156 C10.4238281,2.45214844 10.8105469,1.62597656 11.6191406,0.975585938 C12.4277344,0.325195312 13.4267578,0 14.6162109,0 C15.9404297,0 16.9921875,0.312011719 17.7714844,0.936035156 C18.5507812,1.56005859 18.9404297,2.45507812 18.9404297,3.62109375 C18.9404297,4.20703125 18.7719727,4.74462891 18.4350586,5.23388672 C18.0981445,5.72314453 17.6367187,6.10839844 17.0507812,6.38964844 C17.71875,6.64160156 18.234375,7.02392578 18.5976562,7.53662109 C18.9609375,8.04931641 19.1425781,8.66894531 19.1425781,9.39550781 C19.1425781,10.5673828 18.7192383,11.4887695 17.8725586,12.159668 C17.0258789,12.8305664 15.9404297,13.1660156 14.6162109,13.1660156 C13.4501953,13.1660156 12.4306641,12.8496094 11.5576172,12.2167969 C10.6845703,11.5839844 10.2626953,10.6962891 10.2919922,9.55371094 L10.3095703,9.50097656 L12.8056641,9.50097656 C12.8056641,9.98144531 12.9741211,10.3842773 13.3110352,10.7094727 C13.6479492,11.034668 14.0830078,11.1972656 14.6162109,11.1972656 C15.2021484,11.1972656 15.6767578,11.0244141 16.0400391,10.6787109 C16.4033203,10.3330078 16.5849609,9.89648438 16.5849609,9.36914062 C16.5849609,8.6953125 16.4150391,8.19580078 16.0751953,7.87060547 C15.7353516,7.54541016 15.2373047,7.3828125 14.5810547,7.3828125 L13.1660156,7.3828125 L13.1660156,5.45800781 L14.5810547,5.45800781 Z" id="路徑"></path>
                </g>
            </g>
        </g>
    </g>
</svg>