<?xml version="1.0" encoding="UTF-8"?>
<svg width="30px" height="27px" viewBox="0 0 30 27" version="1.1" xmlns="http://www.w3.org/2000/svg" xmlns:xlink="http://www.w3.org/1999/xlink">
    <title>icon-download</title>
    <g id="page-v2" stroke="none" stroke-width="1" fill="none" fill-rule="evenodd">
        <g id="205_三花誌" transform="translate(-546, -3137)" fill="#8093A8" fill-rule="nonzero">
            <g id="群組-2" transform="translate(536, 3126)">
                <g id="icon-download" transform="translate(10, 11.8379)">
                    <path d="M22.3535156,5.65429688 C22.0214844,4.79492188 21.6015625,4.01367188 21.09375,3.31054688 C20.5859375,2.60742188 19.9804688,2.01171875 19.2773438,1.5234375 C18.5742188,1.03515625 17.7832031,0.659179688 16.9042969,0.395507812 C16.0253906,0.131835938 15.0585938,0 14.0039062,0 C12.6367188,0 11.3916016,0.234375 10.2685547,0.703125 C9.14550781,1.171875 8.16894531,1.82128906 7.33886719,2.65136719 C6.50878906,3.48144531 5.84472656,4.45800781 5.34667969,5.58105469 C4.84863281,6.70410156 4.56054688,7.91992188 4.48242188,9.22851562 C3.17382812,9.63867188 2.09960938,10.4492188 1.25976562,11.6601562 C0.419921875,12.8710938 0,14.2285156 0,15.7324219 C0,16.6503906 0.170898438,17.5195312 0.512695312,18.3398438 C0.854492188,19.1601562 1.31347656,19.8828125 1.88964844,20.5078125 C2.46582031,21.1328125 3.13476562,21.6259766 3.89648438,21.9873047 C4.65820312,22.3486328 5.46875,22.5292969 6.328125,22.5292969 L7.1484375,22.5292969 C7.421875,22.5292969 7.64648438,22.4365234 7.82226562,22.2509766 C7.99804688,22.0654297 8.0859375,21.8457031 8.0859375,21.5917969 C8.0859375,21.3378906 7.99804688,21.1181641 7.82226562,20.9326172 C7.64648438,20.7470703 7.421875,20.6542969 7.1484375,20.6542969 L6.328125,20.6542969 C5.1171875,20.6542969 4.06738281,20.1660156 3.17871094,19.1894531 C2.29003906,18.2128906 1.84570312,17.0605469 1.84570312,15.7324219 C1.84570312,14.5605469 2.20703125,13.5058594 2.9296875,12.5683594 C3.65234375,11.6308594 4.53125,11.0742188 5.56640625,10.8984375 L6.41601562,10.7519531 L6.35742188,9.87304688 L6.328125,9.87304688 C6.328125,8.74023438 6.50878906,7.68066406 6.87011719,6.69433594 C7.23144531,5.70800781 7.74902344,4.85839844 8.42285156,4.14550781 C9.09667969,3.43261719 9.90234375,2.87597656 10.8398438,2.47558594 C11.7773438,2.07519531 12.8320312,1.875 14.0039062,1.875 C15.859375,1.875 17.3291016,2.30957031 18.4130859,3.17871094 C19.4970703,4.04785156 20.2832031,5.26367188 20.7714844,6.82617188 L20.9765625,7.47070312 L21.6503906,7.5 C22.5292969,7.5 23.359375,7.67089844 24.140625,8.01269531 C24.921875,8.35449219 25.6152344,8.81347656 26.2207031,9.38964844 C26.8261719,9.96582031 27.3046875,10.6396484 27.65625,11.4111328 C28.0078125,12.1826172 28.1835938,13.0078125 28.1835938,13.8867188 C28.1835938,14.6875 28.0566406,15.4882813 27.8027344,16.2890625 C27.5488281,17.0898438 27.1875,17.8173828 26.71875,18.4716797 C26.25,19.1259766 25.6884766,19.6533203 25.0341797,20.0537109 C24.3798828,20.4541016 23.6523438,20.6542969 22.8515625,20.6542969 L22.5878906,20.6542969 C22.3339844,20.6542969 22.1142578,20.7470703 21.9287109,20.9326172 C21.7431641,21.1181641 21.6503906,21.3378906 21.6503906,21.5917969 C21.6503906,21.8457031 21.7431641,22.0654297 21.9287109,22.2509766 C22.1142578,22.4365234 22.3339844,22.5292969 22.5878906,22.5292969 L22.5878906,22.5292969 C23.7597656,22.4902344 24.8046875,22.2070312 25.7226562,21.6796875 C26.640625,21.1523438 27.4169922,20.4833984 28.0517578,19.6728516 C28.6865234,18.8623047 29.1699219,17.9492188 29.5019531,16.9335938 C29.8339844,15.9179688 30,14.9023438 30,13.8867188 C30,12.8125 29.7998047,11.8017578 29.3994141,10.8544922 C28.9990234,9.90722656 28.4521484,9.06738281 27.7587891,8.33496094 C27.0654297,7.60253906 26.2548828,7.00195312 25.3271484,6.53320312 C24.3994141,6.06445312 23.4082031,5.77148437 22.3535156,5.65429688 Z M18.9257812,20.7421875 C18.8085938,20.6054688 18.6572266,20.5371094 18.4716797,20.5371094 C18.2861328,20.5371094 18.125,20.6054688 17.9882812,20.7421875 L15.9375,23.0273438 L15.9375,13.59375 C15.9375,13.3398438 15.8447266,13.1201172 15.6591797,12.9345703 C15.4736328,12.7490234 15.2539062,12.65625 15,12.65625 C14.7265625,12.65625 14.5019531,12.7490234 14.3261719,12.9345703 C14.1503906,13.1201172 14.0625,13.3398438 14.0625,13.59375 L14.0625,23.0273438 L12.0703125,20.8007812 C11.9335938,20.6640625 11.7724609,20.5859375 11.5869141,20.5664062 C11.4013672,20.546875 11.2402344,20.6054688 11.1035156,20.7421875 L10.8691406,20.8886719 C10.7324219,21.0253906 10.6640625,21.1914062 10.6640625,21.3867188 C10.6640625,21.5820312 10.7324219,21.7480469 10.8691406,21.8847656 L14.2675781,25.6054688 C14.2675781,25.625 14.2675781,25.6347656 14.2675781,25.6347656 C14.2675781,25.6347656 14.2675781,25.6347656 14.2675781,25.6347656 L14.5019531,25.8691406 C14.5605469,25.9472656 14.6337891,26.0009766 14.7216797,26.0302734 C14.8095703,26.0595703 14.8925781,26.0742188 14.9707031,26.0742188 C15.0683594,26.0742188 15.15625,26.0595703 15.234375,26.0302734 C15.3125,26.0009766 15.390625,25.9472656 15.46875,25.8691406 L15.703125,25.6347656 C15.703125,25.6347656 15.703125,25.6347656 15.703125,25.6347656 C15.703125,25.6347656 15.703125,25.625 15.703125,25.6054688 L19.1601562,21.8261719 C19.296875,21.6894531 19.3652344,21.5429688 19.3652344,21.3867188 C19.3652344,21.2304688 19.296875,21.0839844 19.1601562,20.9472656 L18.9257812,20.7421875 Z" id="形狀"></path>
                </g>
            </g>
        </g>
    </g>
</svg>