<?xml version="1.0" encoding="UTF-8"?>
<svg width="24px" height="24px" viewBox="0 0 24 24" version="1.1" xmlns="http://www.w3.org/2000/svg" xmlns:xlink="http://www.w3.org/1999/xlink">
    <title>icon-store-time</title>
    <g id="元素" stroke="none" stroke-width="1" fill="none" fill-rule="evenodd">
        <g id="icon-nomor" transform="translate(-137, -306)">
            <g id="icon-store-time" transform="translate(137, 306)">
                <circle id="橢圓形copycopycopycopycopycopy-2copy" fill="#8093A8" cx="12" cy="12" r="12"></circle>
                <g id="clock-circle-o---anticoncopy-2copy" transform="translate(4, 4)" fill="#FFFFFF" fill-rule="nonzero">
                    <path d="M12.015625,1.078125 C10.7864583,0.359375 9.44791667,0 8,0 C6.55208333,0 5.21354167,0.356770833 3.984375,1.0703125 C2.75520833,1.78385417 1.78385417,2.75520833 1.0703125,3.984375 C0.356770833,5.21354167 0,6.55208333 0,8 C0,9.44791667 0.356770833,10.7864583 1.0703125,12.015625 C1.78385417,13.2447917 2.75520833,14.2161458 3.984375,14.9296875 C5.21354167,15.6432292 6.55208333,16 8,16 C9.44791667,16 10.7864583,15.6432292 12.015625,14.9296875 C13.2447917,14.2161458 14.2161458,13.2447917 14.9296875,12.015625 C15.6432292,10.7864583 16,9.44791667 16,8 C16,6.55208333 15.6432292,5.21354167 14.9296875,3.984375 C14.2161458,2.75520833 13.2447917,1.78645833 12.015625,1.078125 Z M12.859375,12.859375 C12.2239583,13.4947917 11.4947917,13.984375 10.671875,14.328125 C9.828125,14.6927083 8.9375,14.875 8,14.875 C7.0625,14.875 6.171875,14.6979167 5.328125,14.34375 C4.50520833,13.9895833 3.77604167,13.4947917 3.140625,12.859375 C2.50520833,12.2239583 2.015625,11.4947917 1.671875,10.671875 C1.30729167,9.828125 1.125,8.9375 1.125,8 C1.125,7.0625 1.30208333,6.171875 1.65625,5.328125 C2.01041667,4.50520833 2.50520833,3.77604167 3.140625,3.140625 C3.77604167,2.50520833 4.50520833,2.015625 5.328125,1.671875 C6.171875,1.30729167 7.0625,1.125 8,1.125 C8.9375,1.125 9.828125,1.30208333 10.671875,1.65625 C11.4947917,2.01041667 12.2239583,2.50520833 12.859375,3.140625 C13.4947917,3.77604167 13.984375,4.50520833 14.328125,5.328125 C14.6927083,6.171875 14.875,7.0625 14.875,8 C14.875,8.9375 14.6979167,9.828125 14.34375,10.671875 C13.9895833,11.4947917 13.4947917,12.2239583 12.859375,12.859375 Z M11.453125,7.875 L8.5625,7.875 L8.5625,4.125 C8.5625,3.96875 8.5078125,3.8359375 8.3984375,3.7265625 C8.2890625,3.6171875 8.15625,3.5625 8,3.5625 L8,3.5625 C7.84375,3.5625 7.7109375,3.6171875 7.6015625,3.7265625 C7.4921875,3.8359375 7.4375,3.96875 7.4375,4.125 L7.4375,7.875 L7.4375,7.875 C7.4375,8.1875 7.546875,8.453125 7.765625,8.671875 C7.984375,8.890625 8.25,9 8.5625,9 L8.5625,9 L11.453125,9 C11.609375,9 11.7421875,8.9453125 11.8515625,8.8359375 C11.9609375,8.7265625 12.015625,8.59375 12.015625,8.4375 L12.015625,8.4375 C12.015625,8.28125 11.9609375,8.1484375 11.8515625,8.0390625 C11.7421875,7.9296875 11.609375,7.875 11.453125,7.875 Z" id="形狀"></path>
                </g>
            </g>
        </g>
    </g>
</svg>