<?xml version="1.0" encoding="UTF-8"?>
<svg width="24px" height="24px" viewBox="0 0 24 24" version="1.1" xmlns="http://www.w3.org/2000/svg" xmlns:xlink="http://www.w3.org/1999/xlink">
    <title>icon-store-phone</title>
    <g id="元素" stroke="none" stroke-width="1" fill="none" fill-rule="evenodd">
        <g id="icon-nomor" transform="translate(-99, -304)">
            <g id="群組-2" transform="translate(99, 304)">
                <circle id="橢圓形copycopycopycopycopy-3copy" fill="#8093A8" cx="12" cy="12" r="12"></circle>
                <g id="phone---materialcopy-2copy" transform="translate(6, 6.4)" fill="#FFFFFF" fill-rule="nonzero">
                    <path d="M2.4,5.184 C2.89066667,6.12266667 3.51466667,6.97066667 4.272,7.728 C5.02933333,8.48533333 5.87733333,9.10933333 6.816,9.6 L8.288,8.128 C8.37333333,8.032 8.48,7.968 8.608,7.936 C8.736,7.904 8.85866667,7.91466667 8.976,7.968 C9.68,8.21333333 10.4693333,8.336 11.344,8.336 C11.5253333,8.336 11.68,8.4 11.808,8.528 C11.936,8.656 12,8.81066667 12,8.992 L12,11.344 C12,11.5253333 11.936,11.68 11.808,11.808 C11.68,11.936 11.5253333,12 11.344,12 C9.808,12 8.336,11.7013333 6.928,11.104 C5.57333333,10.528 4.37333333,9.71733333 3.328,8.672 C2.28266667,7.62666667 1.472,6.42666667 0.896,5.072 C0.298666667,3.664 0,2.192 0,0.656 C0,0.474666667 0.064,0.32 0.192,0.192 C0.32,0.064 0.474666667,0 0.656,0 L3.008,0 C3.18933333,0 3.344,0.064 3.472,0.192 C3.6,0.32 3.664,0.474666667 3.664,0.656 C3.664,1.53066667 3.78666667,2.32 4.032,3.024 C4.064,3.14133333 4.06933333,3.264 4.048,3.392 C4.02666667,3.52 3.968,3.62666667 3.872,3.712 L2.4,5.184 Z" id="路徑"></path>
                </g>
            </g>
        </g>
    </g>
</svg>