<?xml version="1.0" encoding="UTF-8"?>
<svg width="82px" height="68px" viewBox="0 0 82 68" version="1.1" xmlns="http://www.w3.org/2000/svg" xmlns:xlink="http://www.w3.org/1999/xlink">
    <title>icon-win01</title>
    <defs>
        <polygon id="path-1" points="0 0 70 0 70 52 0 52"></polygon>
        <polygon id="path-3" points="0 0 11 0 11 11 0 11"></polygon>
    </defs>
    <g id="元素" stroke="none" stroke-width="1" fill="none" fill-rule="evenodd">
        <g id="icon-nomor" transform="translate(-67, -597)">
            <g id="icon-win01" transform="translate(67, 597)">
                <g id="群組">
                    <g transform="translate(5, 16)">
                        <mask id="mask-2" fill="white">
                            <use xlink:href="#path-1"></use>
                        </mask>
                        <g id="Clip-2"></g>
                        <path d="M63.8368905,14.6304813 L53.300104,17.2412983 C52.8367029,17.3586115 52.3527599,17.1802476 52.0488606,16.8235197 L40.4668539,2.47839081 C37.5946129,-0.82613027 32.4059705,-0.82613027 29.5331253,2.47839081 L17.9668271,16.8235197 C17.6683654,17.1802476 17.1638805,17.3586115 16.7004794,17.2412983 L6.16308867,14.6304813 C2.52415144,13.7177128 -0.749864967,16.9815334 0.150957779,20.5661697 L6.77088725,46.7629236 C7.55329198,49.8531686 10.3481988,52.0001197 13.5654229,52.0001197 L56.4345563,52.0001197 C59.6517804,52.0001197 62.4672291,49.8531686 63.2296961,46.7425734 L69.8490214,20.5661697 C70.7498442,16.9815334 67.4764319,13.7177128 63.8368905,14.6304813" id="Fill-1" fill="#F7C20F" mask="url(#mask-2)"></path>
                    </g>
                    <path d="M11,21.4948357 C11,24.5360459 8.53604591,27 5.49483568,27 C2.45878978,27 0,24.5360459 0,21.4948357 C0,18.4587898 2.45878978,16 5.49483568,16 C8.53604591,16 11,18.4587898 11,21.4948357" id="Fill-3" fill="#F7C20F"></path>
                    <path d="M82,21.4948357 C82,24.5360459 79.5406364,27 76.5051643,27 C73.4639541,27 71,24.5360459 71,21.4948357 C71,18.4587898 73.4639541,16 76.5051643,16 C79.5406364,16 82,18.4587898 82,21.4948357" id="Fill-5" fill="#F7C20F"></path>
                    <g transform="translate(36, 0)">
                        <mask id="mask-4" fill="white">
                            <use xlink:href="#path-3"></use>
                        </mask>
                        <g id="Clip-8"></g>
                        <path d="M11,5.49997131 C11,8.53603305 8.53604591,11 5.5,11 C2.46395409,11 0,8.53603305 0,5.49997131 C0,2.46390957 2.46395409,-5.73816246e-05 5.5,-5.73816246e-05 C8.53604591,-5.73816246e-05 11,2.46390957 11,5.49997131" id="Fill-7" fill="#F7C20F" mask="url(#mask-4)"></path>
                    </g>
                </g>
                <g id="01" transform="translate(28.5742, 38.6914)" fill="#FFFFFF" fill-rule="nonzero">
                    <path d="M11.5429688,11.1328125 C11.5429688,13.1328125 11.0175781,14.703125 9.96679688,15.84375 C8.91601562,16.984375 7.5234375,17.5546875 5.7890625,17.5546875 C4.0390625,17.5546875 2.63671875,16.984375 1.58203125,15.84375 C0.52734375,14.703125 0,13.1328125 0,11.1328125 L0,6.43359375 C0,4.44140625 0.525390625,2.87109375 1.57617187,1.72265625 C2.62695312,0.57421875 4.0234375,0 5.765625,0 C7.5,0 8.89648438,0.57421875 9.95507812,1.72265625 C11.0136719,2.87109375 11.5429688,4.44140625 11.5429688,6.43359375 L11.5429688,11.1328125 Z M8.1328125,6.08203125 C8.1328125,4.98828125 7.92382812,4.140625 7.50585938,3.5390625 C7.08789062,2.9375 6.5078125,2.63671875 5.765625,2.63671875 C5.015625,2.63671875 4.43554688,2.9375 4.02539062,3.5390625 C3.61523438,4.140625 3.41015625,4.98828125 3.41015625,6.08203125 L3.41015625,11.4609375 C3.41015625,12.578125 3.6171875,13.4355469 4.03125,14.0332031 C4.4453125,14.6308594 5.03125,14.9296875 5.7890625,14.9296875 C6.53125,14.9296875 7.10742188,14.6308594 7.51757812,14.0332031 C7.92773438,13.4355469 8.1328125,12.578125 8.1328125,11.4609375 L8.1328125,6.08203125 Z" id="形狀"></path>
                    <polygon id="路徑" points="21.984375 17.3085938 18.5742188 17.3085938 18.5742188 3.22265625 15.046875 3.22265625 15.046875 0.609375 21.984375 0"></polygon>
                </g>
            </g>
        </g>
    </g>
</svg>