<?xml version="1.0" encoding="UTF-8"?>
<svg width="40px" height="40px" viewBox="0 0 40 40" version="1.1" xmlns="http://www.w3.org/2000/svg" xmlns:xlink="http://www.w3.org/1999/xlink">
    <title>icon-store-book</title>
    <g id="元素" stroke="none" stroke-width="1" fill="none" fill-rule="evenodd">
        <g id="icon-nomor" transform="translate(-210, -297)">
            <g id="icon-store-book" transform="translate(210, 297)">
                <circle id="橢圓形" fill="#FF9C00" cx="20" cy="20" r="20"></circle>
                <g id="book" transform="translate(6, 10)" fill="#FFFFFF" fill-rule="nonzero">
                    <path d="M27.4166753,2.60838563 L25.7504734,2.60838563 L25.7504734,1.34723243 C25.7504734,1.11220014 25.6110703,0.899872549 25.39613,0.807563977 C21.8772235,-0.703400419 17.5477884,-0.0630208726 13.9999704,2.46810521 C10.4522116,-0.0630208726 6.12265798,-0.703221642 2.60386996,0.807563977 C2.38892968,0.899872549 2.24952657,1.11220014 2.24952657,1.34723243 L2.24952657,2.60838563 L0.583324693,2.60838563 C0.261210499,2.60838563 0,2.87106877 0,3.19513205 L0,19.4132536 C0,19.7373169 0.261210499,20 0.583324693,20 L14.0000296,20 L27.4166753,20 C27.7388487,20 28,19.7372573 28,19.4132536 L28,3.19519164 C28,2.87112837 27.7388487,2.60838563 27.4166753,2.60838563 Z M1.16664939,18.8265072 L1.16664939,3.78193806 L2.24952657,3.78193806 L2.24952657,17.565354 C2.24952657,17.7624855 2.34793225,17.9463279 2.51138876,18.0549648 C2.67490452,18.1635421 2.88160977,18.1822541 3.06183257,18.1049628 C5.79420459,16.9317083 9.09390519,17.2251411 12.0226146,18.8265072 L1.16664939,18.8265072 Z M13.4167049,18.2913677 C11.2876824,16.9267026 8.91936989,16.2181494 6.63328925,16.2181494 C5.52961713,16.2181494 4.44525883,16.3832798 3.4162352,16.7194999 L3.4162352,3.20198517 C3.4162352,3.19966107 3.41659067,3.19745615 3.41659067,3.19519164 C3.41659067,3.19292713 3.4162352,3.19066262 3.4162352,3.18839811 L3.4162352,1.74411757 C6.52759646,0.571101476 10.3003079,1.22709422 13.4167049,3.49106773 L13.4167049,18.2913677 Z M14.5833543,3.49106773 C17.6996921,1.22703463 21.4726405,0.571101476 24.583824,1.74411757 L24.583824,3.18833852 C24.583824,3.19060303 24.5834686,3.19286754 24.5834686,3.19513205 C24.5834686,3.19739656 24.583824,3.19966107 24.583824,3.20192558 L24.583824,16.7193808 C21.4232303,15.6867047 17.7401564,16.267909 14.5833543,18.2913081 L14.5833543,3.49106773 Z M26.8333506,18.8265072 L15.9773262,18.8265072 C18.9060948,17.2251411 22.2057362,16.9317679 24.9381674,18.1049628 C25.1183902,18.1824329 25.3252732,18.1636017 25.4886112,18.0549648 C25.652127,17.9463279 25.7504734,17.7624259 25.7504734,17.565354 L25.7504734,3.78193806 L26.8333506,3.78193806 L26.8333506,18.8265072 Z" id="形狀"></path>
                </g>
            </g>
        </g>
    </g>
</svg>