<?xml version="1.0" encoding="UTF-8"?>
<svg width="58px" height="48px" viewBox="0 0 58 48" version="1.1" xmlns="http://www.w3.org/2000/svg" xmlns:xlink="http://www.w3.org/1999/xlink">
    <title>icon-win02</title>
    <defs>
        <polygon id="path-1" points="0 0 49 0 49 37 0 37"></polygon>
        <polygon id="path-3" points="0 0 8 0 8 8 0 8"></polygon>
    </defs>
    <g id="元素" stroke="none" stroke-width="1" fill="none" fill-rule="evenodd">
        <g id="icon-nomor" transform="translate(-181, -617)">
            <g id="icon-win02" transform="translate(181, 617)">
                <g id="群組">
                    <g transform="translate(4, 11)">
                        <mask id="mask-2" fill="white">
                            <use xlink:href="#path-1"></use>
                        </mask>
                        <g id="Clip-2"></g>
                        <path d="M44.6858234,10.4101501 L37.3100728,12.2678469 C36.985692,12.3513197 36.6469319,12.2244069 36.4342024,11.9705813 L28.3267977,1.76347038 C26.316229,-0.587823462 22.6841794,-0.587823462 20.6731877,1.76347038 L12.576779,11.9705813 C12.3678558,12.2244069 12.0147163,12.3513197 11.6903356,12.2678469 L4.31416207,10.4101501 C1.76690601,9.76068028 -0.524905477,12.0830142 0.105670446,14.6336207 L4.73962107,33.2736187 C5.28730439,35.4724469 7.24373914,37.0000852 9.49579601,37.0000852 L39.5041894,37.0000852 C41.7562463,37.0000852 43.7270604,35.4724469 44.2607873,33.2591388 L48.894315,14.6336207 C49.5248909,12.0830142 47.2335024,9.76068028 44.6858234,10.4101501" id="Fill-1" fill="#C88A28" mask="url(#mask-2)"></path>
                    </g>
                    <path d="M8,14.9962441 C8,17.2080334 6.20803339,19 3.99624413,19 C1.78821075,19 0,17.2080334 0,14.9962441 C0,12.7882107 1.78821075,11 3.99624413,11 C6.20803339,11 8,12.7882107 8,14.9962441" id="Fill-3" fill="#C88A28"></path>
                    <path d="M58,14.9962441 C58,17.2080334 56.2113719,19 54.0037559,19 C51.7919666,19 50,17.2080334 50,14.9962441 C50,12.7882107 51.7919666,11 54.0037559,11 C56.2113719,11 58,12.7882107 58,14.9962441" id="Fill-5" fill="#C88A28"></path>
                    <g transform="translate(25, 0)">
                        <mask id="mask-4" fill="white">
                            <use xlink:href="#path-3"></use>
                        </mask>
                        <g id="Clip-8"></g>
                        <path d="M8,3.99997913 C8,6.20802404 6.20803339,8 4,8 C1.79196661,8 0,6.20802404 0,3.99997913 C0,1.79193423 1.79196661,-4.17320907e-05 4,-4.17320907e-05 C6.20803339,-4.17320907e-05 8,1.79193423 8,3.99997913" id="Fill-7" fill="#C88A28" mask="url(#mask-4)"></path>
                    </g>
                </g>
                <g id="02" transform="translate(20.1807, 28.0186)" fill="#FFFFFF" fill-rule="nonzero">
                    <path d="M8.65722656,8.34960938 C8.65722656,9.84960938 8.26318359,11.0273438 7.47509766,11.8828125 C6.68701172,12.7382812 5.64257812,13.1660156 4.34179688,13.1660156 C3.02929688,13.1660156 1.97753906,12.7382812 1.18652344,11.8828125 C0.395507812,11.0273438 0,9.84960938 0,8.34960938 L0,4.82519531 C0,3.33105469 0.394042969,2.15332031 1.18212891,1.29199219 C1.97021484,0.430664062 3.01757813,0 4.32421875,0 C5.625,0 6.67236328,0.430664062 7.46630859,1.29199219 C8.26025391,2.15332031 8.65722656,3.33105469 8.65722656,4.82519531 L8.65722656,8.34960938 Z M6.09960938,4.56152344 C6.09960938,3.74121094 5.94287109,3.10546875 5.62939453,2.65429688 C5.31591797,2.203125 4.88085938,1.97753906 4.32421875,1.97753906 C3.76171875,1.97753906 3.32666016,2.203125 3.01904297,2.65429688 C2.71142578,3.10546875 2.55761719,3.74121094 2.55761719,4.56152344 L2.55761719,8.59570312 C2.55761719,9.43359375 2.71289062,10.0766602 3.0234375,10.5249023 C3.33398438,10.9731445 3.7734375,11.1972656 4.34179688,11.1972656 C4.8984375,11.1972656 5.33056641,10.9731445 5.63818359,10.5249023 C5.94580078,10.0766602 6.09960938,9.43359375 6.09960938,8.59570312 L6.09960938,4.56152344 Z" id="形狀"></path>
                    <path d="M19.1074219,12.9814453 L10.5205078,12.9814453 L10.5205078,11.3027344 L14.484375,6.8203125 C15.0761719,6.12304688 15.496582,5.53271484 15.7456055,5.04931641 C15.9946289,4.56591797 16.1191406,4.12207031 16.1191406,3.71777344 C16.1191406,3.19042969 15.9873047,2.76855469 15.7236328,2.45214844 C15.4599609,2.13574219 15.0644531,1.97753906 14.5371094,1.97753906 C13.9804688,1.97753906 13.5498047,2.1796875 13.2451172,2.58398438 C12.9404297,2.98828125 12.7880859,3.50097656 12.7880859,4.12207031 L10.2919922,4.12207031 L10.2744141,4.06933594 C10.2451172,2.93261719 10.6201172,1.97021484 11.3994141,1.18212891 C12.1787109,0.394042969 13.2246094,0 14.5371094,0 C15.8496094,0 16.8691406,0.335449219 17.5957031,1.00634766 C18.3222656,1.67724609 18.6855469,2.578125 18.6855469,3.70898438 C18.6855469,4.4765625 18.4819336,5.17675781 18.074707,5.80957031 C17.6674805,6.44238281 16.9658203,7.31835938 15.9697266,8.4375 L13.8603516,10.96875 L13.8779297,11.0126953 L19.1074219,11.0126953 L19.1074219,12.9814453 Z" id="路徑"></path>
                </g>
            </g>
        </g>
    </g>
</svg>