<?xml version="1.0" encoding="UTF-8"?>
<svg width="36px" height="26px" viewBox="0 0 36 26" version="1.1" xmlns="http://www.w3.org/2000/svg" xmlns:xlink="http://www.w3.org/1999/xlink">
    <title>icon-truck</title>
    <g id="元素" stroke="none" stroke-width="1" fill="none" fill-rule="evenodd">
        <g id="icon-nomor" transform="translate(-63, -532)" fill="#004B8D" fill-rule="nonzero">
            <g id="icon-truck" transform="translate(81, 545) scale(-1, 1) translate(-81, -545)translate(63, 532)">
                <path d="M29.9934987,22.6507177 C30.0021671,22.5504111 30.0021671,22.4495889 29.9934987,22.3492823 C29.9934987,20.4995248 28.429406,19 26.5,19 C24.570594,19 23.0065013,20.4995248 23.0065013,22.3492823 C22.9978329,22.4495889 22.9978329,22.5504111 23.0065013,22.6507177 C23.0065013,24.5004752 24.570594,26 26.5,26 C28.429406,26 29.9934987,24.5004752 29.9934987,22.6507177 Z" id="路徑"></path>
                <path d="M16.9934987,22.6507177 C17.0021671,22.5504111 17.0021671,22.4495889 16.9934987,22.3492823 C16.9934987,20.4995248 15.429406,19 13.5,19 C11.570594,19 10.0065013,20.4995248 10.0065013,22.3492823 C9.99783289,22.4495889 9.99783289,22.5504111 10.0065013,22.6507177 C10.0065013,24.5004752 11.570594,26 13.5,26 C15.429406,26 16.9934987,24.5004752 16.9934987,22.6507177 Z" id="路徑"></path>
                <path d="M3.76383219,14.6501102 L1.25461253,14.6501102 C1.02426193,14.6495645 0.798324606,14.7117827 0.602215412,14.829766 C0.25643651,15.0378881 0.0352594454,15.3965788 0.00868012301,15.7923232 C-0.0178991994,16.1880676 0.153408831,16.5718861 0.468390363,16.8223116 C0.687335157,17.0048395 0.966733455,17.1035073 1.25461253,17.0999614 L5.4366453,17.0999614 C6.12954718,17.0999614 6.69125513,17.6483793 6.69125513,18.324887 C6.69125513,19.0013947 6.12954718,19.5498126 5.4366453,19.5498126 L3.76383219,19.5498126 C3.07093034,19.5498127 2.50922243,20.0982305 2.50922243,20.7747382 C2.50922243,21.4512459 3.07093034,21.9996638 3.76383219,21.9996638 L8.38079638,21.9996638 C8.45275953,21.1690574 8.7661514,20.3757838 9.28411546,19.713136 C10.1613469,18.5921148 11.5194155,17.9291465 12.9643043,17.9165785 C15.3468636,17.9076392 17.3391369,19.6823982 17.5478122,21.9996638 L21.7633013,21.9996638 C21.9668256,19.6759551 23.9581027,17.8909489 26.3468092,17.8909489 C28.7355157,17.8909489 30.7267928,19.6759551 30.9303171,21.9996638 L33.2053429,21.9996638 C34.0129115,22.0155645 34.7167737,21.4657975 34.878156,20.6930765 L35.9822127,15.3034039 C35.9735697,15.2657622 35.9735697,15.2267191 35.9822127,15.1890775 C36.0059291,15.0484775 36.0059291,14.9050366 35.9822127,14.7644366 L32.8373241,5.71631948 C32.4859598,4.73106091 31.5304447,4.07408382 30.4619294,4.08308534 L27.4508658,4.08308534 L27.6348753,2.77649803 C27.7258577,2.07622572 27.5051372,1.37145627 27.0285924,0.840611574 C26.5520475,0.309766881 25.8653635,0.00373790262 25.1423837,0 L6.27305186,0 C5.58014998,0 5.01844202,0.548417873 5.01844202,1.2249256 C5.01844202,1.90143333 5.58014998,2.44985121 6.27305186,2.44985121 L8.36406825,2.44985121 C9.05697012,2.44985121 9.61867808,2.99826908 9.61867808,3.67477681 C9.61867808,4.35128454 9.05697012,4.89970241 8.36406825,4.89970241 L1.25461253,4.89970241 C0.565476984,4.9084987 0.00901214986,5.45179751 1.34432471e-06,6.12462801 C-0.000959789191,6.76741349 0.513571231,7.29847676 1.17097187,7.33322127 L5.4366453,7.33322127 C6.12954718,7.33322127 6.69125513,7.88163915 6.69125513,8.55814688 C6.69125513,9.23465461 6.12954718,9.78307248 5.4366453,9.78307248 L2.92742564,9.78307248 L2.65977554,9.78307248 C2.08525805,9.90555197 1.67496078,10.4011967 1.6728158,10.9753334 C1.6728158,11.6518411 2.23452376,12.200259 2.92742564,12.200259 L3.76383219,12.200259 C4.45673407,12.200259 5.01844202,12.7486769 5.01844202,13.4251846 C5.01844202,14.1016923 4.45673407,14.6501102 3.76383219,14.6501102 L3.76383219,14.6501102 Z M27.1832157,6.48393952 L30.2277356,6.48393952 C30.4074682,6.48659715 30.5670091,6.59693152 30.6292107,6.76158933 L33.0380616,13.8334931 L26.1795279,13.8334931 L27.1832157,6.48393952 Z" id="形狀"></path>
            </g>
        </g>
    </g>
</svg>