<?xml version="1.0" encoding="UTF-8"?>
<svg width="127px" height="23px" viewBox="0 0 127 23" version="1.1" xmlns="http://www.w3.org/2000/svg" xmlns:xlink="http://www.w3.org/1999/xlink">
    <title>header-logo-moble</title>
    <defs>
        <polygon id="path-1" points="0 23 127 23 127 0 0 0"></polygon>
    </defs>
    <g id="web-page" stroke="none" stroke-width="1" fill="none" fill-rule="evenodd">
        <g id="m_000_首頁" transform="translate(-124, -49)">
            <g id="header-logo-moble" transform="translate(124, 49)">
                <path d="M54.3565645,2 L35.5048228,2 L35.4962835,4.60545991 L52.3799697,4.60545991 C55.0447309,4.60545991 54.3565645,2 54.3565645,2 L54.3565645,2 Z M35,18.155452 L35,21 L52.9480837,21 C55.6027987,21 54.9216647,18.155452 54.9216647,18.155452 L35,18.155452 Z M36.5149708,12.5733955 L51.7324904,12.5733955 C54.3922286,12.5733955 53.7186292,9.80937714 53.7186292,9.80937714 L36.5189893,9.80937714 L36.5149708,12.5733955 Z" id="Fill-1" fill="#FEFEFE"></path>
                <path d="M74.795385,19.1207022 L74.795385,12.7639119 L78.1560272,11.8862109 C80.0308457,11.4574257 79.5125351,9.11923812 79.5125351,9.11923812 L74.795385,10.3608026 L74.795385,6.82231859 L70.9541274,6.82231859 L70.9541274,11.3748896 L68.5934582,12.0029693 L68.5934582,14.4030589 L70.9541274,13.7835348 L70.9541274,19.2052513 C70.9541274,19.2052513 71.5310752,20.9057972 73.5153148,20.9903463 L78.784806,20.9903463 C78.784806,20.9903463 80.1737738,20.6350385 79.9318955,19.1207022 L74.795385,19.1207022 Z M77.9816864,2.53044091 L77.9816864,1.04328113 L74.0409551,1 L74.0409551,2.53044091 L65.3275778,2.53044091 L65.3275778,1.04328113 L61.6915504,1 L61.6915504,2.53044091 L59,2.53044091 L59,4.56817692 L61.6915504,4.56817692 L61.6915504,6.17561798 C61.6915504,6.17561798 64.9092645,6.74682825 65.2663229,4.56817692 L74.0409551,4.56817692 L74.0409551,6.4589584 C74.0409551,6.4589584 77.7879743,7.13484862 77.9738332,4.55509193 C80.6041286,4.49822254 79.9198539,2.53044091 79.9198539,2.53044091 L77.9816864,2.53044091 Z M59.0219889,11.6240077 L60.869583,11.6240077 L60.869583,20.9989019 C60.869583,20.9989019 64.902982,21.1327715 64.902982,18.4443087 L64.902982,10.7845551 L68.074624,6.71411577 L62.8988476,6.71411577 L59.0219889,11.6240077 Z" id="Fill-3" fill="#FEFEFE"></path>
                <mask id="mask-2" fill="white">
                    <use xlink:href="#path-1"></use>
                </mask>
                <g id="Clip-6"></g>
                <path d="M94.1754838,9.24785093 L99.2945344,9.24785093 L99.2945344,7.33092381 L94.1754838,7.33092381 L94.1754838,9.24785093 Z M94.1754838,5.69429025 L99.2945344,5.69429025 L99.2945344,3.78538585 L94.1754838,3.78538585 L94.1754838,5.69429025 Z M98.2349716,10.8584107 L100.617486,10.8584107 C102.29496,10.8584107 102.436669,8.95452046 102.436669,8.95452046 L102.436669,2.1642963 L99.0356526,2.1642963 L99.7562154,1 L95.2225282,1 L94.4624071,2.1642963 L90.7854836,2.1642963 L90.7854836,3.16914117 L88.4079768,3.16914117 L88.4079768,1 L85.3059012,1 L85.2783606,1.0050142 L85.2783606,3.16914117 L83.046068,3.16914117 L83.0290428,5.29867019 L85.2683458,5.29867019 L83,14.4290196 L85.2783606,14.4290196 L85.2783606,20.9825737 C85.2783606,20.9825737 88.3969605,21.3546271 88.4079768,18.6604996 L88.4079768,10.5896498 L90.0208558,12.5256308 L90.0208558,7.46430142 L88.4234997,5.29867019 L88.9627951,5.29867019 C90.0478956,5.29867019 90.5426254,4.93413815 90.7854836,4.51996556 L90.7854836,10.8584107 L94.9781678,10.8584107 L94.9781678,12.381222 L90.4810345,12.381222 L90.4810345,20.2615323 C90.4810345,20.2615323 93.5976315,20.6340871 93.5976315,18.2739051 L93.5976315,14.3512996 L94.9781678,14.3512996 L94.9781678,20.8963295 C94.9781678,20.8963295 98.2349716,21.280417 98.2349716,18.9267534 L98.2349716,14.3512996 L99.8723868,14.3512996 L99.8723868,20.4410406 C99.8723868,20.4410406 103,20.8246265 103,18.4499033 L103,12.381222 L98.2349716,12.381222 L98.2349716,10.8584107 Z" id="Fill-5" fill="#FEFEFE" mask="url(#mask-2)"></path>
                <path d="M118.215232,8.91642904 L115.506883,8.91642904 L114.242506,5.94514334 L119.482697,5.95364273 L118.215232,8.91642904 Z M124.841245,16.4473859 C127.51666,16.3923899 126.894507,14.44903 126.894507,14.44903 L118.601184,14.44903 L118.601184,13.6805854 L123.695227,13.6805854 C125.64248,13.6980842 125.184485,11.6847294 125.184485,11.6847294 L118.601184,11.6847294 L118.601184,10.9162848 L124.346198,10.9212844 C127.030362,10.9212844 126.458639,8.91642904 126.458639,8.91642904 L122.113856,8.91642904 L123.303615,5.95364273 L123.934517,5.95364273 C127.113212,5.95364273 126.894507,3.94528758 126.894507,3.94528758 L125.751576,3.94528758 L126.633603,1.7334471 L122.83224,1.7334471 L121.868391,3.94528758 L121.258587,3.94528758 L121.258587,1 L117.457738,1 L117.457738,3.94528758 L116.450148,3.94528758 L116.450148,1 L112.670912,1 L112.670912,3.94528758 L112.016853,3.94528758 L111.083365,1.7334471 L107.273768,1.7334471 L108.155281,3.94528758 L107,3.94528758 L107,5.93564403 L110.416442,5.93564403 L111.615978,8.91642904 L107.481667,8.91642904 L107.481667,10.9052856 L115.379262,10.913285 L115.379262,11.6847294 L108.805738,11.6847294 L108.805738,13.659087 L115.379262,13.6660865 L115.379262,14.44903 L107,14.44903 L107,16.432387 L109.187572,16.432387 L107.037566,20.9925581 C107.037566,20.9925581 110.861572,21.2250413 111.889232,19.0911952 L113.116043,16.432387 L115.379262,16.4473859 L115.379262,20.9715596 C115.379262,20.9715596 118.601184,21.3585317 118.601184,18.9907025 L118.601184,16.4473859 L121.069729,16.4473859 L123.081822,20.7770736 L127,20.7770736 L124.841245,16.4473859 Z" id="Fill-7" fill="#FEFEFE" mask="url(#mask-2)"></path>
                <polygon id="Fill-8" fill="#FEFEFE" mask="url(#mask-2)" points="30 23 0 22.9974263 0 0 30 0"></polygon>
                <path d="M0.244717495,22.7530058 L29.7506555,22.7530058 L29.7506555,0.244447889 L0.244717495,0.244447889 L0.244717495,22.7530058 Z M29.8725001,0 L0,0 L0,23 L30,23 L30,0 L29.8725001,0 Z" id="Fill-9" fill="#060000" mask="url(#mask-2)"></path>
                <polygon id="Fill-10" fill="#060000" mask="url(#mask-2)" points="28 18 28 2.00353826 1 2 1 17.9989891"></polygon>
                <path d="M24.922755,7.67470102 C24.922755,7.67470102 25.8653444,7.52283326 26,6.45214019 C26,6.45214019 25.9201282,5.18843792 24.6560037,5 L6.28754285,5 C6.28754285,5 4.07570901,5.1985963 3.72242999,8.36801034 C3.72242999,8.36801034 3.59750234,10.7867202 5.66290459,11.8117006 L11.5534482,11.8117006 C11.5534482,11.8117006 13.0044522,12.4750427 11.4213526,13.3273307 L4.17606073,13.3273307 C4.17606073,13.3273307 3.12953564,13.462945 3,14.6250635 C3,14.6250635 3.01126397,15.7826107 3.95129335,16 L12.7274609,16 C12.7274609,16 15.2418859,15.2894214 15.3279017,12.5684998 C15.3279017,12.5684998 15.2444459,9.17966477 12.8191087,9.17966477 L7.28338008,9.17966477 C7.28338008,9.17966477 6.29727082,8.7184744 7.2403722,7.67470102 L24.922755,7.67470102 Z" id="Fill-11" fill="#FEFEFE" mask="url(#mask-2)"></path>
                <path d="M23.9597738,10.001252 L18.1883147,10.001252 C18.1883147,10.001252 17.0457618,10.1842421 17,11.0169728 L17,15.9978154 C17,15.9978154 17.1775757,16.7839212 18.2629264,17 C18.2629264,17 19.273168,16.9759355 19.577086,15.906571 L19.577086,13.1311362 C19.577086,13.1311362 19.6293142,12.5992113 20.2396374,12.5992113 L24.0861162,12.5992113 C24.0861162,12.5992113 24.9118183,12.2893813 24.9983678,11.3654062 C24.9983678,11.3654062 25.086907,9.95212034 23.9597738,10.001252" id="Fill-12" fill="#FEFEFE" mask="url(#mask-2)"></path>
                <path d="M4,21.1062221 C4,21.4225625 3.82494408,21.6615623 3.47681026,21.8208955 C3.20730326,21.9412677 2.87252117,22 2.48235415,22 C2.16636337,22 1.88152662,21.9488273 1.63872306,21.8400853 C1.39740303,21.7325063 1.20652284,21.5836402 1.07795069,21.3958131 C1.02207126,21.315565 0.99685134,21.2382245 1.0003129,21.1649544 C1.0003129,21.0794728 1.04333512,21.0085288 1.11553332,20.951541 C1.19267661,20.9003683 1.27377596,20.875945 1.36624901,20.875945 C1.45377697,20.875945 1.52795321,20.9050204 1.58679969,20.9620081 C1.87509801,21.2481101 2.17130846,21.3847645 2.48581571,21.3847645 C2.9640052,21.3847645 3.20483072,21.2946307 3.20483072,21.1219229 C3.20483072,20.9666602 2.85867494,20.8369839 2.17130846,20.73522 C1.43597467,20.6194999 1.06311545,20.3671254 1.06311545,19.9629773 C1.06311545,19.6646637 1.20256678,19.4291529 1.47751337,19.25063 C1.73762471,19.0831557 2.07735189,19 2.48631022,19 C2.9224665,19 3.26763327,19.0680364 3.52527207,19.2017833 C3.72060283,19.3070362 3.82494408,19.4221748 3.82494408,19.540221 C3.82494408,19.6332623 3.7903285,19.7135104 3.7186248,19.7786393 C3.6528552,19.8490017 3.56483273,19.8809847 3.45455739,19.8809847 C3.34873262,19.8809847 3.26268818,19.8612134 3.17862178,19.829812 C2.89131248,19.6873425 2.62724507,19.6216321 2.37108979,19.6216321 C2.22422084,19.6216321 2.10158279,19.648963 2.00762622,19.7024617 C1.90823006,19.762357 1.86322981,19.829812 1.86322981,19.905408 C1.86322981,19.9629773 1.94927425,20.0135685 2.13273681,20.0624152 C2.23114396,20.0833495 2.41559554,20.119403 2.6831245,20.1542935 C2.91554339,20.1886024 3.06735742,20.2223299 3.12274235,20.2421012 C3.42884296,20.3496802 3.63159135,20.444466 3.73593259,20.5299477 C3.91543909,20.665439 4,20.8555922 4,21.1062221" id="Fill-13" fill="#060000" mask="url(#mask-2)"></path>
                <path d="M7,20.8292614 C7,20.8781241 6.97037964,20.9208088 6.91239049,20.9528222 C6.85648728,20.985959 6.77012933,21 6.66040884,21 C6.60784314,21 6.54693367,20.9915754 6.47768043,20.9702331 C6.41343346,20.9522606 6.38297872,20.9317607 6.38297872,20.9090143 C6.37463496,20.923617 6.3308302,20.9382196 6.25782228,20.9606852 C6.15811431,20.9876439 6.04338757,21 5.92031706,21 C5.30579892,21 5,20.8702612 5,20.6054479 L5,20.171581 C5,20.1179444 5.03337505,20.073294 5.1055486,20.0415614 C5.1689612,20.0151643 5.25198164,20 5.33959116,20 C5.43178974,20 5.50813517,20.0151643 5.5740509,20.0454928 C5.64121819,20.073294 5.67459324,20.1179444 5.67459324,20.171581 L5.67459324,20.5439483 C5.67459324,20.6388655 5.77012933,20.6877282 5.96453901,20.6877282 C6.05673759,20.6877282 6.14601585,20.6717214 6.2181894,20.6422353 C6.2886942,20.6124684 6.3274927,20.5793316 6.3274927,20.5363662 L6.3274927,20.1698961 C6.3274927,20.1179444 6.35753025,20.073294 6.42219441,20.0454928 C6.48769295,20.0151643 6.56236963,20 6.65540259,20 C6.74801836,20 6.82728411,20.0131985 6.89153108,20.0404381 C6.96161869,20.0718899 7,20.1142937 7,20.1698961 L7,20.8292614 Z" id="Fill-14" fill="#060000" mask="url(#mask-2)"></path>
                <path d="M10,20.834082 C10,20.8865806 9.9698534,20.9275688 9.90171381,20.9581696 C9.83852984,20.9856822 9.76708652,21 9.67829858,21 C9.58538096,21 9.5081561,20.9876474 9.44249432,20.9604155 C9.36816023,20.9317799 9.33429692,20.8871421 9.33429692,20.834082 L9.33429692,20.4536777 C9.33429692,20.4023021 9.30786702,20.3652442 9.2616147,20.342785 C9.21453644,20.3203257 9.13235598,20.3071308 9.01837704,20.3071308 C8.91967789,20.3071308 8.83708445,20.3203257 8.77472641,20.3444694 C8.69750155,20.371982 8.66611604,20.4096013 8.66611604,20.4606962 L8.66611604,20.8290286 C8.66611604,20.8865806 8.62275449,20.9317799 8.55255007,20.9618192 C8.48441049,20.9876474 8.40140409,21 8.30394384,21 C8.21928557,21 8.14908115,20.9856822 8.08631014,20.9559236 C8.02808177,20.9233577 8,20.881808 8,20.8290286 L8,20.149635 C8,20.0494104 8.1057196,20 8.32004956,20 C8.41585794,20 8.49019203,20.0103874 8.53933512,20.0356541 C8.57980591,20.0550253 8.59921536,20.0769231 8.59921536,20.104155 C8.71980178,20.0350926 8.89737766,20 9.13359488,20 C9.71133595,20 10,20.135598 10,20.4140932 L10,20.834082 Z" id="Fill-15" fill="#060000" mask="url(#mask-2)"></path>
                <path d="M16,19.2142007 C16,19.2752876 15.9673747,19.3216977 15.9046729,19.3621579 C15.8322855,19.4069814 15.7338997,19.4280048 15.6151232,19.4280048 L14.0628717,19.4280048 C13.9063721,19.4280048 13.8227698,19.4660849 13.8227698,19.5378818 L13.8227698,19.8679096 L15.4025489,19.8679096 C15.5157179,19.8679096 15.6064571,19.8881396 15.6706882,19.9293931 C15.7308411,19.9698532 15.7588785,20.0206267 15.7588785,20.0805236 C15.7588785,20.1372471 15.7308411,20.187624 15.6620221,20.2300674 C15.5962617,20.2733042 15.5055225,20.2919476 15.3882753,20.2919476 L13.8227698,20.2919476 L13.8227698,20.7326458 C13.8227698,20.8175327 13.7830076,20.8821896 13.6937978,20.9353431 C13.613254,20.9817533 13.5153781,21 13.4047579,21 C13.2920986,21 13.2049278,20.9781833 13.128972,20.9345498 C13.042311,20.8821896 13,20.8175327 13,20.7326458 L13,19.296311 C13,19.0975803 13.1830076,19 13.5398471,19 L15.628887,19 C15.746644,19 15.8389125,19.0214201 15.9046729,19.0638635 C15.9673747,19.1071004 16,19.1574772 16,19.2142007" id="Fill-16" fill="#060000" mask="url(#mask-2)"></path>
                <path d="M17,21.6446986 C17,21.7580927 16.9487021,21.8482264 16.8368356,21.9180074 C16.7410383,21.9738321 16.6143387,22 16.4758962,22 C16.3485785,22 16.2410383,21.9738321 16.1538937,21.9116108 C16.0519159,21.8447374 16,21.750533 16,21.6446986 L16,19.358209 C16,19.2436519 16.0543881,19.1546811 16.1625464,19.0889707 C16.249691,19.0296569 16.3597033,19 16.4913473,19 C16.6304079,19 16.7472188,19.0296569 16.84178,19.0889707 C16.9487021,19.1546811 17,19.2436519 17,19.358209 L17,21.6446986 Z" id="Fill-17" fill="#060000" mask="url(#mask-2)"></path>
                <path d="M19.0673394,20.51516 C19.0673394,20.4396407 19.0056278,20.3843346 18.8891908,20.3475576 C18.7884727,20.3147108 18.6633029,20.2981471 18.5229963,20.2981471 C18.3669707,20.2981471 18.2400543,20.3147108 18.1375898,20.3475576 C18.0106734,20.3857383 17.9413934,20.4418866 17.9413934,20.51516 C17.9413934,20.5822572 18.0013584,20.6305446 18.128857,20.6628299 C18.2313216,20.690904 18.3518339,20.7046603 18.5061129,20.7046603 C18.880458,20.7046603 19.0673394,20.6414935 19.0673394,20.51516 M20,20.5103874 C20,20.6580573 19.8626043,20.7796182 19.5866486,20.8672094 C19.3089462,20.9556429 18.9503202,21 18.5119348,21 C18.0752959,21 17.7178343,20.9581696 17.4395498,20.8694554 C17.141471,20.7796182 17,20.6580573 17,20.5103874 C17,20.3514879 17.1566078,20.2259966 17.4837958,20.1313869 C17.7713953,20.0415497 18.1148845,20 18.5119348,20 C18.9002523,20 19.2385018,20.0415497 19.5243547,20.1313869 C19.8422278,20.2259966 20,20.3514879 20,20.5103874" id="Fill-18" fill="#060000" mask="url(#mask-2)"></path>
                <path d="M24,20.1327906 C24,20.1701291 23.9919759,20.197361 23.9829488,20.2116788 L23.4503511,20.8829309 C23.384654,20.9618192 23.2693079,21 23.1028084,21 C22.9292879,21 22.8174524,20.9604155 22.7537613,20.8778776 L22.4944835,20.5480067 L22.2497492,20.871982 C22.1820461,20.958731 22.0636911,21 21.8961886,21 C21.7347041,21 21.6178536,20.9618192 21.5531595,20.8829309 L21.0215647,20.206064 C21.0090271,20.1875351 21,20.1642336 21,20.134475 C21,20.0957327 21.0411234,20.0631668 21.1253761,20.0362156 C21.2066199,20.0103874 21.3019057,20 21.4022066,20 C21.5877633,20 21.7006018,20.032566 21.7422267,20.0926446 L21.9814443,20.4460977 L22.1675025,20.104155 C22.2036108,20.0350926 22.3209629,20 22.5140421,20 C22.5892678,20 22.6604814,20.008703 22.723671,20.0269512 C22.7893681,20.048849 22.8345035,20.0732734 22.8530592,20.1075239 L23.0471414,20.4421673 L23.2522568,20.1075239 C23.2898696,20.0356541 23.4037111,20 23.5747242,20 C23.6855567,20 23.7848546,20.008703 23.8580742,20.0269512 C23.9533601,20.0527793 24,20.0873105 24,20.1327906" id="Fill-19" fill="#060000" mask="url(#mask-2)"></path>
                <path d="M25.3114432,20.3750702 C25.3114432,20.3475576 25.2894219,20.3186412 25.2410539,20.2933745 C25.1769564,20.2647389 25.0975226,20.2476137 25,20.2476137 C24.9024774,20.2476137 24.8297287,20.2647389 24.7679906,20.2933745 C24.720409,20.3186412 24.697208,20.3475576 24.697208,20.3750702 L25.3114432,20.3750702 Z M26,20.3952835 C26,20.5129141 25.9410145,20.5724312 25.8096736,20.5724312 L24.6629965,20.5724312 C24.6629965,20.6027513 24.697208,20.635598 24.7550138,20.6690062 C24.8297287,20.7119596 24.9280378,20.7307692 25.0420763,20.7307692 C25.1419583,20.7307692 25.2308297,20.7178551 25.3114432,20.6889388 C25.3114432,20.6889388 25.3562721,20.668164 25.4423909,20.6291409 C25.5092411,20.5971364 25.5961463,20.5828186 25.7070389,20.5828186 C25.7892253,20.5828186 25.8533228,20.5971364 25.898545,20.6232454 C25.9453401,20.6499158 25.9693276,20.682201 25.9693276,20.7215048 C25.9693276,20.8037619 25.8446716,20.8739472 25.605584,20.9314992 C25.4077861,20.9786637 25.2135273,21 25.0306724,21 C24.7416437,21 24.5017696,20.9581696 24.3047582,20.8694554 C24.1018482,20.7759686 24,20.6574958 24,20.5061763 C24,20.350365 24.1038144,20.2231892 24.3063311,20.1313869 C24.5057019,20.0418304 24.747149,20 25.0361777,20 C25.3185214,20 25.5536768,20.0418304 25.7451829,20.1313869 C25.9154542,20.2116788 26,20.2992701 26,20.3952835 L26,20.3952835 Z" id="Fill-20" fill="#060000" mask="url(#mask-2)"></path>
                <path d="M28,20.1721427 C28,20.2187588 27.9665447,20.255827 27.8902248,20.2830666 C27.8212232,20.3072171 27.7428123,20.322943 27.6466283,20.322943 C27.6241505,20.322943 27.5692629,20.3221005 27.4877156,20.3187307 C27.408782,20.3170458 27.3518035,20.3156417 27.3272347,20.3156417 C27.1338212,20.3156417 26.975954,20.3476552 26.8421328,20.4080315 L26.8421328,20.8461106 C26.8421328,20.8960966 26.8024046,20.9331648 26.7239937,20.9606852 C26.6440146,20.9876439 26.553058,21 26.4458965,21 C26.3277574,21 26.2216414,20.9876439 26.1390486,20.9629318 C26.0449556,20.9351306 26,20.8960966 26,20.845549 L26,20.1676495 C26,20.1095198 26.0407737,20.0662735 26.1249347,20.0362258 C26.1897543,20.0103903 26.2848928,20 26.3899634,20 C26.4939885,20 26.5786722,20.0103903 26.6523785,20.0351025 C26.7250392,20.0575681 26.7616309,20.0822803 26.7616309,20.1106431 C26.9555672,20.0460545 27.1892316,20.0103903 27.4699425,20.0103903 C27.6356508,20.0103903 27.757449,20.021904 27.8395191,20.0404381 C27.9440669,20.0634653 28,20.1075541 28,20.1721427" id="Fill-21" fill="#060000" mask="url(#mask-2)"></path>
            </g>
        </g>
    </g>
</svg>