<?xml version="1.0" encoding="UTF-8"?>
<svg width="363px" height="32px" viewBox="0 0 363 32" version="1.1" xmlns="http://www.w3.org/2000/svg" xmlns:xlink="http://www.w3.org/1999/xlink">
    <title>header-logo-web</title>
    <defs>
        <polygon id="path-1" points="0 32 177 32 177 0 0 0"></polygon>
        <polygon id="path-3" points="0 0 10 0 10 10 0 10"></polygon>
    </defs>
    <g id="web-page" stroke="none" stroke-width="1" fill="none" fill-rule="evenodd">
        <g id="030_Menu選單" transform="translate(-779, -54)">
            <g id="header-logo-web" transform="translate(779, 54)">
                <g id="群組">
                    <path d="M76.0991903,2 L49.7067519,2 L49.6947969,5.70249566 L73.3319575,5.70249566 C77.0626233,5.70249566 76.0991903,2 76.0991903,2 L76.0991903,2 Z M49,24.9577476 L49,29 L74.1273172,29 C77.8439182,29 76.8903305,24.9577476 76.8903305,24.9577476 L49,24.9577476 Z M51.1209591,17.0253514 L72.4254866,17.0253514 C76.14912,17.0253514 75.2060808,13.0975359 75.2060808,13.0975359 L51.126585,13.0975359 L51.1209591,17.0253514 Z" id="Fill-1" fill="#FEFEFE"></path>
                    <path d="M103.060513,27.368983 L103.060513,18.4694767 L107.54137,17.2406952 C110.041128,16.640396 109.350047,13.3669334 109.350047,13.3669334 L103.060513,15.1051237 L103.060513,10.151246 L97.9388366,10.151246 L97.9388366,16.5248454 L94.7912776,17.404157 L94.7912776,20.7642825 L97.9388366,19.8969488 L97.9388366,27.4873519 C97.9388366,27.4873519 98.7081003,29.868116 101.353753,29.9864849 L108.379741,29.9864849 C108.379741,29.9864849 110.231698,29.4890538 109.909194,27.368983 L103.060513,27.368983 Z M107.308915,4.14261727 L107.308915,2.06059358 L102.054607,2 L102.054607,4.14261727 L90.4367704,4.14261727 L90.4367704,2.06059358 L85.5887338,2 L85.5887338,4.14261727 L82,4.14261727 L82,6.99544769 L85.5887338,6.99544769 L85.5887338,9.24586517 C85.5887338,9.24586517 89.8790193,10.0455595 90.3550972,6.99544769 L102.054607,6.99544769 L102.054607,9.64254176 C102.054607,9.64254176 107.050632,10.5887881 107.298444,6.9771287 C110.805505,6.89751155 109.893139,4.14261727 109.893139,4.14261727 L107.308915,4.14261727 Z M82.0293186,16.8736108 L84.4927774,16.8736108 L84.4927774,29.9984627 C84.4927774,29.9984627 89.8706426,30.18588 89.8706426,26.4220321 L89.8706426,15.6983772 L94.0994987,9.99976207 L87.1984635,9.99976207 L82.0293186,16.8736108 Z" id="Fill-3" fill="#FEFEFE"></path>
                    <mask id="mask-2" fill="white">
                        <use xlink:href="#path-1"></use>
                    </mask>
                    <g id="Clip-6"></g>
                    <path d="M131.645677,13.5469913 L138.812348,13.5469913 L138.812348,10.8632933 L131.645677,10.8632933 L131.645677,13.5469913 Z M131.645677,8.57200635 L138.812348,8.57200635 L138.812348,5.89954019 L131.645677,5.89954019 L131.645677,8.57200635 Z M137.32896,15.8017749 L140.66448,15.8017749 C143.012944,15.8017749 143.211337,13.1363286 143.211337,13.1363286 L143.211337,3.63001482 L138.449914,3.63001482 L139.458702,2 L133.11154,2 L132.04737,3.63001482 L126.899677,3.63001482 L126.899677,5.03679764 L123.571167,5.03679764 L123.571167,2 L119.228262,2 L119.189705,2.00701987 L119.189705,5.03679764 L116.064495,5.03679764 L116.04066,8.01813827 L119.175684,8.01813827 L116,20.8006274 L119.189705,20.8006274 L119.189705,29.9756032 C119.189705,29.9756032 123.555745,30.4964779 123.571167,26.7246994 L123.571167,15.4255097 L125.829198,18.1358832 L125.829198,11.050022 L123.5929,8.01813827 L124.347913,8.01813827 C125.867054,8.01813827 126.559676,7.5077934 126.899677,6.92795178 L126.899677,15.8017749 L132.769435,15.8017749 L132.769435,17.9337108 L126.473448,17.9337108 L126.473448,28.9661453 C126.473448,28.9661453 130.836684,29.4877219 130.836684,26.1834671 L130.836684,20.6918194 L132.769435,20.6918194 L132.769435,29.8548614 C132.769435,29.8548614 137.32896,30.3925837 137.32896,27.0974547 L137.32896,20.6918194 L139.621341,20.6918194 L139.621341,29.2174568 C139.621341,29.2174568 144,29.7544772 144,26.4298647 L144,17.9337108 L137.32896,17.9337108 L137.32896,15.8017749 Z" id="Fill-5" fill="#FEFEFE" mask="url(#mask-2)"></path>
                    <path d="M164.701325,13.0830007 L160.909636,13.0830007 L159.139509,8.92320068 L166.475775,8.93509982 L164.701325,13.0830007 Z M173.977743,23.6263402 C177.723324,23.5493458 176.852309,20.828642 176.852309,20.828642 L165.241657,20.828642 L165.241657,19.7528196 L172.373318,19.7528196 C175.099473,19.7773178 174.458279,16.9586211 174.458279,16.9586211 L165.241657,16.9586211 L165.241657,15.8827987 L173.284678,15.8897982 C177.042506,15.8897982 176.242094,13.0830007 176.242094,13.0830007 L170.159398,13.0830007 L171.825061,8.93509982 L172.708324,8.93509982 C177.158497,8.93509982 176.852309,6.12340261 176.852309,6.12340261 L175.252206,6.12340261 L176.487045,3.02682594 L171.165136,3.02682594 L169.815747,6.12340261 L168.962022,6.12340261 L168.962022,2 L163.640834,2 L163.640834,6.12340261 L162.230207,6.12340261 L162.230207,2 L156.939277,2 L156.939277,6.12340261 L156.023594,6.12340261 L154.716712,3.02682594 L149.383275,3.02682594 L150.617394,6.12340261 L149,6.12340261 L149,8.90990164 L153.783018,8.90990164 L155.46237,13.0830007 L149.674334,13.0830007 L149.674334,15.8673998 L160.730966,15.878599 L160.730966,16.9586211 L151.528033,16.9586211 L151.528033,19.7227218 L160.730966,19.7325211 L160.730966,20.828642 L149,20.828642 L149,23.6053418 L152.062601,23.6053418 L149.052592,29.9895813 C149.052592,29.9895813 154.406201,30.3150578 155.844925,27.3276733 L157.56246,23.6053418 L160.730966,23.6263402 L160.730966,29.9601834 C160.730966,29.9601834 165.241657,30.5019444 165.241657,27.1869834 L165.241657,23.6263402 L168.69762,23.6263402 L171.51455,29.6879031 L177,29.6879031 L173.977743,23.6263402 Z" id="Fill-7" fill="#FEFEFE" mask="url(#mask-2)"></path>
                    <polygon id="Fill-8" fill="#FEFEFE" mask="url(#mask-2)" points="41 32 0 31.9964191 0 0 41 0"></polygon>
                    <path d="M0.334447244,31.6563559 L40.6592292,31.6563559 L40.6592292,0.34010141 L0.334447244,0.34010141 L0.334447244,31.6563559 Z M40.8257502,0 L0,0 L0,32 L41,32 L41,0 L40.8257502,0 Z" id="Fill-9" fill="#060000" mask="url(#mask-2)"></path>
                    <polygon id="Fill-10" fill="#060000" mask="url(#mask-2)" points="39 24 39 2.0048651 2 2 2 23.99861"></polygon>
                    <path d="M34.5012243,10.6473196 C34.5012243,10.6473196 35.812653,10.4402272 36,8.98019116 C36,8.98019116 35.888874,7.2569608 34.1300922,7 L8.57397266,7 C8.57397266,7 5.49663862,7.27081313 5.00511999,11.5927414 C5.00511999,11.5927414 4.8313076,14.8909821 7.70491073,16.2886826 L15.9004497,16.2886826 C15.9004497,16.2886826 17.9192378,17.1932401 15.7166644,18.3554509 L5.6362584,18.3554509 C5.6362584,18.3554509 4.1802235,18.5403796 4,20.1250866 C4,20.1250866 4.01567161,21.70356 5.32353858,22 L17.5338587,22 C17.5338587,22 21.0321891,21.0310292 21.1518632,17.3206815 C21.1518632,17.3206815 21.0357509,12.6995429 17.6613686,12.6995429 L9.95948533,12.6995429 C9.95948533,12.6995429 8.58750723,12.0706469 9.89964828,10.6473196 L34.5012243,10.6473196 Z" id="Fill-11" fill="#FEFEFE" mask="url(#mask-2)"></path>
                    <path d="M33.569689,13.0017885 L25.6339327,13.0017885 C25.6339327,13.0017885 24.0629225,13.2632031 24,14.4528183 L24,21.5683077 C24,21.5683077 24.2441666,22.691316 25.7365237,23 C25.7365237,23 27.125606,22.9656222 27.5434933,21.4379585 L27.5434933,17.4730517 C27.5434933,17.4730517 27.615307,16.713159 28.4545014,16.713159 L33.7434097,16.713159 C33.7434097,16.713159 34.8787502,16.2705448 34.9977557,14.9505803 C34.9977557,14.9505803 35.1194971,12.9316005 33.569689,13.0017885" id="Fill-12" fill="#FEFEFE" mask="url(#mask-2)"></path>
                    <path d="M6,28.8082962 C6,29.2300833 5.7665921,29.5487498 5.30241368,29.761194 C4.94307101,29.9216903 4.49669489,30 3.9764722,30 C3.55515116,30 3.17536882,29.9317697 2.85163075,29.7867804 C2.52987071,29.6433417 2.27536379,29.4448537 2.10393426,29.1944175 C2.02942835,29.08742 1.99580179,28.9842993 2.0004172,28.8866059 C2.0004172,28.7726304 2.05778015,28.6780384 2.15404443,28.6020547 C2.25690215,28.5338244 2.36503462,28.5012599 2.48833201,28.5012599 C2.60503596,28.5012599 2.70393761,28.5400271 2.78239959,28.6160109 C3.16679734,28.9974801 3.56174461,29.179686 3.98108761,29.179686 C4.61867359,29.179686 4.93977429,29.0595077 4.93977429,28.8292305 C4.93977429,28.6222136 4.47823325,28.4493119 3.56174461,28.3136267 C2.58129957,28.1593332 2.08415393,27.8228339 2.08415393,27.2839698 C2.08415393,26.8862183 2.27008903,26.5722039 2.63668449,26.3341733 C2.98349962,26.1108742 3.43646918,26 3.98174696,26 C4.56328867,26 5.02351102,26.0907153 5.36702943,26.2690444 C5.62747044,26.4093817 5.7665921,26.5628998 5.7665921,26.7202946 C5.7665921,26.8443497 5.720438,26.9513472 5.62483307,27.0381857 C5.53714027,27.1320023 5.41977698,27.1746462 5.27274319,27.1746462 C5.1316435,27.1746462 5.01691758,27.1482846 4.90482904,27.106416 C4.52174998,26.9164567 4.1696601,26.8288428 3.82811972,26.8288428 C3.63229445,26.8288428 3.46877706,26.865284 3.34350163,26.9366156 C3.21097342,27.0164761 3.15097308,27.106416 3.15097308,27.2072107 C3.15097308,27.2839698 3.265699,27.3514247 3.51031575,27.4165536 C3.64152527,27.444466 3.88746072,27.4925373 4.24416601,27.539058 C4.55405785,27.5848033 4.75647656,27.6297732 4.83032313,27.6561349 C5.23845728,27.7995736 5.50878846,27.9259546 5.64791012,28.0399302 C5.88725212,28.2205854 6,28.4741229 6,28.8082962" id="Fill-13" fill="#060000" mask="url(#mask-2)"></path>
                    <path d="M10,29.4877843 C10,29.6343724 9.95556946,29.7624263 9.86858573,29.8584667 C9.78473091,29.957877 9.65519399,30 9.49061327,30 C9.41176471,30 9.3204005,29.9747262 9.21652065,29.9106992 C9.12015019,29.8567818 9.07446809,29.7952822 9.07446809,29.727043 C9.06195244,29.7708509 8.99624531,29.8146588 8.88673342,29.8820556 C8.73717146,29.9629318 8.56508135,30 8.38047559,30 C7.45869837,30 7,29.6107835 7,28.8163437 L7,27.514743 C7,27.3538332 7.05006258,27.2198821 7.1583229,27.1246841 C7.2534418,27.0454928 7.37797247,27 7.50938673,27 C7.64768461,27 7.76220275,27.0454928 7.86107635,27.1364785 C7.96182728,27.2198821 8.01188986,27.3538332 8.01188986,27.514743 L8.01188986,28.631845 C8.01188986,28.9165965 8.15519399,29.0631845 8.44680851,29.0631845 C8.58510638,29.0631845 8.71902378,29.0151643 8.82728411,28.926706 C8.9330413,28.8374052 8.99123905,28.7379949 8.99123905,28.6090986 L8.99123905,27.5096883 C8.99123905,27.3538332 9.03629537,27.2198821 9.13329161,27.1364785 C9.23153942,27.0454928 9.34355444,27 9.48310388,27 C9.62202753,27 9.74092616,27.0395956 9.83729662,27.1213142 C9.94242804,27.2156698 10,27.3428812 10,27.5096883 L10,29.4877843 Z" id="Fill-14" fill="#060000" mask="url(#mask-2)"></path>
                    <path d="M15,29.5022459 C15,29.6597417 14.9547801,29.7827063 14.8525707,29.8745087 C14.7577948,29.9570466 14.6506298,30 14.5174479,30 C14.3780714,30 14.2622342,29.9629422 14.1637415,29.8812465 C14.0522403,29.7953397 14.0014454,29.6614262 14.0014454,29.5022459 L14.0014454,28.3610331 C14.0014454,28.2069062 13.9618005,28.0957327 13.8924221,28.0283549 C13.8218047,27.960977 13.698534,27.9213925 13.5275656,27.9213925 C13.3795168,27.9213925 13.2556267,27.960977 13.1620896,28.0334082 C13.0462523,28.1159461 12.9991741,28.228804 12.9991741,28.3820887 L12.9991741,29.4870859 C12.9991741,29.6597417 12.9341317,29.7953397 12.8288251,29.8854576 C12.7266157,29.9629422 12.6021061,30 12.4559158,30 C12.3289284,30 12.2236217,29.9570466 12.1294652,29.8677709 C12.0421227,29.770073 12,29.6454239 12,29.4870859 L12,27.4489051 C12,27.1482313 12.1585794,27 12.4800743,27 C12.6237869,27 12.735288,27.0311623 12.8090027,27.1069624 C12.8697089,27.1650758 12.898823,27.2307692 12.898823,27.3124649 C13.0797027,27.1052779 13.3460665,27 13.7003923,27 C14.5670039,27 15,27.4067939 15,28.2422796 L15,29.5022459 Z" id="Fill-15" fill="#060000" mask="url(#mask-2)"></path>
                    <path d="M22,26.4284014 C22,26.5505752 21.9564996,26.6433955 21.8728972,26.7243157 C21.7763806,26.8139627 21.6451997,26.8560095 21.4868309,26.8560095 L19.4171623,26.8560095 C19.2084962,26.8560095 19.0970263,26.9321698 19.0970263,27.0757636 L19.0970263,27.7358191 L21.2033985,27.7358191 C21.3542906,27.7358191 21.4752761,27.7762793 21.5609176,27.8587862 C21.6411215,27.9397065 21.6785047,28.0412535 21.6785047,28.1610472 C21.6785047,28.2744942 21.6411215,28.3752479 21.5493628,28.4601349 C21.4616822,28.5466085 21.3406967,28.5838953 21.184367,28.5838953 L19.0970263,28.5838953 L19.0970263,29.4652916 C19.0970263,29.6350655 19.0440102,29.7643792 18.9250637,29.8706862 C18.817672,29.9635065 18.6871708,30 18.5396771,30 C18.3894647,30 18.273237,29.9563665 18.1719626,29.8690996 C18.0564146,29.7643792 18,29.6350655 18,29.4652916 L18,26.592622 C18,26.1951607 18.2440102,26 18.7197961,26 L21.5051827,26 C21.662192,26 21.7852167,26.0428401 21.8728972,26.1277271 C21.9564996,26.2142007 22,26.3149544 22,26.4284014" id="Fill-16" fill="#060000" mask="url(#mask-2)"></path>
                    <path d="M24,29.5262648 C24,29.6774569 23.9487021,29.7976352 23.8368356,29.8906765 C23.7410383,29.9651095 23.6143387,30 23.4758962,30 C23.3485785,30 23.2410383,29.9651095 23.1538937,29.8821477 C23.0519159,29.7929831 23,29.6673774 23,29.5262648 L23,26.4776119 C23,26.3248692 23.0543881,26.2062415 23.1625464,26.1186276 C23.249691,26.0395425 23.3597033,26 23.4913473,26 C23.6304079,26 23.7472188,26.0395425 23.84178,26.1186276 C23.9487021,26.2062415 24,26.3248692 24,26.4776119 L24,29.5262648 Z" id="Fill-17" fill="#060000" mask="url(#mask-2)"></path>
                    <path d="M26.7564526,28.5454801 C26.7564526,28.318922 26.6741704,28.1530039 26.518921,28.0426727 C26.3846303,27.9441325 26.2177372,27.8944413 26.0306618,27.8944413 C25.8226276,27.8944413 25.6534058,27.9441325 25.5167863,28.0426727 C25.3475645,28.157215 25.2551912,28.3256597 25.2551912,28.5454801 C25.2551912,28.7467715 25.3351446,28.8916339 25.5051426,28.9884896 C25.6417621,29.072712 25.8024452,29.1139809 26.0081506,29.1139809 C26.5072773,29.1139809 26.7564526,28.9244806 26.7564526,28.5454801 M28,28.5311623 C28,28.9741718 27.8168057,29.3388546 27.4488647,29.6016283 C27.078595,29.8669287 26.6004269,30 26.0159131,30 C25.4337279,30 24.9571124,29.8745087 24.5860664,29.6083661 C24.188628,29.3388546 24,28.9741718 24,28.5311623 C24,28.0544638 24.2088104,27.6779899 24.6450611,27.3941606 C25.0285271,27.1246491 25.4865127,27 26.0159131,27 C26.5336697,27 26.9846691,27.1246491 27.3658063,27.3941606 C27.7896371,27.6779899 28,28.0544638 28,28.5311623" id="Fill-18" fill="#060000" mask="url(#mask-2)"></path>
                    <path d="M32,27.3983717 C32,27.5103874 31.9893012,27.5920831 31.9772651,27.6350365 L31.2671347,29.6487928 C31.1795386,29.8854576 31.0257439,30 30.8037446,30 C30.5723838,30 30.4232698,29.8812465 30.3383484,29.6336328 L29.9926446,28.6440202 L29.6663323,29.6159461 C29.5760615,29.8761931 29.4182548,30 29.1949181,30 C28.9796055,30 28.8238047,29.8854576 28.737546,29.6487928 L28.0287529,27.618192 C28.0120361,27.5626053 28,27.4927007 28,27.403425 C28,27.2871982 28.0548312,27.1895003 28.1671682,27.1086468 C28.2754931,27.0311623 28.402541,27 28.5362755,27 C28.7836844,27 28.9341357,27.0976979 28.9896356,27.2779337 L29.3085924,28.3382931 L29.55667,27.3124649 C29.6048144,27.1052779 29.7612839,27 30.0187228,27 C30.1190237,27 30.2139753,27.0261089 30.298228,27.0808535 C30.3858241,27.1465469 30.4460047,27.2198203 30.4707456,27.3225716 L30.7295219,28.326502 L31.003009,27.3225716 C31.0531595,27.1069624 31.2049482,27 31.4329656,27 C31.5807422,27 31.7131394,27.0261089 31.8107656,27.0808535 C31.9378134,27.158338 32,27.2619315 32,27.3983717" id="Fill-19" fill="#060000" mask="url(#mask-2)"></path>
                    <path d="M34.6228864,28.1252106 C34.6228864,28.0426727 34.5788439,27.9559236 34.4821077,27.8801235 C34.3539127,27.7942167 34.1950452,27.7428411 34,27.7428411 C33.8049548,27.7428411 33.6594573,27.7942167 33.5359811,27.8801235 C33.4408179,27.9559236 33.394416,28.0426727 33.394416,28.1252106 L34.6228864,28.1252106 Z M36,28.1858506 C36,28.5387423 35.8820291,28.7172937 35.6193472,28.7172937 L33.3259929,28.7172937 C33.3259929,28.8082538 33.394416,28.9067939 33.5100275,29.0070185 C33.6594573,29.1358787 33.8560755,29.1923077 34.0841526,29.1923077 C34.2839166,29.1923077 34.4616595,29.1535654 34.6228864,29.0668164 C34.6228864,29.0668164 34.7125442,29.0044919 34.8847818,28.8874228 C35.0184821,28.7914093 35.1922926,28.7484559 35.4140779,28.7484559 C35.5784506,28.7484559 35.7066457,28.7914093 35.7970901,28.8697361 C35.8906803,28.9497473 35.9386551,29.046603 35.9386551,29.1645143 C35.9386551,29.4112858 35.6893433,29.6218417 35.2111679,29.7944975 C34.8155722,29.935991 34.4270547,30 34.0613449,30 C33.4832875,30 33.0035391,29.8745087 32.6095163,29.6083661 C32.2036964,29.3279057 32,28.9724874 32,28.5185289 C32,28.0510949 32.2076288,27.6695677 32.6126622,27.3941606 C33.0114039,27.1254913 33.4942981,27 34.0723555,27 C34.6370429,27 35.1073535,27.1254913 35.4903657,27.3941606 C35.8309084,27.6350365 36,27.8978102 36,28.1858506 L36,28.1858506 Z" id="Fill-20" fill="#060000" mask="url(#mask-2)"></path>
                    <path d="M40,27.516428 C40,27.6562763 39.949817,27.767481 39.8353372,27.8491997 C39.7318348,27.9216512 39.6142185,27.968829 39.4699425,27.968829 C39.4362258,27.968829 39.3538944,27.9663016 39.2315734,27.9561921 C39.113173,27.9511373 39.0277052,27.946925 38.9908521,27.946925 C38.7007318,27.946925 38.463931,28.0429655 38.2631992,28.2240944 L38.2631992,29.5383319 C38.2631992,29.6882898 38.2036069,29.7994945 38.0859906,29.8820556 C37.966022,29.9629318 37.829587,30 37.6688447,30 C37.4916362,30 37.3324621,29.9629318 37.2085729,29.8887953 C37.0674334,29.8053917 37,29.6882898 37,29.536647 L37,27.5029486 C37,27.3285594 37.0611605,27.1988206 37.187402,27.1086773 C37.2846315,27.031171 37.4273393,27 37.5849451,27 C37.7409827,27 37.8680084,27.031171 37.9785677,27.1053075 C38.0875588,27.1727043 38.1424464,27.2468408 38.1424464,27.3319292 C38.4333508,27.1381634 38.7838474,27.031171 39.2049137,27.031171 C39.4534762,27.031171 39.6361735,27.0657119 39.7592786,27.1213142 C39.9161004,27.190396 40,27.3226622 40,27.516428" id="Fill-21" fill="#060000" mask="url(#mask-2)"></path>
                </g>
                <g id="群組" transform="translate(186, 13)">
                    <path d="M6.40083827,8.29361942 C6.09353915,7.78727991 5.93896954,7.2079462 5.93896954,6.55654227 C5.93896954,6.04281094 6.10641996,5.52445973 6.43856062,5.00241261 C6.77070129,4.47944151 7.21508894,3.97772188 7.77080352,3.49817771 C8.32467798,3.01678559 8.96043754,2.56311278 9.67900225,2.13531133 C10.3948068,1.70566193 11.1409732,1.33329911 11.9175015,1.01637493 C12.69587,0.69852677 13.4723983,0.449976901 14.2480065,0.269801345 C15.0254549,0.0905497664 15.7467798,0 16.4129012,0 C17.470047,0 18,0.427801448 18,1.2852523 C18,1.69734613 17.8675118,2.18243417 17.6025353,2.73866845 C17.3384788,3.29675068 17.0044981,3.85668087 16.6042732,4.4230789 C16.2031282,4.98855295 15.7550603,5.52445973 15.2600695,6.03172322 C14.7650787,6.53621477 14.287569,6.93444895 13.8257003,7.22642575 C13.6039665,7.34654279 13.4254754,7.40475335 13.2874668,7.40475335 C13.1338172,7.40475335 13.0105295,7.3622504 12.9166837,7.27632052 C12.8228379,7.19223859 12.776835,7.08875314 12.776835,6.96771213 C12.776835,6.77922078 12.9038029,6.59257738 13.1604989,6.40223808 C13.3978736,6.24793388 13.6646902,6.02063549 13.9535882,5.72126688 C14.2443263,5.42189826 14.5175833,5.09665828 14.7733592,4.74462297 C15.0300552,4.39258765 15.2471887,4.04517222 15.4275199,3.70330065 C15.606011,3.36050511 15.6952566,3.06021251 15.6952566,2.80334685 C15.6952566,2.51229403 15.621652,2.28869155 15.477203,2.13531133 C15.332754,1.98008316 15.0300552,1.90246907 14.5681865,1.90246907 C14.1063177,1.90246907 13.5230014,2.02351009 12.8145574,2.26374416 C12.1061133,2.50305426 11.4142302,2.82090242 10.7407483,3.21451671 C10.0663464,3.60997895 9.48947046,4.05533597 9.01196074,4.55151173 C8.53353098,5.04861147 8.29523615,5.56326677 8.29523615,6.09455367 C8.29523615,6.40223808 8.32927827,6.67388738 8.3973625,6.90488168 C8.46544674,7.13679996 8.56757309,7.35855449 8.70466162,7.5729172 C8.8408301,7.78727991 9.00828052,8.00533853 9.20425271,8.22894102 C9.4002249,8.45161953 9.62655899,8.70756121 9.88325496,9.00046199 C10.3276426,9.54838047 10.7103864,10.093527 11.0351666,10.6331297 C11.3599468,11.1718084 11.5218769,11.7345105 11.5218769,12.3166162 C11.5218769,12.9689441 11.4050296,13.6332837 11.1750153,14.309635 C10.945001,14.9878343 10.5355755,15.6013552 9.94765897,16.1483497 C9.35790227,16.6990401 8.56481292,17.1425492 7.56563075,17.4871926 C6.56644858,17.8281402 5.30873032,18 3.78879575,18 C2.47403394,18 1.51441423,17.7274267 0.908096504,17.1767363 C0.301778777,16.6288178 0,15.8489811 0,14.836302 C0,14.3401263 0.143528931,13.8818336 0.434267021,13.461424 C0.725925169,13.0419383 1.09210795,12.6760433 1.53465549,12.3692829 C1.97812308,12.0597505 2.45287262,11.8148966 2.95614394,11.635645 C3.46033531,11.4563934 3.93324474,11.3649197 4.37763239,11.3649197 C4.65088939,11.3649197 4.86066244,11.4083466 5.00419137,11.4952005 C5.15048047,11.5811303 5.223165,11.6652123 5.223165,11.7520661 C5.223165,11.9239259 5.01799223,12.0440429 4.6076467,12.1114932 C4.19822122,12.1798676 3.81455735,12.2916688 3.45573502,12.445973 C3.09783275,12.6002772 2.77765283,12.7887685 2.49519526,13.0114471 C2.21365774,13.2350495 1.992844,13.4734357 1.82999387,13.7321493 C1.66714373,13.988091 1.58709875,14.2532724 1.58709875,14.5276937 C1.58709875,14.9748986 1.82999387,15.3472614 2.31670415,15.64663 C2.80341443,15.9478466 3.4649356,16.0975309 4.30034758,16.0975309 C4.93242691,16.0975309 5.5350644,16.0236128 6.10641996,15.8785483 C6.67777551,15.7334839 7.17736659,15.5181972 7.60427315,15.2354602 C8.03025966,14.9527232 8.36700061,14.6053077 8.61449601,14.1941379 C8.86291147,13.782044 8.9871192,13.3117396 8.9871192,12.7804527 C8.9871192,12.2140547 8.81966878,11.6910836 8.48752811,11.2124634 C8.15446739,10.7329193 7.79196483,10.2422874 7.39910039,9.7461116 C7.04027806,9.28135106 6.7081374,8.79903496 6.40083827,8.29361942" id="Fill-1" fill="#FEFEFE"></path>
                    <path d="M19.8269801,7.21449905 C20.0912749,7.35659336 20.2234223,7.52131415 20.2234223,7.70594624 C20.2234223,7.73852837 20.2142454,7.7846864 20.197727,7.84351525 C20.1802908,7.90415422 20.1289002,7.97384379 20.043555,8.05891936 C19.7030919,8.42818355 19.2570945,8.95130781 18.7028095,9.63191239 C18.1494423,10.312517 17.6006636,11.0139379 17.0555556,11.7352702 C16.5113652,12.4584125 16.0433432,13.1462576 15.6505718,13.8015205 C15.2596357,14.4558784 15.0650854,14.9428003 15.0650854,15.2622862 C15.0650854,15.5301837 15.1999859,15.6650376 15.4734576,15.6650376 C15.712057,15.6650376 16.0341663,15.5356141 16.4425385,15.274957 C16.8518283,15.0142999 17.3024142,14.6730926 17.7970493,14.2540501 C18.2907666,13.8350077 18.8019201,13.3598516 19.329592,12.8312969 C19.8572639,12.3027423 20.3674996,11.7687574 20.861217,11.2311521 C21.3540167,10.694452 21.8055203,10.1731378 22.2157278,9.66901982 C22.6231823,9.16671192 22.9471269,8.73952394 23.1857264,8.38564576 C23.28759,8.23450086 23.4408443,8.15938094 23.6454892,8.15938094 C23.782225,8.15938094 23.9299732,8.18834284 24.0924043,8.24807675 C24.2539178,8.30600054 24.4025837,8.38202552 24.5393195,8.47434157 C24.6751377,8.56575256 24.7861782,8.6625939 24.8706057,8.76396054 C24.9568686,8.86442212 25,8.95673817 25,9.04090868 C25,9.09068694 24.9651278,9.16671192 24.896301,9.26626844 C24.4025837,9.88804417 23.9051955,10.5143452 23.4023013,11.1451715 C22.9012424,11.7723776 22.4460681,12.3615712 22.0367782,12.9073219 C21.6274884,13.4530727 21.2971199,13.9399946 21.0401666,14.3671826 C20.7850487,14.7970857 20.6565721,15.1120463 20.6565721,15.3120644 C20.6565721,15.396235 20.6785966,15.4668296 20.7217281,15.5274685 C20.7639418,15.5853923 20.8437809,15.6152593 20.9630806,15.6152593 C21.1154172,15.6152593 21.3374982,15.5356141 21.6274884,15.3754186 C21.9165608,15.2161282 22.2230693,15.0179202 22.5479317,14.7826048 C22.8700409,14.5481944 23.1820556,14.3002082 23.4793873,14.0404561 C23.7776366,13.7797991 24.0033884,13.549009 24.1566427,13.3471807 C24.2750247,13.213232 24.3952421,13.1462576 24.5136242,13.1462576 C24.6485246,13.1462576 24.7182691,13.2222826 24.7182691,13.3725224 C24.7182691,13.5245724 24.6411831,13.6829577 24.4888465,13.8512988 C24.30072,14.0703231 24.0189891,14.3472712 23.6454892,14.6830482 C23.2710716,15.0179202 22.8626994,15.3419314 22.4185373,15.6523667 C21.9771283,15.961897 21.521954,16.2325097 21.0530143,16.4587745 C20.5849922,16.6868495 20.1545955,16.7981718 19.7636595,16.7981718 C19.3378512,16.7981718 19.0368488,16.7058557 18.8569815,16.5203186 C18.6780319,16.3365915 18.5880983,16.0677889 18.5880983,15.7148158 C18.5880983,15.4143361 18.6477481,15.1120463 18.7679656,14.8088515 C18.8872653,14.5065617 19.0139065,14.2205629 19.1515601,13.9517603 C18.9973881,14.1201014 18.7248341,14.3717078 18.3338981,14.7065798 C17.9411266,15.0432618 17.4932938,15.3835641 16.9922349,15.7274867 C16.4893407,16.0714092 15.9791049,16.3700787 15.4606099,16.6234953 C14.9411972,16.8741968 14.476846,17 14.0684738,17 C13.2333757,17 12.8167443,16.6234953 12.8167443,15.8668658 C12.8167443,15.5138927 12.9048426,15.1328627 13.0837922,14.7210607 C13.2636595,14.3092588 13.4719752,13.901077 13.7114923,13.4992307 C13.9491741,13.0964793 14.1877735,12.7308354 14.426373,12.4032039 C14.6631371,12.0746674 14.8420867,11.8284913 14.9613864,11.6592452 C14.5364958,12.0800977 14.1841028,12.419495 13.9014542,12.679247 C13.6215587,12.9408091 13.3526754,13.1960358 13.0975575,13.4485474 C12.8424396,13.7001539 12.6717493,13.8693999 12.5864041,13.9517603 C12.4671043,14.0703231 12.3487223,14.129152 12.2294226,14.129152 C12.0761683,14.129152 12,14.053127 12,13.901077 C12,13.7336411 12.0926867,13.5580596 12.2789778,13.3725224 C12.5698856,13.0874287 13.0002824,12.679247 13.570168,12.1525025 C14.141889,11.6221378 14.7448115,11.0546656 15.3835239,10.450086 C16.023154,9.8473165 16.6435126,9.24635714 17.2473528,8.65082813 C17.8521107,8.05529912 18.3247212,7.55480134 18.6651842,7.15204996 C18.7330933,7.04977826 18.8689115,7 19.0744741,7 C19.3121559,7 19.563603,7.07240474 19.8269801,7.21449905" id="Fill-3" fill="#FEFEFE"></path>
                    <path d="M34.0913199,8.4620783 C33.9517222,8.79783546 33.7737118,9.15591443 33.5563516,9.53352499 C33.3389915,9.91485584 33.0963351,10.3073476 32.8255718,10.7128604 C32.5566823,11.1193033 32.2924773,11.5034244 32.0320198,11.8652236 C31.7696886,12.227953 31.5307798,12.5544094 31.3143566,12.8492433 C31.0969964,13.1412869 30.9358501,13.3579944 30.8318545,13.4956456 C31.0932488,13.2380147 31.4314687,12.9180688 31.848388,12.5385981 C32.2662441,12.1591274 32.7225131,11.7536146 33.2171948,11.3211296 C33.7137503,10.8905048 34.2290438,10.4580198 34.7696335,10.028325 C35.3092863,9.59584003 35.8414439,9.20892872 36.3726646,8.86201065 C36.9020116,8.51788281 37.4032516,8.23886024 37.8717002,8.02029255 C38.3410857,7.80637524 38.758005,7.69848651 39.1233949,7.69848651 C39.4007165,7.69848651 39.6180766,7.74220005 39.7754753,7.82776697 C39.9310003,7.9133339 40.0096996,8.07888729 40.0096996,8.31977678 C40.0096996,8.61275049 39.8925875,8.98385051 39.6583632,9.43307686 C39.423202,9.88044305 39.1318269,10.3547814 38.7842381,10.856092 C38.4366492,11.3564725 38.0628272,11.869874 37.663709,12.3962966 C37.2636539,12.9217891 36.8898319,13.4175192 36.542243,13.884417 C36.1937173,14.3503847 35.904216,14.7596178 35.6699917,15.1139765 C35.4348305,15.466475 35.3177184,15.7306164 35.3177184,15.9036104 C35.3177184,16.0412615 35.4376412,16.1100871 35.6812345,16.1100871 C35.9070267,16.1100871 36.2293194,16.0152194 36.6471755,15.8264141 C37.0640948,15.6357487 37.5072472,15.3976494 37.9766327,15.1139765 C38.4460182,14.8293735 38.9050978,14.527099 39.3585561,14.2080832 C39.8101405,13.8881373 40.1661615,13.5895832 40.4275558,13.316141 C40.5315514,13.2101125 40.635547,13.1589583 40.7404795,13.1589583 C40.9128686,13.1589583 41,13.2473155 41,13.4175192 C41,13.5728418 40.9316065,13.7207238 40.7910719,13.8583749 C40.5840176,14.0639215 40.2223753,14.3894479 39.7108294,14.8293735 C39.1974098,15.268369 38.6193442,15.713875 37.9766327,16.1621713 C37.3329843,16.6095375 36.6631028,17.0038894 35.9688619,17.3396466 C35.2727473,17.6754037 34.6394048,17.8446774 34.0650868,17.8446774 C33.6650317,17.8446774 33.3127583,17.7591105 33.0092036,17.5851864 C32.704712,17.4121924 32.5529347,17.1545616 32.5529347,16.8095037 C32.5529347,16.5323413 32.6569303,16.1928638 32.8649215,15.7864209 C33.0747864,15.3809081 33.3389915,14.9502833 33.6603472,14.4917562 C33.9826398,14.0350892 34.3302287,13.5681914 34.7031138,13.093853 C35.0778727,12.6204447 35.4348305,12.1712184 35.7730504,11.7480342 C36.1112703,11.3267101 36.4082667,10.9593303 36.6593552,10.6477551 C36.9113805,10.3389702 37.0640948,10.1055213 37.116561,9.9501987 C37.1334252,9.89904456 37.1409204,9.85533102 37.1409204,9.82091824 C37.1409204,9.76883402 37.1062552,9.74279192 37.0387986,9.74279192 C36.9685313,9.74279192 36.9020116,9.76046335 36.842987,9.79394606 C36.7811518,9.82928892 36.707137,9.8637017 36.6200055,9.89904456 C36.0990907,10.2087596 35.4685588,10.6747273 34.7302838,11.2960176 C33.9920088,11.9173079 33.2303114,12.5981229 32.4480022,13.340323 C31.6666299,14.082523 30.9189859,14.8414644 30.2060072,15.6190074 C29.4939653,16.3946901 28.9018462,17.0931766 28.4343345,17.7144669 C28.2937999,17.9042022 28.101736,18 27.8600165,18 C27.563957,18 27.2894461,17.8967616 27.0383577,17.6902849 C26.7853954,17.4828782 26.6589143,17.282912 26.6589143,17.0931766 C26.6589143,17.0076097 26.6626619,16.9434345 26.6729678,16.899721 C26.6813998,16.8569375 26.6935795,16.8178744 26.7123174,16.7834616 C26.816313,16.5927961 27.0121246,16.2877315 27.2978782,15.8645472 C27.5864425,15.441363 27.919978,14.9577239 28.3031689,14.4145599 C28.6844861,13.871396 29.0798567,13.3021899 29.4892808,12.7069417 C29.8968311,12.1116936 30.2762745,11.5462078 30.6229264,11.0114146 C30.9705153,10.4756912 31.2581427,10.0060032 31.4829981,9.59956033 C31.7087903,9.19497759 31.8221549,8.91409487 31.8221549,8.75970238 C31.8221549,8.67320538 31.7696886,8.62949184 31.6666299,8.62949184 C31.5963626,8.62949184 31.474566,8.67320538 31.3003031,8.75970238 C30.9021218,8.98385051 30.4402315,9.28612497 29.9193166,9.6646656 C29.3974649,10.0441363 28.8372003,10.4719709 28.2375861,10.9472394 C27.6379719,11.4215777 27.0252411,11.9340492 26.3993938,12.4865139 C25.7735464,13.0399087 25.1655001,13.5988839 24.5733811,14.1699501 C24.4525214,14.2899298 24.3307247,14.3503847 24.2089281,14.3503847 C24.0702673,14.3503847 24,14.2824892 24,14.1420479 C24,13.9355712 24.1489667,13.6853809 24.4431524,13.3924072 C24.9996693,12.8232011 25.6910995,12.1712184 26.5165059,11.4383191 C27.3419124,10.7054198 28.1804354,10.0060032 29.0330118,9.34099941 C29.8846514,8.67785575 30.6969413,8.12074068 31.4717553,7.67151433 C32.2437586,7.22321806 32.8649215,7 33.3352439,7 C33.6125654,7 33.8430422,7.04743384 34.0257371,7.14230151 C34.2084321,7.23623911 34.300248,7.40458273 34.300248,7.6464023 C34.300248,7.85380908 34.2290438,8.12539105 34.0913199,8.4620783" id="Fill-5" fill="#FEFEFE"></path>
                    <path d="M60.1208694,6.77221561 C60.9672982,6.59281308 61.9076712,6.5026518 62.9419885,6.5026518 C63.1168551,6.5026518 63.2024282,6.58913302 63.2024282,6.75933543 C63.2024282,6.86237688 63.1670828,6.9838186 63.0982523,7.13102067 C63.030352,7.27546271 62.938268,7.41162463 62.826651,7.53950644 C62.715034,7.66922827 62.5885348,7.78054984 62.4508738,7.87255114 C62.314143,7.96731248 62.175552,8.01423314 62.037891,8.01423314 L60.9235815,8.01423314 C60.5971019,8.01423314 60.2520194,8.02619331 59.8883341,8.05195367 C59.526509,8.07771404 59.1377099,8.11267453 58.7237969,8.15499513 C58.309884,8.19731573 57.8345817,8.27091677 57.3016106,8.37119818 C56.9723405,8.83212469 56.5835414,9.40069272 56.1352132,10.0750622 C55.6859549,10.7485117 55.2180937,11.4615218 54.7241886,12.2131724 C54.2330739,12.963903 53.7363783,13.7155536 53.2350321,14.4662842 C52.7364762,15.2170148 52.2695452,15.9005845 51.8370294,16.5142331 C51.630538,16.8380777 51.3626573,17 51.0352475,17 C50.7599256,17 50.5180888,16.8813183 50.3106673,16.643035 C50.1032457,16.4038316 50,16.1646282 50,15.9254248 C50,15.8067432 50.0269741,15.6954216 50.0781319,15.5933001 C50.4222842,15.0127719 50.8157341,14.3936032 51.255691,13.7367139 C51.6956479,13.0789046 52.1346747,12.4394956 52.5764919,11.8166468 C53.0145885,11.192878 53.4340823,10.6086698 53.8312528,10.061262 C54.227493,9.51569434 54.5642042,9.04740773 54.8395261,8.65456218 C54.4451461,8.74012339 54.0470456,8.82844464 53.6498752,8.92320597 C53.2517746,9.01612729 52.8555343,9.14032904 52.4602242,9.2930512 C52.3551182,9.32801169 52.2872179,9.34549194 52.2528027,9.34549194 C52.1662995,9.34549194 52.1216527,9.2930512 52.1216527,9.19092975 C52.1216527,9.14032904 52.1449063,9.08144821 52.1876928,9.01336725 C52.2314094,8.94436627 52.2955892,8.89284555 52.3820923,8.85880507 C52.8825084,8.61960169 53.4043178,8.40891871 53.9475204,8.23135621 C54.4907231,8.05195367 55.0041612,7.88543132 55.4887649,7.73178915 C55.8152445,7.2533824 56.1259118,6.80625609 56.4189063,6.38765018 C56.7128311,5.96996428 56.9983845,5.56607858 57.2737064,5.17139301 C57.5499584,4.77946747 57.8262104,4.39490205 58.1015323,4.01953675 C58.3768542,3.64417145 58.6633377,3.25224591 58.9563323,2.84284013 C58.6289225,2.94404156 58.2484946,3.06456326 57.816909,3.19980517 C57.3871836,3.33780712 56.9416459,3.49144929 56.4840163,3.66073168 C56.0282469,3.8318541 55.5734077,4.01585669 55.1250796,4.21181946 C54.6758212,4.40870224 54.2805111,4.60006494 53.9344985,4.7886676 C53.8145102,4.85582855 53.7187056,4.90366923 53.6498752,4.92850958 C53.5810447,4.95426994 53.503843,4.96715012 53.4173398,4.96715012 C53.1410878,4.96715012 53.0034268,4.83190822 53.0034268,4.55682433 C53.0034268,4.42158242 53.0536545,4.27990042 53.1578303,4.13453837 C53.261076,3.98917632 53.4173398,3.85761446 53.6238312,3.73801277 C54.5567631,3.22648555 55.5668968,2.73887867 56.6523719,2.27795216 C57.7387771,1.81794567 58.8400646,1.42142007 59.953444,1.08837537 C61.0658932,0.754410651 62.1662506,0.490366923 63.2526558,0.294404156 C64.3409213,0.0975213768 65.3417536,0 66.2579429,0 C66.8085867,0 67.2624957,0.0202402857 67.6159495,0.0644009092 C67.9694032,0.106721507 68.2484457,0.166522351 68.4577275,0.242883429 C68.6642189,0.319244507 68.8056004,0.414925858 68.8846625,0.524407403 C68.9618642,0.635728975 69,0.768210845 69,0.921853014 C69,1.53642169 68.7358398,2.06174911 68.2103099,2.49599524 C67.6838498,2.93024137 67.007637,3.26880615 66.179811,3.50708951 C66.4216478,3.37092759 66.6411612,3.22648555 66.8392813,3.07284338 C67.0374015,2.9182812 67.1369266,2.73059855 67.1369266,2.50887542 C67.1369266,2.06634917 66.3435159,1.84370603 64.7557644,1.84370603 C64.1688452,1.84370603 63.6033191,1.89430674 63.0601165,1.99826821 C62.5159837,2.09854963 62.0109169,2.20251109 61.544916,2.30371252 C61.3384246,2.59443663 61.0872864,2.94128152 60.7942919,3.34056716 C60.5003672,3.74261284 60.1952808,4.1648988 59.8753121,4.60834506 C59.5562736,5.05271133 59.2325843,5.50535772 58.9051745,5.96536422 C58.5777647,6.42629072 58.2754687,6.86237688 57.9982866,7.27178266 C58.5675332,7.11722048 59.276301,6.95069813 60.1208694,6.77221561" id="Fill-7" fill="#FEFEFE"></path>
                    <path d="M73.6294344,1.33003541 C73.5446853,1.33003541 73.3642518,1.45657155 73.0826661,1.70776921 C72.8065482,1.95990419 72.4848662,2.29077276 72.1221767,2.69943762 C71.7567532,3.10903978 71.3603463,3.57769215 70.9293107,4.10820662 C70.4973638,4.6377838 70.0836425,5.18142054 69.6872356,5.73911685 C69.2871835,6.29681316 68.9308729,6.84701104 68.6082796,7.39533431 C68.2884202,7.94272027 68.0414633,8.43480525 67.8719651,8.86877734 C68.9718805,7.77213081 69.9059428,6.80764424 70.6759747,5.97250573 C71.4441841,5.13924182 72.0747901,4.42220371 72.5650589,3.82045407 C73.0553277,3.22151635 73.4107271,2.7350552 73.6294344,2.36107061 C73.8499642,1.98708602 73.9584066,1.72182879 73.9584066,1.56436159 C73.9584066,1.40876901 73.8499642,1.33003541 73.6294344,1.33003541 M74.6956324,0.299937513 C74.8979366,0.498646115 75,0.764840658 75,1.09477192 C75,1.47812956 74.8432598,1.9430327 74.5306906,2.49041866 C74.2181215,3.03874193 73.8162468,3.62174547 73.325978,4.23942929 C72.8357092,4.8571131 72.288941,5.48604457 71.6902298,6.12997292 C71.0915186,6.77296397 70.4937187,7.37658821 69.9022977,7.94272027 C69.3099655,8.50791502 68.7650199,9.01687149 68.2656382,9.46865236 C67.7662566,9.92137055 67.3826076,10.2597376 67.1128686,10.485628 C66.9606848,10.7986878 66.7483564,11.2214122 66.4777062,11.7500521 C66.2079672,12.2815039 65.9455185,12.8213914 65.6912712,13.3687773 C65.4379353,13.9161633 65.2146716,14.428869 65.0205689,14.9068944 C64.8246436,15.3858571 64.7280479,15.7214122 64.7280479,15.9116851 C64.7280479,16.1553843 64.9221506,16.2753593 65.3103561,16.2753593 C65.5983206,16.2753593 65.9026883,16.2069361 66.2252815,16.068215 C66.5451409,15.9294939 66.8677342,15.7523433 67.1894161,15.5339513 C67.5101868,15.3164966 67.8273124,15.0681108 68.1407928,14.7897313 C68.4524507,14.5113518 68.7349476,14.2329723 68.9882835,13.9545928 C69.1249756,13.8158717 69.2352405,13.7465111 69.3190783,13.7465111 C69.4539478,13.7465111 69.5213825,13.8355551 69.5213825,14.0070819 C69.5213825,14.1467403 69.444835,14.3201416 69.2935625,14.5291606 C69.0912582,14.7728598 68.7741327,15.0896688 68.3430971,15.4814622 C67.9120614,15.8732556 67.4372844,16.2556759 66.9214997,16.6287232 C66.4048037,17.0045824 65.8653258,17.3251406 65.2985094,17.5941471 C64.731693,17.8640908 64.2122632,18 63.7383974,18 C63.0130183,18 62.6485062,17.6157051 62.6485062,16.8508644 C62.6485062,16.502187 62.7277875,16.077588 62.8899954,15.5723808 C63.0503808,15.0681108 63.2317256,14.5685274 63.4358524,14.0736305 C63.6372453,13.576859 63.8413721,13.1194543 64.0427651,12.7023537 C64.2459806,12.2861904 64.3899629,11.9993751 64.4738007,11.8428452 C64.3744711,11.9112685 64.2067955,12.0509269 63.9798867,12.2599458 C63.7511554,12.4699021 63.5023758,12.7023537 63.2317256,12.9638617 C62.9610753,13.2253697 62.6813122,13.4981254 62.3951702,13.7877526 C62.1062943,14.0736305 61.8447569,14.3295147 61.6096466,14.5544678 C61.4392371,14.6960008 61.3043676,14.7644241 61.2023042,14.7644241 C61.068346,14.7644241 61,14.6866278 61,14.5291606 C61,14.3548219 61.1011521,14.1626744 61.3043676,13.9545928 C61.6096466,13.6434076 61.9431752,13.3069152 62.306776,12.9507394 C62.6703769,12.5964382 63.0294213,12.2515101 63.3848207,11.9215788 C63.7383974,11.5907103 64.0646358,11.2860862 64.3598906,11.0067694 C64.6560568,10.7302645 64.8975461,10.5128098 65.0834472,10.3553426 C65.4051292,9.67579671 65.7805767,8.95126015 66.210701,8.17798375 C66.6435592,7.40377005 67.1083122,6.63518017 67.6067825,5.8684649 C68.1034303,5.10268694 68.6210376,4.36409081 69.1550478,3.65173922 C69.6872356,2.93845032 70.218512,2.31326807 70.7506997,1.77338055 C71.2837987,1.23443033 71.7959383,0.803270152 72.2852958,0.482711935 C72.7755647,0.160279109 73.2321161,0 73.6558615,0 C74.145219,0 74.4905943,0.100291606 74.6956324,0.299937513" id="Fill-9" fill="#FEFEFE"></path>
                    <path d="M78.912,8.18671747 C78.605377,8.18671747 78.3134426,8.27109418 78.0316066,8.4389403 C77.7488525,8.6076937 77.4991475,8.83451279 77.2769836,9.12030484 C77.0575738,9.40700417 76.8803934,9.7399746 76.7527869,10.1183088 C76.6260984,10.4975504 76.560918,10.9058247 76.560918,11.3413174 C76.560918,11.6797314 76.6086557,11.9709672 76.7022951,12.2141172 C76.7959344,12.4581746 76.9198689,12.6686627 77.0731803,12.8446743 C77.2264918,13.0215932 77.3963279,13.1731083 77.5836066,13.300127 C77.7718033,13.4253312 77.9673443,13.5387407 78.1711475,13.6403557 C78.7348197,12.9172564 79.1846557,12.1760116 79.5252459,11.4175286 C79.8658361,10.6608601 80.0365902,10.0139721 80.0365902,9.4750499 C80.0365902,8.61676647 79.6611148,8.18671747 78.912,8.18671747 M74.4668852,15.9384867 C74.8588852,15.9384867 75.300459,15.8123752 75.7952787,15.5592451 C76.2891803,15.3079296 76.7656393,14.9549991 77.2264918,14.4995464 C76.9859672,14.3988387 76.7619672,14.2818 76.5499016,14.1457086 C76.335082,14.0105244 76.1496393,13.8472147 75.9880656,13.6530575 C75.8255738,13.4598077 75.693377,13.2239158 75.5923934,12.945382 C75.4886557,12.6686627 75.439082,12.3375068 75.439082,11.947378 C75.439082,11.3095627 75.5088525,10.7915079 75.6557377,10.3950281 C75.7989508,10.0003629 76.0091803,9.62565778 76.28,9.27272727 C76.1092459,9.40700417 75.8384262,9.61749229 75.4629508,9.90328434 C75.0874754,10.1899837 74.712,10.5474506 74.3401967,10.9765923 C73.9647213,11.405734 73.6333115,11.8947559 73.3432131,12.440029 C73.0512787,12.988024 72.9089836,13.5723099 72.9089836,14.1956088 C72.9089836,15.3578298 73.4267541,15.9384867 74.4668852,15.9384867 M71.4777705,16.2288151 C70.9829508,15.716204 70.7378361,15.0965342 70.7378361,14.3725277 C70.7378361,13.9860279 70.791082,13.5895482 70.9021639,13.1858102 C71.0132459,12.7811649 71.213377,12.3692615 71.5025574,11.947378 C71.213377,12.1850844 70.8984918,12.4754128 70.5579016,12.8201778 C70.2173115,13.1649428 69.8767213,13.497006 69.5370492,13.8172745 C69.4323934,13.9179822 69.3314098,13.9687897 69.2285902,13.9687897 C69.0761967,13.9687897 69,13.884413 69,13.7165669 C69,13.5323898 69.1019016,13.3454908 69.3057049,13.1594992 C69.9015082,12.5888224 70.512,12.0199601 71.1335082,11.4565415 C71.7550164,10.8922156 72.3728525,10.3405915 72.9860984,9.80257666 C73.2908852,9.53311559 73.6149508,9.27272727 73.956459,9.01868989 C74.2970492,8.76737434 74.6459016,8.54236981 75.0030164,8.33823263 C75.3619672,8.13591 75.7273443,7.97260025 76.1019016,7.84558156 C76.477377,7.71947015 76.8592787,7.65596081 77.2512787,7.65596081 C77.3036066,7.65596081 77.3540984,7.66140446 77.4055082,7.66956995 C77.456,7.67682816 77.5064918,7.68136454 77.5588197,7.68136454 C77.9159344,7.44547269 78.2482623,7.27309018 78.5548852,7.16421702 C78.8615082,7.05534386 79.2011803,7 79.5757377,7 C79.9181639,7 80.229377,7.07439666 80.509377,7.22681909 C80.7902951,7.37924152 81.0335738,7.58156414 81.2382951,7.8328797 C81.4411803,8.08510252 81.5981639,8.38087461 81.7101639,8.71656687 C81.8203279,9.05407367 81.8772459,9.40700417 81.8772459,9.77717293 C81.8772459,10.4839412 81.712918,11.2124841 81.3916066,11.9609871 C81.0657049,12.7103974 80.5314098,13.438033 79.779541,14.1457086 C79.9337705,14.1956088 80.1384918,14.2210125 80.3937049,14.2210125 C80.7691803,14.2210125 81.1134426,14.123934 81.4283279,13.9306841 C81.7432131,13.7374342 82.0984918,13.438033 82.4904918,13.034295 C82.5731148,12.9508256 82.6594098,12.9081836 82.7447869,12.9081836 C82.915541,12.9081836 83,13.0007258 83,13.1858102 C83,13.3209944 82.915541,13.4734168 82.7447869,13.6403557 C82.300459,14.0776629 81.8331803,14.4151697 81.3392787,14.6519688 C80.845377,14.8869534 80.3083279,15.0048993 79.7299672,15.0048993 C79.5592131,15.0048993 79.4233443,15.0003629 79.3205246,14.9921974 C79.218623,14.9831247 79.1341639,14.9704228 79.0662295,14.9549991 C78.605377,15.4757757 77.9370492,15.9475594 77.0594098,16.3676284 C76.1826885,16.7876973 75.1232787,17 73.8802623,17 C72.7731148,17 71.9725902,16.7423335 71.4777705,16.2288151" id="Fill-11" fill="#FEFEFE"></path>
                    <path d="M88.755008,14.4172569 C88.2267198,15.042408 87.6881826,15.6219554 87.1366013,16.1492486 C86.581293,16.679392 86.045551,17.1192779 85.5275118,17.4717568 C85.0085408,17.8242356 84.5575858,18 84.1783736,18 C83.8317718,18 83.5569129,17.8204353 83.3472747,17.4584557 C83.1422951,17.0964761 83.0370102,16.6347383 83.0370102,16.0703921 C83.0370102,15.6637589 83.1031627,15.250475 83.2326725,14.8276904 C83.3621823,14.4039558 83.5177804,14.003023 83.6976034,13.624892 C83.8802215,13.245811 84.0572493,12.9009328 84.2296185,12.5931076 C84.4029194,12.2852824 84.5324292,12.0335118 84.6190797,11.839696 C84.2901807,12.1389705 83.9370568,12.4781482 83.5569129,12.8581793 C83.176769,13.2372603 82.8730266,13.5412852 82.6484808,13.7693039 C82.4751799,13.9460183 82.3298307,14.0353256 82.2087065,14.0353256 C82.0689477,14.0353256 82,13.9555191 82,13.795906 C82,13.6030402 82.1304415,13.3721714 82.3885294,13.1089998 C82.6671153,12.8268267 83.054713,12.4467956 83.5569129,11.9717568 C84.0572493,11.4967179 84.5818107,10.9903265 85.1250065,10.4516324 C85.6700657,9.91388841 86.1918319,9.37899465 86.6931001,8.85265158 C87.1943682,8.32345828 87.5912832,7.87312144 87.8857084,7.5035412 C87.991925,7.36292969 88.1279569,7.2603213 88.3012578,7.19856625 C88.473627,7.13776127 88.6553134,7.10830886 88.8453854,7.10830886 C89.0867022,7.10830886 89.2954087,7.15486267 89.4687096,7.25272068 C89.640147,7.34962861 89.7267975,7.48548972 89.7267975,7.66315426 C89.7267975,7.69830713 89.7221388,7.74961133 89.714685,7.82086716 C89.7062995,7.89117291 89.6494643,7.99663154 89.5460428,8.13819312 C89.1817382,8.65028502 88.7680522,9.23078252 88.3012578,9.88253584 C87.8344635,10.5352392 87.3946892,11.191743 86.9800714,11.8529971 C86.564522,12.5133011 86.2132616,13.1384522 85.9290854,13.7294006 C85.6439774,14.3203489 85.5004917,14.810589 85.5004917,15.1963206 C85.5004917,15.3910865 85.5275118,15.5506996 85.5787567,15.6732596 C85.6309333,15.7958197 85.7511258,15.8575747 85.9421295,15.8575747 C86.1480408,15.8575747 86.4461929,15.690361 86.835654,15.3559337 C87.2251152,15.0215063 87.6518453,14.590171 88.1195714,14.0609777 C88.5863658,13.5317844 89.0708629,12.9550872 89.5730628,12.328986 C90.0733992,11.7038349 90.5448522,11.093885 90.9846265,10.5048368 C91.4253326,9.91388841 91.8064082,9.38849542 92.12599,8.93150803 C92.4455717,8.47357056 92.6580051,8.14674382 92.7614266,7.95292797 C92.8629846,7.75911211 93.007402,7.62325099 93.1909519,7.54344446 C93.3707749,7.46363793 93.5561882,7.42468475 93.7471919,7.42468475 C93.9717377,7.42468475 94.1664682,7.47123856 94.3295202,7.56909656 C94.4935038,7.66695457 94.5764274,7.79426499 94.5764274,7.95292797 C94.5764274,7.98713077 94.5717687,8.03178442 94.5633832,8.08498877 C94.5559294,8.13819312 94.533568,8.20849888 94.4981624,8.29685611 C94.3593354,8.57807912 94.1264041,9.01891518 93.7984368,9.61841423 C93.4704695,10.2179133 93.1331849,10.8525652 92.7884466,11.52237 C92.4409131,12.1921748 92.1334438,12.8344274 91.8669703,13.4519779 C91.5995652,14.0685783 91.464465,14.5360166 91.464465,14.8552427 C91.464465,15.0471584 91.4905533,15.2058214 91.5417982,15.3302816 C91.5949066,15.4547418 91.6983281,15.5145966 91.8539262,15.5145966 C92.078472,15.5145966 92.4027124,15.335032 92.8257156,14.9730523 C93.2505823,14.6120228 93.6950153,14.1835377 94.1627413,13.6894973 C94.628604,13.1973571 95.0776955,12.695716 95.5109478,12.182674 C95.9432683,11.6724823 96.2721673,11.2667991 96.4967131,10.9656245 C96.5116207,10.6682501 96.5787049,10.2939195 96.6914437,9.84358266 C96.8041824,9.39419589 96.9597805,8.95621005 97.1591697,8.53532562 C97.3566955,8.11159095 97.609193,7.74961133 97.9101403,7.45128692 C98.212951,7.15106236 98.5716652,7 98.9862829,7 C99.2816398,7 99.5238884,7.07410606 99.7148921,7.2261185 C99.904964,7.3752807 100,7.55579547 100,7.76671273 C100,8.0156331 99.9217351,8.29400587 99.7652052,8.5999309 C99.6086754,8.91060632 99.406491,9.2402833 99.1567887,9.59181206 C98.9042911,9.9442909 98.6257053,10.3148212 98.314509,10.703403 C98.0023811,11.0900846 97.6902531,11.4777164 97.3790569,11.8653481 C97.3613541,11.9717568 97.3492417,12.0715149 97.3408562,12.170323 C97.3306072,12.2662809 97.3259485,12.3603386 97.3259485,12.4467956 C97.3259485,12.536103 97.3306072,12.6368112 97.3408562,12.7508205 C97.3492417,12.8657799 97.3790569,12.9807393 97.4312335,13.0937986 C97.4815467,13.2106581 97.5560847,13.306616 97.6529841,13.3854724 C97.7461566,13.4662291 97.8803251,13.5042322 98.053626,13.5042322 C98.2958745,13.5042322 98.5548941,13.416825 98.8316165,13.2410606 C98.9359698,13.1888064 99.0310057,13.1612541 99.1176562,13.1612541 C99.3067964,13.1612541 99.4046276,13.2496113 99.4046276,13.4263258 C99.4046276,13.6030402 99.2425074,13.7883054 98.9229256,13.9811712 C98.6024121,14.1759371 98.2614007,14.2728451 97.8989596,14.2728451 C97.534655,14.2728451 97.2355712,14.1540853 97.0026399,13.9156158 C96.7687769,13.6771463 96.6532429,13.35602 96.6532429,12.9493868 C96.6532429,12.9142339 96.6560381,12.8752807 96.6672188,12.8306271 C96.6737409,12.7859734 96.6793312,12.7384695 96.6793312,12.6871653 C96.5228014,12.879081 96.3112998,13.1441527 96.0429629,13.4795301 C95.7736943,13.8130074 95.4708836,14.1759371 95.1345308,14.5626188 C94.7972462,14.9502505 94.4338734,15.3435827 94.0444122,15.7397651 C93.6568145,16.1359475 93.2626948,16.4922266 92.8629846,16.8114528 C92.4660697,17.1287787 92.0756768,17.3871999 91.6862156,17.5905165 C91.2958228,17.7928831 90.9361768,17.8945414 90.6082095,17.8945414 C90.0733992,17.8945414 89.6802112,17.7263776 89.4305088,17.3938504 C89.178943,17.0565728 89.0531601,16.6347383 89.0531601,16.1226464 C89.0531601,15.8575747 89.0867022,15.5735015 89.1565816,15.2647262 C89.2273927,14.9550009 89.3159066,14.6471757 89.4305088,14.3384004 C89.5423159,14.0305752 89.6615767,13.7294006 89.7920182,13.4396269 C89.9224598,13.147953 90.0389254,12.8885818 90.1423469,12.6596131 C89.7445002,13.2059078 89.2814328,13.7921057 88.755008,14.4172569" id="Fill-13" fill="#FEFEFE"></path>
                    <path d="M105.995662,8.40609636 C105.589103,8.61347993 105.163457,8.88701171 104.72254,9.22758559 C104.277807,9.56637168 103.84548,9.94895861 103.419833,10.3708769 C102.995141,10.7936891 102.621985,11.2218647 102.303227,11.6527219 C102.835763,11.6527219 103.407427,11.5374095 104.017265,11.304103 C104.629013,11.0725842 105.190179,10.7936891 105.704581,10.4709931 C106.218983,10.1474032 106.643675,9.80414767 106.979611,9.43675695 C107.317456,9.0738357 107.485424,8.75829087 107.485424,8.49459194 C107.485424,8.34441763 107.461565,8.24161974 107.418619,8.18172879 C107.373764,8.12451953 107.246833,8.09502101 107.03401,8.09502101 C106.74961,8.09502101 106.405084,8.1978189 105.995662,8.40609636 M108.323356,9.7987843 C107.870987,10.3378028 107.28119,10.8410655 106.554919,11.304103 C105.829603,11.7689282 105.00885,12.1711808 104.096478,12.5099669 C103.18506,12.8514347 102.26887,13.0704389 101.347909,13.1696612 C101.116953,13.519174 100.928943,13.8713686 100.788652,14.2280325 C100.647406,14.5838026 100.575829,14.9038169 100.575829,15.1844999 C100.575829,15.6823992 100.966163,15.9317958 101.745879,15.9317958 C102.205882,15.9317958 102.720285,15.8361491 103.287177,15.6448556 C103.854069,15.4544561 104.420961,15.2023778 104.986899,14.8877268 C105.553791,14.5703942 106.098733,14.2280325 106.621725,13.8534907 C107.142808,13.4807366 107.591359,13.103513 107.964515,12.7227139 C108.086674,12.5734334 108.220285,12.4974524 108.36153,12.4974524 C108.502776,12.4974524 108.575308,12.5734334 108.575308,12.7227139 C108.575308,12.8880844 108.451241,13.0945741 108.20406,13.3448646 C107.795593,13.7426477 107.288825,14.156521 106.68853,14.589166 C106.085372,15.0191293 105.438313,15.4133369 104.746399,15.769107 C104.057349,16.125771 103.344439,16.4207562 102.609578,16.6531689 C101.873764,16.8846876 101.169443,17 100.497571,17 C98.8322054,17 98,16.295611 98,14.8877268 C98,14.3728435 98.1221586,13.8266738 98.3712476,13.2447484 C98.6184279,12.6655046 98.954364,12.0800036 99.3800104,11.4900331 C99.8075655,10.9018504 100.315287,10.3378028 100.907947,9.7987843 C101.501562,9.2597658 102.134305,8.78421382 102.808086,8.36855278 C103.482821,7.95378564 104.189051,7.62304461 104.933455,7.37364798 C105.677859,7.12425136 106.422263,7 107.165712,7 C107.822315,7 108.290908,7.11710021 108.575308,7.34861893 C108.856845,7.58013766 109,7.88674354 109,8.26933047 C109,8.75113972 108.773816,9.2597658 108.323356,9.7987843" id="Fill-15" fill="#FEFEFE"></path>
                    <path d="M113.535241,7.62599329 C113.61203,7.5209253 113.700704,7.42203779 113.801262,7.33197952 C113.902733,7.24103832 114.006033,7.16422391 114.106591,7.09800459 C114.209891,7.0326682 114.284852,7 114.337874,7 C114.403693,7 114.454886,7.01589264 114.48871,7.04856083 C114.693482,7.27812114 114.921108,7.5023839 115.176159,7.72399788 C115.430295,7.94561187 115.672548,8.17075755 115.902002,8.40031785 C116.129628,8.63076108 116.325258,8.86650185 116.48615,9.11283772 C116.647957,9.35740773 116.728403,9.61963624 116.728403,9.8986403 C116.728403,10.3250927 116.580309,10.7559597 116.282293,11.1885926 C115.986105,11.6229913 115.591187,12.1200777 115.099369,12.67632 C114.845233,12.9544411 114.591096,13.2166696 114.337874,13.4612396 C114.082823,13.7084584 113.854283,13.9406675 113.649511,14.1613986 C113.446567,14.3838955 113.281104,14.5931485 113.153122,14.7891577 C113.026054,14.9860498 112.962977,15.1661663 112.962977,15.3303903 C112.962977,15.5758432 113.148551,15.6985697 113.522443,15.6985697 C113.945699,15.6985697 114.509736,15.4645947 115.213639,14.9984107 C115.918457,14.5304609 116.659841,13.9044676 117.441448,13.1177821 C117.574915,12.9871093 117.69467,12.9217729 117.796142,12.9217729 C117.933266,12.9217729 118,13.0038849 118,13.1663429 C118,13.3305668 117.906756,13.5045029 117.719353,13.6837365 C117.279642,14.1419742 116.808849,14.5719583 116.307889,14.9736889 C115.806929,15.3745365 115.312369,15.7268232 114.819636,16.0314321 C114.327818,16.3325093 113.845141,16.5708988 113.369778,16.7421861 C112.894414,16.9143563 112.452875,17 112.046988,17 C111.622817,17 111.248012,16.8808052 110.928056,16.6432986 C110.605357,16.4066749 110.443551,16.0835246 110.443551,15.6738478 C110.443551,15.2147272 110.639181,14.7361822 111.029527,14.2355642 C111.41896,13.7358291 111.919005,13.1840014 112.52875,12.5774325 C113.225341,11.8905174 113.690648,11.3607628 113.930158,10.9925834 C114.166012,10.624404 114.284852,10.3162635 114.284852,10.0708105 C114.284852,9.80946495 114.230917,9.57990464 114.120304,9.38301254 C114.010604,9.18788628 113.902733,8.99894049 113.801262,8.81794102 C113.479477,9.12961328 113.102843,9.48543175 112.671359,9.88716228 C112.238047,10.2888928 111.782796,10.7056331 111.308346,11.1400318 C110.833897,11.5744305 110.363104,12.0044146 109.896883,12.4299841 C109.430661,12.8564365 109.011061,13.2493378 108.636256,13.608688 C108.449767,13.7561363 108.30533,13.830302 108.204772,13.830302 C108.069476,13.830302 108,13.7561363 108,13.608688 C108,13.4612396 108.102386,13.2890694 108.30533,13.0921773 C108.645397,12.7663782 109.049456,12.3805403 109.515678,11.9390782 C109.980985,11.4967332 110.458177,11.0535052 110.940854,10.6120431 C111.42353,10.169698 111.889752,9.73971393 112.339519,9.32297369 C112.788372,8.90358467 113.175976,8.55571252 113.49776,8.27759138 C113.479477,8.22814762 113.463022,8.17075755 113.446567,8.10542115 C113.430112,8.04008476 113.420057,7.96768497 113.420057,7.88469009 C113.420057,7.8193537 113.459366,7.73371005 113.535241,7.62599329" id="Fill-17" fill="#FEFEFE"></path>
                    <path d="M132.785778,7 L132.574349,7 C132.550857,7 132.525625,7.00381388 132.499522,7.01525553 L129.831862,8.11651411 C129.749204,8.15083905 129.69439,8.23855835 129.69439,8.33295195 L129.69439,8.54843631 C129.69439,8.62471396 129.729193,8.69622426 129.785748,8.74008391 C129.842303,8.78394355 129.91626,8.7953852 129.981515,8.76868802 C130.59057,8.52173913 130.745444,8.57704043 130.749795,8.57894737 C130.749795,8.57894737 130.762846,8.61231884 130.740224,8.70671243 C130.711511,8.82875667 130.600141,9.14530892 130.224267,9.96815408 L127.914209,15.0167811 C127.579229,15.7433257 127.455678,15.9206712 127.418264,15.962624 C127.339087,16.0503432 127.235548,16.122807 127.110256,16.1790618 C127.03804,16.2124333 126.838792,16.2667811 126.328926,16.2725019 C126.248009,16.2744088 126.177532,16.3239893 126.138379,16.4021739 L126.022658,16.657704 C125.988725,16.7301678 125.993946,16.8169336 126.031359,16.8855835 C126.069643,16.9532799 126.138379,16.9961861 126.210595,16.9961861 L129.545606,17 C129.624783,17 129.70048,16.9504195 129.734413,16.870328 L129.852744,16.6147979 C129.886677,16.5404272 129.883197,16.4565217 129.845783,16.3878719 C129.80837,16.3182685 129.741374,16.2772693 129.666547,16.2753623 C129.154941,16.268688 129.048791,16.2067124 129.03487,16.1971777 C129.010508,16.1781083 129.002677,16.1657132 129.007028,16.122807 C129.012248,16.0875286 129.052272,15.9168574 129.36637,15.2265446 L132.978936,7.33848207 C133.010259,7.26506484 133.006778,7.17829901 132.967625,7.11155606 C132.926731,7.04099924 132.861475,7 132.785778,7" id="Fill-19" fill="#FEFEFE"></path>
                    <path d="M143.633943,11.9855045 C143.496381,11.5076218 143.659917,10.8118395 144.122626,9.9168615 C144.469898,9.24071823 144.889318,8.73010381 145.363571,8.39156457 C145.83109,8.06144206 146.26013,7.89684841 146.637224,7.89684841 C147.012393,7.89684841 147.144184,8.06144206 147.214408,8.18208174 C147.336578,8.40652763 147.354856,8.74787244 147.265392,9.19956981 C147.173043,9.6811933 147.016241,10.1375666 146.799797,10.5527915 C146.627604,10.8866548 146.354404,11.3346114 145.98693,11.8863743 C145.691604,12.046292 145.378963,12.173478 145.064398,12.2604508 C144.737327,12.3520995 144.467974,12.3988591 144.26596,12.3988591 C143.813832,12.3988591 143.6907,12.1753484 143.633943,11.9855045 M147.022975,7 C146.016751,7 144.985516,7.40306743 143.961976,8.19049846 C143.124097,8.83391003 142.482461,9.58112784 142.057269,10.4087721 C141.601294,11.2906574 141.503173,12.0247826 141.768677,12.5877677 C142.043801,13.1703918 142.58443,13.4677827 143.377096,13.4677827 C143.83211,13.4677827 144.366005,13.3564949 144.997059,13.1301786 C144.537236,13.6342467 144.02258,14.1093239 143.457902,14.5507341 C142.637339,15.1913401 141.893734,15.6430375 141.242478,15.8974095 C140.596994,16.1471056 139.963053,16.2789675 139.358934,16.2901898 C139.27428,16.2920602 139.193475,16.3388198 139.155958,16.4164407 L139.026091,16.6698775 C138.987612,16.7390816 138.992422,16.8232489 139.035711,16.8896474 C139.079962,16.9579164 139.155958,17 139.235802,17 L139.650412,17 L139.655222,17 C140.600842,17 141.609952,16.7503039 142.65754,16.256523 C143.932155,15.6692229 145.085561,14.9201347 146.082165,14.031703 C147.085503,13.1385953 147.865664,12.1603853 148.400521,11.1204526 C149.013298,9.93556532 149.15567,8.91340129 148.830523,8.0792107 C148.539045,7.36378939 147.931078,7 147.022975,7" id="Fill-21" fill="#FEFEFE"></path>
                    <path d="M158.636254,11.3988738 L158.640099,11.6259972 C159.120775,11.6259972 159.339002,11.8165181 159.367843,12.2585641 C159.400529,12.7794463 159.225563,13.4167058 158.849674,14.1506335 C158.518969,14.7991553 158.09982,15.3050211 157.611453,15.6494603 C157.138468,15.991084 156.710666,16.1609573 156.345352,16.1609573 C155.944469,16.1609573 155.843527,16.0032848 155.812763,15.9526044 C155.658947,15.7048334 155.624338,15.3500704 155.706053,14.8995777 C155.789691,14.4181136 155.940623,13.9629282 156.154043,13.5537306 C156.333816,13.1952135 156.618376,12.7240732 156.989458,12.149695 C157.486477,11.9328954 157.846984,11.7893008 158.070979,11.7264195 C158.29209,11.6607227 158.483399,11.6259972 158.636254,11.6259972 L158.636254,11.3988738 Z M163.766027,7 L163.337265,7 C162.808521,7 162.175951,7.10417644 161.45686,7.30689817 C160.742576,7.51055842 159.890818,7.90755514 158.925621,8.48756452 C157.964269,9.06757391 157.100975,9.743313 156.359773,10.4950727 C155.617609,11.2505866 155.019648,12.060535 154.588001,12.9005162 C153.891982,14.2557485 153.813152,15.3857344 154.355354,16.2641952 C154.652412,16.7531675 155.185001,17 155.944469,17 C156.975038,17 158.023873,16.5954951 159.051558,15.7977475 C159.894663,15.1529798 160.530117,14.4218677 160.938692,13.6241201 C161.379952,12.7663069 161.472242,12.042703 161.212677,11.4739559 C161.024252,11.0656969 160.605103,10.5795401 159.641828,10.5795401 C159.147693,10.5795401 158.598761,10.6855936 158.003684,10.8967621 C158.281515,10.5804786 158.563191,10.2951666 158.839099,10.0389489 C159.31593,9.60065697 159.845635,9.19990615 160.407064,8.8442046 C160.971378,8.48944158 161.500121,8.22290005 161.976952,8.05021117 C162.450898,7.87939934 163.016173,7.76489911 163.655472,7.7114031 C163.737187,7.70483341 163.809288,7.65790709 163.84582,7.58470202 L163.974641,7.33317691 C164.012134,7.26278742 164.007327,7.17550446 163.965027,7.10886908 C163.922728,7.04129517 163.84582,7 163.766027,7 L163.766027,7 Z" id="Fill-23" fill="#FEFEFE"></path>
                    <g transform="translate(167, 7)">
                        <mask id="mask-4" fill="white">
                            <use xlink:href="#path-3"></use>
                        </mask>
                        <g id="Clip-26"></g>
                        <path d="M7.63899869,0.664109999 L7.63899869,0.894210083 C8.01322634,0.895145449 8.14502374,1.05883453 8.21332751,1.18230287 C8.33550466,1.40492003 8.35570718,1.74632869 8.26431482,2.19811056 C8.17292246,2.68075952 8.01611242,3.13628285 7.79965683,3.55252081 C7.62841642,3.88457581 7.35520137,4.33448695 6.98578384,4.88635301 C6.69236627,5.04723599 6.38067023,5.17257506 6.06512609,5.25956412 C5.73515157,5.35123001 5.4686707,5.39799832 5.26664549,5.39799832 C4.81256977,5.39799832 4.6894306,5.17631653 4.63459518,4.98456646 C4.49510158,4.50565897 4.65960783,3.80974652 5.12234176,2.91460107 C5.4686707,2.24207277 5.88618947,1.7294921 6.36623985,1.39088953 C6.83185987,1.06164063 7.25899889,0.894210083 7.63899869,0.894210083 L7.63899869,0.664109999 Z M9.83049123,1.07660649 C9.54092176,0.364792816 8.930036,0.000935366196 8.02380862,0 C7.01560661,0 5.984316,0.401272098 4.96168362,1.1897858 C4.12279798,1.83518848 3.48305147,2.58067533 3.05687448,3.40660369 C2.60279876,4.29052474 2.50563426,5.02291647 2.76922906,5.58507156 C3.19829213,6.50266579 4.26132955,6.75521467 5.99874637,6.13039005 C5.53793649,6.63548779 5.02421523,7.11158919 4.45758261,7.5512113 C3.63793747,8.19100178 2.89236823,8.64371902 2.24203946,8.89626789 C1.59748283,9.1478814 0.964470498,9.2807034 0.361280936,9.29099242 C0.274698703,9.29099242 0.194850643,9.34056683 0.155407625,9.41633149 L0.0245722498,9.66888037 C-0.0119846933,9.73809747 -0.00717456919,9.82415116 0.0351545228,9.89056216 C0.07652159,9.95790852 0.155407625,9.99906463 0.233331635,9.99906463 L0.647002308,10 L0.654698506,10 C1.59844485,10 2.60857091,9.74932186 3.65621594,9.25918997 C4.9299368,8.66990927 6.08436658,7.92068095 7.0810243,7.03114769 C8.08537821,6.13787298 8.86558033,5.15854457 9.40142816,4.12028809 C10.0123139,2.93517912 10.1566176,1.9118885 9.83049123,1.07660649 L9.83049123,1.07660649 Z" id="Fill-25" fill="#FEFEFE" mask="url(#mask-4)"></path>
                    </g>
                </g>
            </g>
        </g>
    </g>
</svg>