<?xml version="1.0" encoding="UTF-8"?>
<svg width="45px" height="46px" viewBox="0 0 45 46" version="1.1" xmlns="http://www.w3.org/2000/svg" xmlns:xlink="http://www.w3.org/1999/xlink">
    <title>btn-line</title>
    <g id="元素" stroke="none" stroke-width="1" fill="none" fill-rule="evenodd">
        <g id="icon-nomor" transform="translate(-542, -247)">
            <g id="btn-line" transform="translate(542, 247.7125)">
                <rect id="矩形" fill="#06C755" transform="translate(22.5, 22.5) rotate(-90) translate(-22.5, -22.5)" x="0" y="0" width="45" height="45" rx="22.5"></rect>
                <path d="M22.9825218,9 C15.2921348,9 9,14.0706434 9,20.2795944 C9,25.8331562 13.9637953,30.4898695 20.710362,31.386718 C21.164794,31.4902005 21.7940075,31.6971655 21.9338327,32.0766014 C22.0736579,32.4215431 22.0387016,32.9734499 21.968789,33.3183916 L21.7940075,34.4911935 C21.7240949,34.8361352 21.5143571,35.8709604 23.0174782,35.2500653 C24.5205993,34.6291702 31.0923845,30.5243636 34.0287141,27.1784289 C36.0212235,25.005296 37,22.7631748 37,20.2795944 C36.9650437,14.0361492 30.7078652,9 22.9825218,9 Z M17.494382,23.9704709 L14.6978777,23.9704709 C14.3133583,23.9704709 13.9637953,23.6255291 13.9637953,23.2460932 L13.9637953,17.7270256 C13.9637953,17.3130956 14.3133583,17.002648 14.6978777,17.002648 C15.1173533,17.002648 15.43196,17.3475897 15.43196,17.7270256 L15.43196,22.5217156 L17.494382,22.5217156 C17.9138577,22.5217156 18.2284644,22.8666573 18.2284644,23.2460932 C18.2284644,23.6255291 17.9138577,23.9704709 17.494382,23.9704709 Z M20.3957553,23.2115991 C20.3957553,23.6255291 20.0811486,23.9359767 19.6616729,23.9359767 C19.2421973,23.9359767 18.9275905,23.591035 18.9275905,23.2115991 L18.9275905,17.6925315 C18.9275905,17.2786014 19.2421973,16.9681538 19.6616729,16.9681538 C20.0811486,16.9681538 20.3957553,17.3130956 20.3957553,17.6925315 L20.3957553,23.2115991 Z M27.0724095,23.2115991 C27.0724095,23.5220466 26.8626717,23.798 26.5830212,23.9014825 C26.5131086,23.9359767 26.443196,23.9359767 26.3383271,23.9359767 C26.093633,23.9359767 25.8838951,23.8324942 25.7440699,23.6600233 L22.9126092,19.8311702 L22.9126092,23.2460932 C22.9126092,23.6600233 22.5980025,23.9704709 22.1785268,23.9704709 C21.7590512,23.9704709 21.4444444,23.6255291 21.4444444,23.2460932 L21.4444444,17.7270256 C21.4444444,17.4165781 21.6541823,17.1406247 21.9338327,17.0371422 C22.0037453,17.002648 22.1086142,17.002648 22.1435705,17.002648 C22.3882647,17.002648 22.5980025,17.1061305 22.7378277,17.3130956 L25.6042447,21.1764429 L25.6042447,17.7615198 C25.6042447,17.3475897 25.9188514,17.0371422 26.3383271,17.0371422 C26.7578027,17.0371422 27.0724095,17.3820839 27.0724095,17.7615198 L27.0724095,23.2115991 Z M31.5817728,19.7276877 C32.0012484,19.7276877 32.3158552,20.0726294 32.3158552,20.4520653 C32.3158552,20.8659953 32.0012484,21.1764429 31.5817728,21.1764429 L29.5193508,21.1764429 L29.5193508,22.4872215 L31.5468165,22.4872215 C31.9662921,22.4872215 32.2808989,22.8321632 32.2808989,23.2115991 C32.2808989,23.6255291 31.9662921,23.9359767 31.5468165,23.9359767 L28.7503121,23.9359767 C28.3308365,23.9359767 28.0162297,23.591035 28.0162297,23.2115991 L28.0162297,17.6925315 C28.0162297,17.2786014 28.3308365,16.9681538 28.7503121,16.9681538 L31.5468165,16.9681538 C31.9662921,16.9681538 32.2808989,17.3130956 32.2808989,17.6925315 C32.2808989,18.1064615 31.9662921,18.4169091 31.5468165,18.4169091 L29.5193508,18.4169091 L29.5193508,19.7276877 L31.5817728,19.7276877 Z" id="_x30_9.Line拷貝" fill="#FFFFFF" fill-rule="nonzero"></path>
            </g>
        </g>
    </g>
</svg>