<?xml version="1.0" encoding="UTF-8"?>
<svg width="45px" height="45px" viewBox="0 0 45 45" version="1.1" xmlns="http://www.w3.org/2000/svg" xmlns:xlink="http://www.w3.org/1999/xlink">
    <title>btn-up</title>
    <defs>
        <path d="M45,22.5 C45,19.3945312 44.4140625,16.472168 43.2421875,13.7329102 C42.0703125,10.9936523 40.4663086,8.60595703 38.4301758,6.56982422 C36.394043,4.53369141 34.0063477,2.9296875 31.2670898,1.7578125 C28.527832,0.5859375 25.6054688,0 22.5,0 C19.3945312,0 16.472168,0.5859375 13.7329102,1.7578125 C10.9936523,2.9296875 8.60595703,4.53369141 6.56982422,6.56982422 C4.53369141,8.60595703 2.9296875,10.9936523 1.7578125,13.7329102 C0.5859375,16.472168 0,19.3945312 0,22.5 C0,25.6054688 0.5859375,28.527832 1.7578125,31.2670898 C2.9296875,34.0063477 4.53369141,36.394043 6.56982422,38.4301758 C8.60595703,40.4663086 10.9936523,42.0703125 13.7329102,43.2421875 C16.472168,44.4140625 19.3945312,45 22.5,45 C25.6054688,45 28.527832,44.4140625 31.2670898,43.2421875 C34.0063477,42.0703125 36.394043,40.4663086 38.4301758,38.4301758 C40.4663086,36.394043 42.0703125,34.0063477 43.2421875,31.2670898 C44.4140625,28.527832 45,25.6054688 45,22.5 Z M2.76855469,22.5 C2.76855469,19.7753906 3.28857422,17.2192383 4.32861328,14.831543 C5.36865234,12.4438477 6.78222656,10.3637695 8.56933594,8.59130859 C10.3564453,6.81884766 12.4438477,5.41259766 14.831543,4.37255859 C17.2192383,3.33251953 19.7753906,2.8125 22.5,2.8125 C25.2246094,2.8125 27.7807617,3.33251953 30.168457,4.37255859 C32.5561523,5.41259766 34.6362305,6.81884766 36.4086914,8.59130859 C38.1811523,10.3637695 39.5874023,12.4438477 40.6274414,14.831543 C41.6674805,17.2192383 42.1875,19.7753906 42.1875,22.5 C42.1875,25.2246094 41.6674805,27.7807617 40.6274414,30.168457 C39.5874023,32.5561523 38.1811523,34.6362305 36.4086914,36.4086914 C34.6362305,38.1811523 32.5561523,39.5874023 30.168457,40.6274414 C27.7807617,41.6674805 25.2246094,42.1875 22.5,42.1875 C19.7753906,42.1875 17.2192383,41.6674805 14.831543,40.6274414 C12.4438477,39.5874023 10.3564453,38.1811523 8.56933594,36.4086914 C6.78222656,34.6362305 5.36865234,32.5561523 4.32861328,30.168457 C3.28857422,27.7807617 2.76855469,25.2246094 2.76855469,22.5 Z M23.90625,32.34375 L23.90625,16.5234375 L29.0039062,21.6210938 C29.2675781,21.8847656 29.597168,22.0166016 29.9926758,22.0166016 C30.3881836,22.0166016 30.7177734,21.8847656 30.9814453,21.6210938 C31.2744141,21.328125 31.4208984,20.9912109 31.4208984,20.6103516 C31.4208984,20.2294922 31.2744141,19.8925781 30.9814453,19.5996094 L22.4560547,11.2939453 L13.9306641,19.5996094 C13.8134766,19.7460938 13.7182617,19.9072266 13.6450195,20.0830078 C13.5717773,20.2587891 13.5351562,20.4345703 13.5351562,20.6103516 C13.5351562,20.7861328 13.5717773,20.9619141 13.6450195,21.1376953 C13.7182617,21.3134766 13.8134766,21.4746094 13.9306641,21.6210938 C14.2236328,21.8847656 14.5605469,22.0166016 14.9414062,22.0166016 C15.3222656,22.0166016 15.6591797,21.8847656 15.9521484,21.6210938 L21.09375,16.4355469 L21.09375,32.34375 C21.09375,32.7539062 21.2329102,33.0908203 21.5112305,33.3544922 C21.7895508,33.6181641 22.1191406,33.75 22.5,33.75 C22.9101562,33.75 23.2470703,33.6181641 23.5107422,33.3544922 C23.7744141,33.0908203 23.90625,32.7539062 23.90625,32.34375 Z" id="path-1"></path>
    </defs>
    <g id="元素" stroke="none" stroke-width="1" fill="none" fill-rule="evenodd">
        <g id="icon-nomor" transform="translate(-611, -248)">
            <g id="btn-up" transform="translate(611, 248)">
                <circle id="橢圓形" fill="#FFFFFF" cx="23" cy="22.7125" r="21"></circle>
                <g id="形狀" fill-rule="nonzero" transform="translate(22.5, 22.5) rotate(-360) translate(-22.5, -22.5)">
                    <use fill="#FFFFFF" xlink:href="#path-1"></use>
                    <use fill="#B3B7C6" xlink:href="#path-1"></use>
                </g>
            </g>
        </g>
    </g>
</svg>