<?xml version="1.0" encoding="UTF-8"?>
<svg width="52px" height="52px" viewBox="0 0 52 52" version="1.1" xmlns="http://www.w3.org/2000/svg" xmlns:xlink="http://www.w3.org/1999/xlink">
    <title>btn-book-hover</title>
    <g id="元素" stroke="none" stroke-width="1" fill="none" fill-rule="evenodd">
        <g id="icon-hover" transform="translate(-60, -233)">
            <g id="btn-book-hover" transform="translate(61, 234)">
                <rect id="矩形" stroke="#004B8D" fill="#004B8D" x="0" y="0" width="50" height="50" rx="5"></rect>
                <g id="book" transform="translate(9, 13)" fill="#FFFFFF" fill-rule="nonzero">
                    <path d="M31.3333432,3.01413451 L29.4291125,3.01413451 L29.4291125,1.55680192 C29.4291125,1.28520905 29.2697947,1.03985272 29.0241486,0.93318504 C25.0025412,-0.812818262 20.0546153,-0.0728241195 15.9999661,2.85203268 C11.9453847,-0.0728241195 6.9973234,-0.812611675 2.97585138,0.93318504 C2.73020535,1.03985272 2.57088751,1.28520905 2.57088751,1.55680192 L2.57088751,3.01413451 L0.666656793,3.01413451 C0.298526285,3.01413451 0,3.31767947 0,3.69215259 L0,22.433093 C0,22.8075661 0.298526285,23.1111111 0.666656793,23.1111111 L16.0000339,23.1111111 L31.3333432,23.1111111 C31.7015414,23.1111111 32,22.8074973 32,22.433093 L32,3.69222146 C32,3.31774834 31.7015414,3.01413451 31.3333432,3.01413451 Z M1.33331359,21.7550749 L1.33331359,4.37023954 L2.57088751,4.37023954 L2.57088751,20.2977424 C2.57088751,20.5255388 2.68335114,20.737979 2.87015859,20.8635149 C3.05703374,20.988982 3.29326831,21.0106048 3.49923722,20.9212904 C6.6219481,19.5655296 10.3930345,19.9046076 13.740131,21.7550749 L1.33331359,21.7550749 Z M15.3333771,21.1366916 C12.9002084,19.5597452 10.1935656,18.7409726 7.580902,18.7409726 C6.31956243,18.7409726 5.0802958,18.93179 3.9042688,19.320311 L3.9042688,3.70007176 C3.9042688,3.69738613 3.90467505,3.69483822 3.90467505,3.69222146 C3.90467505,3.68960469 3.9042688,3.68698792 3.9042688,3.68437115 L3.9042688,2.01542475 C7.46011024,0.659939483 11.7717804,1.41797554 15.3333771,4.03412271 L15.3333771,21.1366916 Z M16.6666906,4.03412271 C20.2282196,1.41790668 24.5401606,0.659939483 28.0957989,2.01542475 L28.0957989,3.68430229 C28.0957989,3.68691906 28.0953927,3.68953583 28.0953927,3.69215259 C28.0953927,3.69476936 28.0957989,3.69738613 28.0957989,3.70000289 L28.0957989,19.3201733 C24.4836918,18.1268587 20.2744644,18.7984726 16.6666906,21.1366227 L16.6666906,4.03412271 Z M30.6666864,21.7550749 L18.2598013,21.7550749 C21.6069655,19.9046076 25.3779842,19.5655985 28.5007628,20.9212904 C28.7067317,21.0108113 28.9431694,20.9890509 29.1298414,20.8635149 C29.3167166,20.737979 29.4291125,20.5254699 29.4291125,20.2977424 L29.4291125,4.37023954 L30.6666864,4.37023954 L30.6666864,21.7550749 Z" id="形狀"></path>
                </g>
            </g>
        </g>
    </g>
</svg>