<?xml version="1.0" encoding="UTF-8"?>
<svg width="13px" height="15px" viewBox="0 0 13 15" version="1.1" xmlns="http://www.w3.org/2000/svg" xmlns:xlink="http://www.w3.org/1999/xlink">
    <title>content_copy - material</title>
    <g id="page-v3" stroke="none" stroke-width="1" fill="none" fill-rule="evenodd">
        <g id="332_網路訂單查詢-list" transform="translate(-1520, -717)" fill="#000000" fill-rule="nonzero">
            <g id="content_copy---material" transform="translate(1520.344, 717.056)">
                <path d="M11.312,13.344 L11.312,4 L4,4 L4,13.344 L11.312,13.344 Z M11.312,2.688 C11.6746667,2.688 11.9893333,2.816 12.256,3.072 C12.5226667,3.328 12.656,3.63733333 12.656,4 L12.656,13.344 C12.656,13.7066667 12.5226667,14.0213333 12.256,14.288 C11.9893333,14.5546667 11.6746667,14.688 11.312,14.688 L4,14.688 C3.63733333,14.688 3.32266667,14.5546667 3.056,14.288 C2.78933333,14.0213333 2.656,13.7066667 2.656,13.344 L2.656,4 C2.656,3.63733333 2.78933333,3.328 3.056,3.072 C3.32266667,2.816 3.63733333,2.688 4,2.688 L11.312,2.688 Z M9.312,0 L9.312,1.344 L1.312,1.344 L1.312,10.688 L0,10.688 L0,1.344 C0,0.981333333 0.128,0.666666667 0.384,0.4 C0.64,0.133333333 0.949333333,0 1.312,0 L9.312,0 Z" id="形狀"></path>
            </g>
        </g>
    </g>
</svg>