<?xml version="1.0" encoding="UTF-8"?>
<svg width="26px" height="27px" viewBox="0 0 26 27" version="1.1" xmlns="http://www.w3.org/2000/svg" xmlns:xlink="http://www.w3.org/1999/xlink">
    <title>icon-pinterest</title>
    <g id="元素" stroke="none" stroke-width="1" fill="none" fill-rule="evenodd">
        <g id="icon-export" transform="translate(-325, -104)" fill="#000000" fill-rule="nonzero">
            <g id="icon-pinterest" transform="translate(325, 104.4286)">
                <path d="M20.8928571,0 C22.2209821,0 23.3565848,0.471540179 24.2996652,1.41462054 C25.2427455,2.35770089 25.7142857,3.49330357 25.7142857,4.82142857 L25.7142857,20.8928571 C25.7142857,22.2209821 25.2427455,23.3565848 24.2996652,24.2996652 C23.3565848,25.2427455 22.2209821,25.7142857 20.8928571,25.7142857 L8.75558036,25.7142857 C9.70424107,24.3526786 10.3069196,23.1808036 10.5636161,22.1986607 C10.6640625,21.8191964 10.9598214,20.6529018 11.4508929,18.6997768 C11.6852679,19.1350446 12.0954241,19.5089286 12.6813616,19.8214286 C13.2672991,20.1339286 13.8950893,20.2901786 14.5647321,20.2901786 C16.5848214,20.2901786 18.233817,19.4670759 19.5117188,17.8208705 C20.7896205,16.1746652 21.4285714,14.0904018 21.4285714,11.5680804 C21.4285714,10.6305804 21.2332589,9.72377232 20.8426339,8.84765625 C20.4520089,7.97154018 19.9135045,7.19587054 19.2271205,6.52064732 C18.5407366,5.84542411 17.6897321,5.30412946 16.6741071,4.89676339 C15.6584821,4.48939732 14.5591518,4.28571429 13.3761161,4.28571429 C12.2154018,4.28571429 11.1300223,4.44475446 10.1199777,4.76283482 C9.10993304,5.08091518 8.25613839,5.5078125 7.55859375,6.04352679 C6.86104911,6.57924107 6.26116071,7.19029018 5.75892857,7.87667411 C5.25669643,8.56305804 4.88560268,9.27734375 4.64564732,10.0195312 C4.40569196,10.7617188 4.28571429,11.5011161 4.28571429,12.2377232 C4.28571429,13.3761161 4.50613839,14.3805804 4.94698661,15.2511161 C5.38783482,16.1216518 6.03794643,16.7354911 6.89732143,17.0926339 C7.04241071,17.1484375 7.17354911,17.1484375 7.29073661,17.0926339 C7.40792411,17.0368304 7.48883929,16.9308036 7.53348214,16.7745536 C7.64508929,16.2834821 7.72879464,15.9430804 7.78459821,15.7533482 C7.8515625,15.4966518 7.79017857,15.2622768 7.60044643,15.0502232 C7.04241071,14.3582589 6.76339286,13.5212054 6.76339286,12.5390625 C6.76339286,10.8649554 7.34095982,9.43359375 8.49609375,8.24497768 C9.65122768,7.05636161 11.1607143,6.46205357 13.0245536,6.46205357 C14.6875,6.46205357 15.984933,6.9140625 16.9168527,7.81808036 C17.8487723,8.72209821 18.3147321,9.89397321 18.3147321,11.3337054 C18.3147321,13.2087054 17.938058,14.8046875 17.1847098,16.1216518 C16.4313616,17.4386161 15.4631696,18.0970982 14.2801339,18.0970982 C13.6104911,18.0970982 13.0691964,17.8543527 12.65625,17.3688616 C12.2433036,16.8833705 12.1149554,16.3058036 12.2712054,15.6361607 C12.3604911,15.2566964 12.5083705,14.7405134 12.7148438,14.0876116 C12.921317,13.4347098 13.0859375,12.8655134 13.2087054,12.3800223 C13.3314732,11.8945312 13.3928571,11.4787946 13.3928571,11.1328125 C13.3928571,10.5859375 13.2449777,10.1311384 12.9492188,9.76841518 C12.6534598,9.40569196 12.2321429,9.22433036 11.6852679,9.22433036 C11.0044643,9.22433036 10.4268973,9.53962054 9.95256696,10.1702009 C9.47823661,10.8007812 9.24107143,11.5792411 9.24107143,12.5055804 C9.24107143,13.3091518 9.375,13.984375 9.64285714,14.53125 L8.00223214,21.4620536 C7.734375,22.578125 7.6953125,23.9955357 7.88504464,25.7142857 L4.82142857,25.7142857 C3.49330357,25.7142857 2.35770089,25.2427455 1.41462054,24.2996652 C0.471540179,23.3565848 0,22.2209821 0,20.8928571 L0,4.82142857 C0,3.49330357 0.471540179,2.35770089 1.41462054,1.41462054 C2.35770089,0.471540179 3.49330357,0 4.82142857,0 L20.8928571,0 Z" id="路徑"></path>
            </g>
        </g>
    </g>
</svg>