<?xml version="1.0" encoding="UTF-8"?>
<svg width="26px" height="27px" viewBox="0 0 26 27" version="1.1" xmlns="http://www.w3.org/2000/svg" xmlns:xlink="http://www.w3.org/1999/xlink">
    <title>icon-ig</title>
    <g id="元素" stroke="none" stroke-width="1" fill="none" fill-rule="evenodd">
        <g id="icon-export" transform="translate(-111, -104)" fill="#000000" fill-rule="nonzero">
            <g id="icon-ig" transform="translate(111, 104.4286)">
                <path d="M15.8872768,15.8872768 C16.7243304,15.0502232 17.1428571,14.0401786 17.1428571,12.8571429 C17.1428571,11.6741071 16.7243304,10.6640625 15.8872768,9.82700893 C15.0502232,8.98995536 14.0401786,8.57142857 12.8571429,8.57142857 C11.6741071,8.57142857 10.6640625,8.98995536 9.82700893,9.82700893 C8.98995536,10.6640625 8.57142857,11.6741071 8.57142857,12.8571429 C8.57142857,14.0401786 8.98995536,15.0502232 9.82700893,15.8872768 C10.6640625,16.7243304 11.6741071,17.1428571 12.8571429,17.1428571 C14.0401786,17.1428571 15.0502232,16.7243304 15.8872768,15.8872768 Z M17.5279018,8.18638393 C18.8113839,9.46986607 19.453125,11.0267857 19.453125,12.8571429 C19.453125,14.6875 18.8113839,16.2444196 17.5279018,17.5279018 C16.2444196,18.8113839 14.6875,19.453125 12.8571429,19.453125 C11.0267857,19.453125 9.46986607,18.8113839 8.18638393,17.5279018 C6.90290179,16.2444196 6.26116071,14.6875 6.26116071,12.8571429 C6.26116071,11.0267857 6.90290179,9.46986607 8.18638393,8.18638393 C9.46986607,6.90290179 11.0267857,6.26116071 12.8571429,6.26116071 C14.6875,6.26116071 16.2444196,6.90290179 17.5279018,8.18638393 Z M20.8091518,4.90513393 C21.1104911,5.20647321 21.2611607,5.56919643 21.2611607,5.99330357 C21.2611607,6.41741071 21.1104911,6.78013393 20.8091518,7.08147321 C20.5078125,7.3828125 20.1450893,7.53348214 19.7209821,7.53348214 C19.296875,7.53348214 18.9341518,7.3828125 18.6328125,7.08147321 C18.3314732,6.78013393 18.1808036,6.41741071 18.1808036,5.99330357 C18.1808036,5.56919643 18.3314732,5.20647321 18.6328125,4.90513393 C18.9341518,4.60379464 19.296875,4.453125 19.7209821,4.453125 C20.1450893,4.453125 20.5078125,4.60379464 20.8091518,4.90513393 Z M14.1294643,2.31026786 C13.359375,2.31026786 12.9352679,2.31026786 12.8571429,2.31026786 C12.7790179,2.31026786 12.3521205,2.30747768 11.5764509,2.30189732 C10.8007812,2.29631696 10.2120536,2.29631696 9.81026786,2.30189732 C9.40848214,2.30747768 8.86997768,2.32421875 8.19475446,2.35212054 C7.51953125,2.38002232 6.94475446,2.43582589 6.47042411,2.51953125 C5.99609375,2.60323661 5.59709821,2.70647321 5.2734375,2.82924107 C4.71540179,3.05245536 4.22433036,3.37611607 3.80022321,3.80022321 C3.37611607,4.22433036 3.05245536,4.71540179 2.82924107,5.2734375 C2.70647321,5.59709821 2.60323661,5.99609375 2.51953125,6.47042411 C2.43582589,6.94475446 2.38002232,7.51953125 2.35212054,8.19475446 C2.32421875,8.86997768 2.30747768,9.40848214 2.30189732,9.81026786 C2.29631696,10.2120536 2.29631696,10.8007812 2.30189732,11.5764509 C2.30747768,12.3521205 2.31026786,12.7790179 2.31026786,12.8571429 C2.31026786,12.9352679 2.30747768,13.3621652 2.30189732,14.1378348 C2.29631696,14.9135045 2.29631696,15.5022321 2.30189732,15.9040179 C2.30747768,16.3058036 2.32421875,16.844308 2.35212054,17.5195312 C2.38002232,18.1947545 2.43582589,18.7695312 2.51953125,19.2438616 C2.60323661,19.718192 2.70647321,20.1171875 2.82924107,20.4408482 C3.05245536,20.9988839 3.37611607,21.4899554 3.80022321,21.9140625 C4.22433036,22.3381696 4.71540179,22.6618304 5.2734375,22.8850446 C5.59709821,23.0078125 5.99609375,23.1110491 6.47042411,23.1947545 C6.94475446,23.2784598 7.51953125,23.3342634 8.19475446,23.3621652 C8.86997768,23.390067 9.40848214,23.406808 9.81026786,23.4123884 C10.2120536,23.4179688 10.8007812,23.4179688 11.5764509,23.4123884 C12.3521205,23.406808 12.7790179,23.4040179 12.8571429,23.4040179 C12.9352679,23.4040179 13.3621652,23.406808 14.1378348,23.4123884 C14.9135045,23.4179688 15.5022321,23.4179688 15.9040179,23.4123884 C16.3058036,23.406808 16.844308,23.390067 17.5195312,23.3621652 C18.1947545,23.3342634 18.7695312,23.2784598 19.2438616,23.1947545 C19.718192,23.1110491 20.1171875,23.0078125 20.4408482,22.8850446 C20.9988839,22.6618304 21.4899554,22.3381696 21.9140625,21.9140625 C22.3381696,21.4899554 22.6618304,20.9988839 22.8850446,20.4408482 C23.0078125,20.1171875 23.1110491,19.718192 23.1947545,19.2438616 C23.2784598,18.7695312 23.3342634,18.1947545 23.3621652,17.5195312 C23.390067,16.844308 23.406808,16.3058036 23.4123884,15.9040179 C23.4179687,15.5022321 23.4179687,14.9135045 23.4123884,14.1378348 C23.406808,13.3621652 23.4040179,12.9352679 23.4040179,12.8571429 C23.4040179,12.7790179 23.406808,12.3521205 23.4123884,11.5764509 C23.4179687,10.8007812 23.4179687,10.2120536 23.4123884,9.81026786 C23.406808,9.40848214 23.390067,8.86997768 23.3621652,8.19475446 C23.3342634,7.51953125 23.2784598,6.94475446 23.1947545,6.47042411 C23.1110491,5.99609375 23.0078125,5.59709821 22.8850446,5.2734375 C22.6618304,4.71540179 22.3381696,4.22433036 21.9140625,3.80022321 C21.4899554,3.37611607 20.9988839,3.05245536 20.4408482,2.82924107 C20.1171875,2.70647321 19.718192,2.60323661 19.2438616,2.51953125 C18.7695312,2.43582589 18.1947545,2.38002232 17.5195312,2.35212054 C16.844308,2.32421875 16.3058036,2.30747768 15.9040179,2.30189732 C15.5022321,2.29631696 14.9107143,2.29910714 14.1294643,2.31026786 Z M25.6305804,7.55022321 C25.6863839,8.53236607 25.7142857,10.3013393 25.7142857,12.8571429 C25.7142857,15.4129464 25.6863839,17.1819196 25.6305804,18.1640625 C25.5189732,20.4854911 24.8270089,22.2823661 23.5546875,23.5546875 C22.2823661,24.8270089 20.4854911,25.5189732 18.1640625,25.6305804 C17.1819196,25.6863839 15.4129464,25.7142857 12.8571429,25.7142857 C10.3013393,25.7142857 8.53236607,25.6863839 7.55022321,25.6305804 C5.22879464,25.5189732 3.43191964,24.8270089 2.15959821,23.5546875 C0.887276786,22.2823661 0.1953125,20.4854911 0.0837053571,18.1640625 C0.0279017857,17.1819196 0,15.4129464 0,12.8571429 C0,10.3013393 0.0279017857,8.53236607 0.0837053571,7.55022321 C0.1953125,5.22879464 0.887276786,3.43191964 2.15959821,2.15959821 C3.43191964,0.887276786 5.22879464,0.1953125 7.55022321,0.0837053571 C8.53236607,0.0279017857 10.3013393,0 12.8571429,0 C15.4129464,0 17.1819196,0.0279017857 18.1640625,0.0837053571 C20.4854911,0.1953125 22.2823661,0.887276786 23.5546875,2.15959821 C24.8270089,3.43191964 25.5189732,5.22879464 25.6305804,7.55022321 Z" id="形狀"></path>
            </g>
        </g>
    </g>
</svg>