<?xml version="1.0" encoding="UTF-8"?>
<svg width="26px" height="27px" viewBox="0 0 26 27" version="1.1" xmlns="http://www.w3.org/2000/svg" xmlns:xlink="http://www.w3.org/1999/xlink">
    <title>icon-fb</title>
    <g id="元素" stroke="none" stroke-width="1" fill="none" fill-rule="evenodd">
        <g id="icon-export" transform="translate(-61, -104)" fill="#000000" fill-rule="nonzero">
            <g id="icon-fb" transform="translate(61, 104.4286)">
                <path d="M24.2912946,0 C24.6819196,0 25.0167411,0.139508929 25.2957589,0.418526786 C25.5747768,0.697544643 25.7142857,1.03236607 25.7142857,1.42299107 L25.7142857,24.2912946 C25.7142857,24.6819196 25.5747768,25.0167411 25.2957589,25.2957589 C25.0167411,25.5747768 24.6819196,25.7142857 24.2912946,25.7142857 L17.7455357,25.7142857 L17.7455357,15.7533482 L21.0770089,15.7533482 L21.5792411,11.8694196 L17.7455357,11.8694196 L17.7455357,9.39174107 C17.7455357,8.76674107 17.8766741,8.29799107 18.1389509,7.98549107 C18.4012277,7.67299107 18.9118304,7.51674107 19.6707589,7.51674107 L21.7131696,7.5 L21.7131696,4.03459821 C21.0100446,3.93415179 20.0167411,3.88392857 18.7332589,3.88392857 C17.2154018,3.88392857 16.0016741,4.33035714 15.0920759,5.22321429 C14.1824777,6.11607143 13.7276786,7.37723214 13.7276786,9.00669643 L13.7276786,11.8694196 L10.3794643,11.8694196 L10.3794643,15.7533482 L13.7276786,15.7533482 L13.7276786,25.7142857 L1.42299107,25.7142857 C1.03236607,25.7142857 0.697544643,25.5747768 0.418526786,25.2957589 C0.139508929,25.0167411 0,24.6819196 0,24.2912946 L0,1.42299107 C0,1.03236607 0.139508929,0.697544643 0.418526786,0.418526786 C0.697544643,0.139508929 1.03236607,0 1.42299107,0 L24.2912946,0 Z" id="路徑"></path>
            </g>
        </g>
    </g>
</svg>