<?xml version="1.0" encoding="UTF-8"?>
<svg width="20px" height="18px" viewBox="0 0 20 18" version="1.1" xmlns="http://www.w3.org/2000/svg" xmlns:xlink="http://www.w3.org/1999/xlink">
    <title>icon-downlond</title>
    <g id="元素" stroke="none" stroke-width="1" fill="none" fill-rule="evenodd">
        <g id="icon-export" transform="translate(-64, -284)" fill="#000000" fill-rule="nonzero">
            <g id="icon-downlond" transform="translate(64, 284.5586)">
                <path d="M14.9023438,3.76953125 C14.6809896,3.19661458 14.4010417,2.67578125 14.0625,2.20703125 C13.7239583,1.73828125 13.3203125,1.34114583 12.8515625,1.015625 C12.3828125,0.690104167 11.8554688,0.439453125 11.2695312,0.263671875 C10.6835938,0.087890625 10.0390625,0 9.3359375,0 C8.42447917,0 7.59440104,0.15625 6.84570312,0.46875 C6.09700521,0.78125 5.44596354,1.21419271 4.89257812,1.76757812 C4.33919271,2.32096354 3.89648438,2.97200521 3.56445312,3.72070312 C3.23242188,4.46940104 3.04036458,5.27994792 2.98828125,6.15234375 C2.11588542,6.42578125 1.39973958,6.96614583 0.83984375,7.7734375 C0.279947917,8.58072917 0,9.48567708 0,10.4882812 C0,11.1002604 0.113932292,11.6796875 0.341796875,12.2265625 C0.569661458,12.7734375 0.875651042,13.2552083 1.25976562,13.671875 C1.64388021,14.0885417 2.08984375,14.4173177 2.59765625,14.6582031 C3.10546875,14.8990885 3.64583333,15.0195312 4.21875,15.0195312 L4.765625,15.0195312 C4.94791667,15.0195312 5.09765625,14.9576823 5.21484375,14.8339844 C5.33203125,14.7102865 5.390625,14.5638021 5.390625,14.3945312 C5.390625,14.2252604 5.33203125,14.078776 5.21484375,13.9550781 C5.09765625,13.8313802 4.94791667,13.7695312 4.765625,13.7695312 L4.21875,13.7695312 C3.41145833,13.7695312 2.71158854,13.4440104 2.11914062,12.7929688 C1.52669271,12.1419271 1.23046875,11.3736979 1.23046875,10.4882812 C1.23046875,9.70703125 1.47135417,9.00390625 1.953125,8.37890625 C2.43489583,7.75390625 3.02083333,7.3828125 3.7109375,7.265625 L4.27734375,7.16796875 L4.23828125,6.58203125 L4.21875,6.58203125 C4.21875,5.82682292 4.33919271,5.12044271 4.58007812,4.46289062 C4.82096354,3.80533854 5.16601562,3.23893229 5.61523438,2.76367188 C6.06445312,2.28841146 6.6015625,1.91731771 7.2265625,1.65039062 C7.8515625,1.38346354 8.5546875,1.25 9.3359375,1.25 C10.5729167,1.25 11.5527344,1.53971354 12.2753906,2.11914062 C12.9980469,2.69856771 13.5221354,3.50911458 13.8476562,4.55078125 L13.984375,4.98046875 L14.4335938,5 C15.0195312,5 15.5729167,5.11393229 16.09375,5.34179688 C16.6145833,5.56966146 17.0768229,5.87565104 17.4804688,6.25976562 C17.8841146,6.64388021 18.203125,7.09309896 18.4375,7.60742188 C18.671875,8.12174479 18.7890625,8.671875 18.7890625,9.2578125 C18.7890625,9.79166667 18.7044271,10.3255208 18.5351562,10.859375 C18.3658854,11.3932292 18.125,11.8782552 17.8125,12.3144531 C17.5,12.750651 17.125651,13.1022135 16.6894531,13.3691406 C16.2532552,13.6360677 15.7682292,13.7695312 15.234375,13.7695312 L15.0585938,13.7695312 C14.8893229,13.7695312 14.7428385,13.8313802 14.6191406,13.9550781 C14.4954427,14.078776 14.4335938,14.2252604 14.4335938,14.3945312 C14.4335938,14.5638021 14.4954427,14.7102865 14.6191406,14.8339844 C14.7428385,14.9576823 14.8893229,15.0195312 15.0585938,15.0195312 L15.0585938,15.0195312 C15.8398438,14.9934896 16.5364583,14.8046875 17.1484375,14.453125 C17.7604167,14.1015625 18.2779948,13.655599 18.7011719,13.1152344 C19.124349,12.5748698 19.4466146,11.9661458 19.6679688,11.2890625 C19.8893229,10.6119792 20,9.93489583 20,9.2578125 C20,8.54166667 19.8665365,7.86783854 19.5996094,7.23632812 C19.3326823,6.60481771 18.968099,6.04492188 18.5058594,5.55664062 C18.0436198,5.06835938 17.5032552,4.66796875 16.8847656,4.35546875 C16.266276,4.04296875 15.6054688,3.84765625 14.9023438,3.76953125 Z M12.6171875,13.828125 C12.5390625,13.7369792 12.438151,13.6914062 12.3144531,13.6914062 C12.1907552,13.6914062 12.0833333,13.7369792 11.9921875,13.828125 L10.625,15.3515625 L10.625,9.0625 C10.625,8.89322917 10.563151,8.74674479 10.4394531,8.62304688 C10.3157552,8.49934896 10.1692708,8.4375 10,8.4375 C9.81770833,8.4375 9.66796875,8.49934896 9.55078125,8.62304688 C9.43359375,8.74674479 9.375,8.89322917 9.375,9.0625 L9.375,15.3515625 L8.046875,13.8671875 C7.95572917,13.7760417 7.84830729,13.7239583 7.72460938,13.7109375 C7.60091146,13.6979167 7.49348958,13.7369792 7.40234375,13.828125 L7.24609375,13.9257812 C7.15494792,14.0169271 7.109375,14.1276042 7.109375,14.2578125 C7.109375,14.3880208 7.15494792,14.4986979 7.24609375,14.5898438 L9.51171875,17.0703125 C9.51171875,17.0833333 9.51171875,17.0898438 9.51171875,17.0898438 C9.51171875,17.0898438 9.51171875,17.0898438 9.51171875,17.0898438 L9.66796875,17.2460938 C9.70703125,17.2981771 9.75585938,17.3339844 9.81445312,17.3535156 C9.87304688,17.3730469 9.92838542,17.3828125 9.98046875,17.3828125 C10.0455729,17.3828125 10.1041667,17.3730469 10.15625,17.3535156 C10.2083333,17.3339844 10.2604167,17.2981771 10.3125,17.2460938 L10.46875,17.0898438 C10.46875,17.0898438 10.46875,17.0898438 10.46875,17.0898438 C10.46875,17.0898438 10.46875,17.0833333 10.46875,17.0703125 L12.7734375,14.5507812 C12.8645833,14.4596354 12.9101562,14.3619792 12.9101562,14.2578125 C12.9101562,14.1536458 12.8645833,14.0559896 12.7734375,13.9648438 L12.6171875,13.828125 Z" id="形狀"></path>
            </g>
        </g>
    </g>
</svg>