<?xml version="1.0" encoding="UTF-8"?>
<svg width="28px" height="23px" viewBox="0 0 28 23" version="1.1" xmlns="http://www.w3.org/2000/svg" xmlns:xlink="http://www.w3.org/1999/xlink">
    <title>icon-twitter</title>
    <g id="元素" stroke="none" stroke-width="1" fill="none" fill-rule="evenodd">
        <g id="icon-export" transform="translate(-270, -106)" fill="#000000" fill-rule="nonzero">
            <g id="icon-twitter" transform="translate(270, 106.5)">
                <path d="M27.65625,2.6953125 C26.953125,3.7890625 26.015625,4.765625 24.84375,5.625 L24.84375,6.328125 C24.84375,10.4296875 23.3691406,14.1503906 20.4199219,17.4902344 C17.4707031,20.8300781 13.5546875,22.5 8.671875,22.5 C5.546875,22.5 2.65625,21.640625 0,19.921875 C0.625,20 1.07421875,20.0390625 1.34765625,20.0390625 C3.96484375,20.0390625 6.30859375,19.21875 8.37890625,17.578125 C7.16796875,17.5390625 6.07421875,17.1582031 5.09765625,16.4355469 C4.12109375,15.7128906 3.45703125,14.7851562 3.10546875,13.6523438 C3.57421875,13.7304688 3.92578125,13.7695312 4.16015625,13.7695312 C4.55078125,13.7695312 5.05859375,13.6914062 5.68359375,13.5351562 C4.39453125,13.2617188 3.31054688,12.6074219 2.43164062,11.5722656 C1.55273438,10.5371094 1.11328125,9.3359375 1.11328125,7.96875 L1.11328125,7.91015625 C1.97265625,8.37890625 2.83203125,8.61328125 3.69140625,8.61328125 C2.01171875,7.51953125 1.171875,5.9375 1.171875,3.8671875 C1.171875,2.890625 1.42578125,1.953125 1.93359375,1.0546875 C4.94140625,4.765625 8.828125,6.73828125 13.59375,6.97265625 C13.515625,6.69921875 13.4765625,6.26953125 13.4765625,5.68359375 C13.4765625,4.08203125 14.0234375,2.734375 15.1171875,1.640625 C16.2109375,0.546875 17.5585938,0 19.1601562,0 C20.7617188,0 22.1289062,0.60546875 23.2617188,1.81640625 C24.4335938,1.62109375 25.6445312,1.15234375 26.8945312,0.41015625 C26.5039062,1.77734375 25.6640625,2.83203125 24.375,3.57421875 C25.5859375,3.45703125 26.6796875,3.1640625 27.65625,2.6953125 Z" id="路徑"></path>
            </g>
        </g>
    </g>
</svg>