<?xml version="1.0" encoding="UTF-8"?>
<svg width="22px" height="17px" viewBox="0 0 22 17" version="1.1" xmlns="http://www.w3.org/2000/svg" xmlns:xlink="http://www.w3.org/1999/xlink">
    <title>icon-menu</title>
    <g id="元素" stroke="none" stroke-width="1" fill="none" fill-rule="evenodd">
        <g id="icon-export" transform="translate(-542, -103)" fill="#000000" fill-rule="nonzero">
            <g id="icon-menu" transform="translate(542, 103)">
                <path d="M0.2578125,1.61132812 C0.171875,1.51106771 0.107421875,1.40722656 0.064453125,1.29980469 C0.021484375,1.19238281 0,1.06705729 0,0.923828125 C0,0.794921875 0.021484375,0.673177083 0.064453125,0.55859375 C0.107421875,0.444010417 0.171875,0.34375 0.2578125,0.2578125 C0.34375,0.171875 0.444010417,0.107421875 0.55859375,0.064453125 C0.673177083,0.021484375 0.794921875,0 0.923828125,0 L20.5390625,0 C20.6679688,0 20.7897135,0.021484375 20.9042969,0.064453125 C21.0188802,0.107421875 21.1191406,0.171875 21.2050781,0.2578125 C21.2910156,0.34375 21.3554688,0.444010417 21.3984375,0.55859375 C21.4414062,0.673177083 21.4628906,0.794921875 21.4628906,0.923828125 C21.4628906,1.06705729 21.4414062,1.19238281 21.3984375,1.29980469 C21.3554688,1.40722656 21.2910156,1.51106771 21.2050781,1.61132812 C21.1191406,1.69726562 21.0188802,1.76171875 20.9042969,1.8046875 C20.7897135,1.84765625 20.6679688,1.86914062 20.5390625,1.86914062 L0.923828125,1.86914062 C0.794921875,1.86914062 0.673177083,1.84765625 0.55859375,1.8046875 C0.444010417,1.76171875 0.34375,1.69726562 0.2578125,1.61132812 Z M21.2050781,7.734375 C21.2910156,7.8203125 21.3554688,7.92057292 21.3984375,8.03515625 C21.4414062,8.14973958 21.4628906,8.27148438 21.4628906,8.40039062 C21.4628906,8.52929688 21.4414062,8.65104167 21.3984375,8.765625 C21.3554688,8.88020833 21.2910156,8.98046875 21.2050781,9.06640625 C21.1191406,9.15234375 21.0188802,9.21679688 20.9042969,9.25976562 C20.7897135,9.30273438 20.6679688,9.32421875 20.5390625,9.32421875 L0.923828125,9.32421875 C0.794921875,9.32421875 0.673177083,9.30273438 0.55859375,9.25976562 C0.444010417,9.21679688 0.34375,9.15234375 0.2578125,9.06640625 C0.171875,8.98046875 0.107421875,8.88020833 0.064453125,8.765625 C0.021484375,8.65104167 0,8.52929688 0,8.40039062 C0,8.27148438 0.021484375,8.14973958 0.064453125,8.03515625 C0.107421875,7.92057292 0.171875,7.8203125 0.2578125,7.734375 C0.34375,7.6484375 0.444010417,7.58398438 0.55859375,7.54101562 C0.673177083,7.49804688 0.794921875,7.4765625 0.923828125,7.4765625 L20.5390625,7.4765625 C20.6679688,7.4765625 20.7897135,7.49804688 20.9042969,7.54101562 C21.0188802,7.58398438 21.1191406,7.6484375 21.2050781,7.734375 Z M21.2050781,15.1894531 C21.2910156,15.2753906 21.3554688,15.375651 21.3984375,15.4902344 C21.4414062,15.6048177 21.4628906,15.7265625 21.4628906,15.8554688 C21.4628906,15.9986979 21.4414062,16.1240234 21.3984375,16.2314453 C21.3554688,16.3388672 21.2910156,16.4427083 21.2050781,16.5429688 C21.1191406,16.6289062 21.0188802,16.6933594 20.9042969,16.7363281 C20.7897135,16.7792969 20.6679688,16.8007812 20.5390625,16.8007812 L0.923828125,16.8007812 C0.794921875,16.8007812 0.673177083,16.7792969 0.55859375,16.7363281 C0.444010417,16.6933594 0.34375,16.6289062 0.2578125,16.5429688 C0.171875,16.4427083 0.107421875,16.3388672 0.064453125,16.2314453 C0.021484375,16.1240234 0,15.9986979 0,15.8554688 C0,15.7265625 0.021484375,15.6048177 0.064453125,15.4902344 C0.107421875,15.375651 0.171875,15.2753906 0.2578125,15.1894531 C0.34375,15.1035156 0.444010417,15.0390625 0.55859375,14.9960938 C0.673177083,14.953125 0.794921875,14.9316406 0.923828125,14.9316406 L20.5390625,14.9316406 C20.6679688,14.9316406 20.7897135,14.953125 20.9042969,14.9960938 C21.0188802,15.0390625 21.1191406,15.1035156 21.2050781,15.1894531 Z" id="形狀"></path>
            </g>
        </g>
    </g>
</svg>