<?xml version="1.0" encoding="UTF-8"?>
<svg width="22px" height="20px" viewBox="0 0 22 20" version="1.1" xmlns="http://www.w3.org/2000/svg" xmlns:xlink="http://www.w3.org/1999/xlink">
    <title>icon-favorite</title>
    <g id="元素" stroke="none" stroke-width="1" fill="none" fill-rule="evenodd">
        <g id="icon-export" transform="translate(-728, -102)" fill="#000000" fill-rule="nonzero">
            <g id="icon-favorite" transform="translate(727.9992, 102.375)">
                <path d="M21.4852013,3.953125 C21.1557742,3.15104167 20.683118,2.44205729 20.0672326,1.82617188 C18.8641076,0.608723958 17.4246544,0 15.7488732,0 C14.8322065,0 13.9620893,0.200520833 13.1385216,0.6015625 C12.3149539,1.00260417 11.6023888,1.56835938 11.0008263,2.29882812 C10.3992638,1.56835938 9.68669872,1.00260417 8.86313101,0.6015625 C8.0395633,0.200520833 7.16944611,0 6.25277945,0 C4.5769982,0 3.13754507,0.615885417 1.93442007,1.84765625 C1.31853466,2.46354167 0.845878405,3.17252604 0.516451322,3.97460937 C0.158378405,4.81966146 -0.0134965946,5.69335937 0.000826322115,6.59570312 C0.0151492388,7.58398438 0.22283153,8.51855469 0.623873197,9.39941406 C1.02491486,10.2802734 1.59067007,11.0286458 2.32113882,11.6445312 C2.39275341,11.7018229 2.45720653,11.7591146 2.5144982,11.8164062 C2.71501903,11.9882812 3.52426382,12.71875 4.94223257,14.0078125 C7.92139924,16.7434896 9.76189403,18.4264323 10.4637169,19.0566406 C10.621269,19.1855469 10.8003055,19.25 11.0008263,19.25 C11.2013472,19.25 11.3803836,19.1855469 11.5379357,19.0566406 C12.0105919,18.6269531 13.3068159,17.4453125 15.4266076,15.5117188 C17.6896284,13.4492188 19.0932742,12.1673177 19.6375451,11.6660156 C20.3823367,11.0501302 20.9624149,10.2981771 21.3777794,9.41015625 C21.793144,8.52213542 22.0008263,7.57682292 22.0008263,6.57421875 C22.0008263,5.65755208 21.8289513,4.78385417 21.4852013,3.953125 Z M12.2039513,3.4375 C12.6336388,2.86458333 13.160006,2.42415365 13.7830529,2.11621094 C14.4060998,1.80826823 15.0613732,1.65429688 15.7488732,1.65429688 C16.9663211,1.65429688 18.0190555,2.09830729 18.9070763,2.98632812 C19.3654097,3.44466146 19.7163211,3.97460938 19.9598107,4.57617188 C20.2176232,5.20638021 20.3465294,5.87239583 20.3465294,6.57421875 C20.3465294,7.33333333 20.1889774,8.05664062 19.8738732,8.74414062 C19.558769,9.40299479 19.1290815,9.95442708 18.5848107,10.3984375 L18.5418419,10.4414062 C17.6538211,11.2291667 16.2430138,12.5182292 14.3094201,14.3085938 C12.7625451,15.7122396 11.6596805,16.7148438 11.0008263,17.3164062 C10.1700972,16.5572917 8.72348257,15.2395833 6.66098257,13.3632812 L5.62973257,12.4179688 C4.54119091,11.4296875 3.86801382,10.8209635 3.61020132,10.5917969 C3.59587841,10.563151 3.58155549,10.5416667 3.56723257,10.5273438 C3.48129507,10.4700521 3.42400341,10.4199219 3.39535757,10.3769531 C2.83676382,9.91861979 2.40707632,9.35644531 2.10629507,8.69042969 C1.80551382,8.02441406 1.6551232,7.32617188 1.6551232,6.59570312 C1.64080028,5.89388021 1.76970653,5.22786458 2.04184195,4.59765625 C2.28533153,3.99609375 2.63624299,3.46614583 3.09457632,3.0078125 C3.98259716,2.10546875 5.03533153,1.65429688 6.25277945,1.65429688 C6.94027945,1.65429688 7.59555288,1.81184896 8.21859976,2.12695312 C8.84164663,2.44205729 9.36801382,2.87890625 9.79770132,3.4375 C10.0984826,3.83854167 10.4995242,4.0390625 11.0008263,4.0390625 C11.5021284,4.0390625 11.9031701,3.83854167 12.2039513,3.4375 Z" id="形狀"></path>
            </g>
        </g>
    </g>
</svg>