<?xml version="1.0" encoding="UTF-8"?>
<svg width="20px" height="21px" viewBox="0 0 20 21" version="1.1" xmlns="http://www.w3.org/2000/svg" xmlns:xlink="http://www.w3.org/1999/xlink">
    <title>icon-user</title>
    <g id="元素" stroke="none" stroke-width="1" fill="none" fill-rule="evenodd">
        <g id="icon-export" transform="translate(-636, -101)" fill="#000000" fill-rule="nonzero">
            <g id="icon-user" transform="translate(636.016, 101.866)">
                <path d="M9.984,17.208 C11.2,17.208 12.344,16.904 13.416,16.296 C14.456,15.736 15.312,14.96 15.984,13.968 C15.968,13.36 15.592,12.8 14.856,12.288 C14.216,11.856 13.4,11.504 12.408,11.232 C11.512,10.992 10.7,10.872 9.972,10.872 C9.244,10.872 8.432,10.992 7.536,11.232 C6.544,11.504 5.736,11.856 5.112,12.288 C4.376,12.8 4,13.36 3.984,13.968 C4.656,14.96 5.512,15.736 6.552,16.296 C7.64,16.904 8.784,17.208 9.984,17.208 Z M9.984,3 C9.456,3 8.96,3.136 8.496,3.408 C8.032,3.68 7.664,4.048 7.392,4.512 C7.12,4.976 6.984,5.472 6.984,6 C6.984,6.528 7.12,7.024 7.392,7.488 C7.664,7.952 8.032,8.32 8.496,8.592 C8.96,8.864 9.456,9 9.984,9 C10.512,9 11.008,8.864 11.472,8.592 C11.936,8.32 12.304,7.952 12.576,7.488 C12.848,7.024 12.984,6.528 12.984,6 C12.984,5.472 12.848,4.976 12.576,4.512 C12.304,4.048 11.936,3.68 11.472,3.408 C11.008,3.136 10.512,3 9.984,3 Z M9.984,0 C11.808,0 13.496,0.456 15.048,1.368 C16.552,2.232 17.736,3.416 18.6,4.92 C19.512,6.472 19.968,8.16 19.968,9.984 C19.968,11.808 19.512,13.496 18.6,15.048 C17.736,16.552 16.552,17.736 15.048,18.6 C13.496,19.512 11.808,19.968 9.984,19.968 C8.16,19.968 6.472,19.512 4.92,18.6 C3.416,17.72 2.232,16.528 1.368,15.024 C0.456,13.472 0,11.792 0,9.984 C0,8.176 0.456,6.496 1.368,4.944 C2.248,3.44 3.44,2.248 4.944,1.368 C6.496,0.456 8.176,0 9.984,0 Z" id="形狀"></path>
            </g>
        </g>
    </g>
</svg>