<?xml version="1.0" encoding="UTF-8"?>
<svg width="22px" height="19px" viewBox="0 0 22 19" version="1.1" xmlns="http://www.w3.org/2000/svg" xmlns:xlink="http://www.w3.org/1999/xlink">
    <title>icon-shopping</title>
    <g id="元素" stroke="none" stroke-width="1" fill="none" fill-rule="evenodd">
        <g id="icon-export" transform="translate(-682, -103)" fill="#000000" fill-rule="nonzero">
            <g id="icon-shopping" transform="translate(682, 103.8214)">
                <path d="M7.7265625,15.2734375 C8.05171131,15.5985863 8.21428571,15.983631 8.21428571,16.4285714 C8.21428571,16.8735119 8.05171131,17.2585565 7.7265625,17.5837054 C7.40141369,17.9088542 7.01636905,18.0714286 6.57142857,18.0714286 C6.1264881,18.0714286 5.74144345,17.9088542 5.41629464,17.5837054 C5.09114583,17.2585565 4.92857143,16.8735119 4.92857143,16.4285714 C4.92857143,15.983631 5.09114583,15.5985863 5.41629464,15.2734375 C5.74144345,14.9482887 6.1264881,14.7857143 6.57142857,14.7857143 C7.01636905,14.7857143 7.40141369,14.9482887 7.7265625,15.2734375 Z M19.2265625,15.2734375 C19.5517113,15.5985863 19.7142857,15.983631 19.7142857,16.4285714 C19.7142857,16.8735119 19.5517113,17.2585565 19.2265625,17.5837054 C18.9014137,17.9088542 18.516369,18.0714286 18.0714286,18.0714286 C17.6264881,18.0714286 17.2414435,17.9088542 16.9162946,17.5837054 C16.5911458,17.2585565 16.4285714,16.8735119 16.4285714,16.4285714 C16.4285714,15.983631 16.5911458,15.5985863 16.9162946,15.2734375 C17.2414435,14.9482887 17.6264881,14.7857143 18.0714286,14.7857143 C18.516369,14.7857143 18.9014137,14.9482887 19.2265625,15.2734375 Z M21.3571429,2.46428571 L21.3571429,9.03571429 C21.3571429,9.24107143 21.2865513,9.42289807 21.1453683,9.5811942 C21.0041853,9.73949033 20.8309152,9.83147321 20.625558,9.85714286 L7.22600446,11.4229911 C7.33723958,11.9363839 7.39285714,12.2358631 7.39285714,12.3214286 C7.39285714,12.4583333 7.29017857,12.7321429 7.08482143,13.1428571 L18.8928571,13.1428571 C19.1153274,13.1428571 19.3078497,13.2241443 19.4704241,13.3867187 C19.6329985,13.5492932 19.7142857,13.7418155 19.7142857,13.9642857 C19.7142857,14.186756 19.6329985,14.3792783 19.4704241,14.5418527 C19.3078497,14.7044271 19.1153274,14.7857143 18.8928571,14.7857143 L5.75,14.7857143 C5.52752976,14.7857143 5.33500744,14.7044271 5.17243304,14.5418527 C5.00985863,14.3792783 4.92857143,14.186756 4.92857143,13.9642857 C4.92857143,13.8701637 4.96279762,13.7353981 5.03125,13.5599888 C5.09970238,13.3845796 5.16815476,13.2305618 5.23660714,13.0979353 C5.30505952,12.9653088 5.39704241,12.7941778 5.5125558,12.5845424 C5.6280692,12.374907 5.69438244,12.2486979 5.71149554,12.2059152 L3.43973214,1.64285714 L0.821428571,1.64285714 C0.598958333,1.64285714 0.406436012,1.56156994 0.243861607,1.39899554 C0.0812872024,1.23642113 0,1.04389881 0,0.821428571 C0,0.598958333 0.0812872024,0.406436012 0.243861607,0.243861607 C0.406436012,0.0812872024 0.598958333,0 0.821428571,0 L4.10714286,0 C4.24404762,0 4.36597842,0.0278087798 4.47293527,0.0834263393 C4.57989211,0.139043899 4.66331845,0.205357143 4.72321429,0.282366071 C4.78311012,0.359375 4.83872768,0.464192708 4.89006696,0.596819196 C4.94140625,0.729445685 4.97563244,0.840680804 4.99274554,0.930524554 C5.00985863,1.0203683 5.03338914,1.14657738 5.06333705,1.30915179 C5.09328497,1.47172619 5.1125372,1.58296131 5.12109375,1.64285714 L20.5357143,1.64285714 C20.7581845,1.64285714 20.9507068,1.72414435 21.1132812,1.88671875 C21.2758557,2.04929315 21.3571429,2.24181548 21.3571429,2.46428571 Z" id="形狀"></path>
            </g>
        </g>
    </g>
</svg>