<?xml version="1.0" encoding="UTF-8"?>
<svg width="21px" height="22px" viewBox="0 0 21 22" version="1.1" xmlns="http://www.w3.org/2000/svg" xmlns:xlink="http://www.w3.org/1999/xlink">
    <title>icon-lang</title>
    <defs>
        <polygon id="path-1" points="0 0 21 0 21 21 0 21"></polygon>
    </defs>
    <g id="元素" stroke="none" stroke-width="1" fill="none" fill-rule="evenodd">
        <g id="icon-export" transform="translate(-774, -101)">
            <g id="icon-lang" transform="translate(774, 101.25)">
                <mask id="mask-2" fill="white">
                    <use xlink:href="#path-1"></use>
                </mask>
                <g id="Clip-2"></g>
                <path d="M14.9038717,13.8183552 L18.9499668,13.8183552 C17.9419251,16.3758912 15.8118057,18.3728237 13.1637374,19.185873 C13.9846211,17.9166805 14.5974548,16.0520643 14.9038717,13.8183552 L14.9038717,13.8183552 Z M6.09612834,13.8183552 C6.40341569,16.0520643 7.01624938,17.917551 7.83713315,19.1867435 C5.18819433,18.3728237 3.05807495,16.3758912 2.05003316,13.8183552 L6.09612834,13.8183552 Z M6.19797712,6.52876803 L2.34078097,6.52876803 C3.43587299,4.28722434 5.41887747,2.55666556 7.83713315,1.81325651 C7.0980766,2.95709667 6.52789753,4.58406566 6.19797712,6.52876803 L6.19797712,6.52876803 Z M14.8028934,6.52876803 C14.4721025,4.58406566 13.9027939,2.95709667 13.1637374,1.81412701 C15.5811225,2.55666556 17.564127,4.28722434 18.6600895,6.52876803 L14.8028934,6.52876803 Z M7.5307163,13.8183552 L13.4701542,13.8183552 C12.9252197,17.4527027 11.5515669,19.5863041 10.5,19.5863041 C9.4484331,19.5863041 8.0756508,17.4527027 7.5307163,13.8183552 L7.5307163,13.8183552 Z M13.3622119,6.52876803 L7.63778809,6.52876803 C8.24104626,3.2931106 9.51285027,1.4136959 10.5,1.4136959 C11.4871497,1.4136959 12.7589537,3.2931106 13.3622119,6.52876803 L13.3622119,6.52876803 Z M7.36619134,12.4046593 C7.31744321,11.8005306 7.28958713,11.1668048 7.28958713,10.5 C7.28958713,9.58597248 7.34355828,8.73636213 7.43147903,7.94246394 L13.568521,7.94246394 C13.6573122,8.73636213 13.7104129,9.58597248 13.7104129,10.5 C13.7104129,11.1668048 13.6825568,11.8005306 13.6338087,12.4046593 L7.36619134,12.4046593 Z M19.381736,12.4046593 L15.0509866,12.4046593 C15.0962527,11.7883436 15.1241088,11.1554883 15.1241088,10.5 C15.1241088,9.60947604 15.0753606,8.75725419 14.9917924,7.94246394 L19.2137291,7.94246394 C19.4522467,8.75464268 19.5863041,9.61121705 19.5863041,10.5 C19.5863041,11.1537473 19.5140524,11.7900846 19.381736,12.4046593 L19.381736,12.4046593 Z M1.4136959,10.5 C1.4136959,9.61121705 1.54775327,8.75464268 1.78627093,7.94246394 L6.00820759,7.94246394 C5.92463936,8.75725419 5.87589123,9.60947604 5.87589123,10.5 C5.87589123,11.1554883 5.90374731,11.7883436 5.94988393,12.4046593 L1.61826397,12.4046593 C1.48681811,11.7900846 1.4136959,11.1537473 1.4136959,10.5 L1.4136959,10.5 Z M20.6047919,13.3195573 C20.8554966,12.4203283 21,11.4775742 21,10.5 C21,9.28216714 20.7806334,8.11656442 20.3976123,7.02756591 C20.3862958,6.99274581 20.3767203,6.95792572 20.3601807,6.92484663 C18.8933842,2.89267949 15.032706,0 10.5,0 C5.96642348,0 2.10661582,2.89354999 0.639819267,6.92658763 C0.624150224,6.95792572 0.614574697,6.99100481 0.603258166,7.0258249 C0.219366606,8.11482341 0,9.28129663 0,10.5 C0,11.4775742 0.144503399,12.4203283 0.396078594,13.3195573 C0.403913116,13.3448019 0.404783618,13.3717874 0.415229647,13.395291 C1.67658763,17.7800116 5.71571879,21 10.5,21 C15.2842812,21 19.3234124,17.7800116 20.5847704,13.395291 C20.5952164,13.3717874 20.5969574,13.3448019 20.6047919,13.3195573 L20.6047919,13.3195573 Z" id="Fill-1" fill="#231916" mask="url(#mask-2)"></path>
            </g>
        </g>
    </g>
</svg>