<?xml version="1.0" encoding="UTF-8"?>
<svg width="28px" height="24px" viewBox="0 0 28 24" version="1.1" xmlns="http://www.w3.org/2000/svg" xmlns:xlink="http://www.w3.org/1999/xlink">
    <title>icon-mail</title>
    <g id="元素" stroke="none" stroke-width="1" fill="none" fill-rule="evenodd">
        <g id="icon-export" transform="translate(-60, -155)" fill="#000000" fill-rule="nonzero">
            <g id="icon-mail" transform="translate(60.7871, 155.5)">
                <path d="M24.1699219,0 L2.109375,0 C1.5234375,0 1.02539062,0.205078125 0.615234375,0.615234375 C0.205078125,1.02539062 0,1.5234375 0,2.109375 L0,20.4492188 C0,21.0351562 0.205078125,21.5332031 0.615234375,21.9433594 C1.02539062,22.3535156 1.5234375,22.5585938 2.109375,22.5585938 L24.1699219,22.5585938 C24.7558594,22.5585938 25.2539062,22.3535156 25.6640625,21.9433594 C26.0742188,21.5332031 26.2792969,21.0351562 26.2792969,20.4492188 L26.2792969,2.109375 C26.2792969,1.5234375 26.0742188,1.02539062 25.6640625,0.615234375 C25.2539062,0.205078125 24.7558594,0 24.1699219,0 Z M21.9140625,2.109375 L14.0625,8.671875 L14.0039062,8.70117188 L13.9746094,8.75976562 C13.7597656,8.97460938 13.5058594,9.08203125 13.2128906,9.08203125 L13.1835938,9.08203125 C12.890625,9.08203125 12.6464844,8.97460938 12.4511719,8.75976562 L12.3925781,8.73046875 L4.36523438,2.109375 L21.9140625,2.109375 Z M24.1699219,20.4492188 L2.109375,20.4492188 L2.109375,20.4492188 L2.109375,2.95898438 L10.9863281,10.2832031 C11.5917969,10.8886719 12.3339844,11.1914062 13.2128906,11.1914062 L13.2128906,11.1914062 C14.0917969,11.1914062 14.8339844,10.8789062 15.4394531,10.2539062 L24.1699219,2.95898438 L24.1699219,20.4492188 Z" id="形狀"></path>
            </g>
        </g>
    </g>
</svg>