<?xml version="1.0" encoding="UTF-8"?>
<svg width="30px" height="23px" viewBox="0 0 30 23" version="1.1" xmlns="http://www.w3.org/2000/svg" xmlns:xlink="http://www.w3.org/1999/xlink">
    <title>icon-u2</title>
    <g id="元素" stroke="none" stroke-width="1" fill="none" fill-rule="evenodd">
        <g id="icon-export" transform="translate(-213, -105)" fill="#000000" fill-rule="nonzero">
            <g id="icon-u2" transform="translate(213, 105.5)">
                <path d="M29.8242188,4.98046875 C29.9414062,7.08984375 30,9.1796875 30,11.25 C30,13.3203125 29.9414062,15.4101562 29.8242188,17.5195312 C29.8242188,18.8476562 29.4042969,19.9707031 28.5644531,20.8886719 C27.7246094,21.8066406 26.6992188,22.265625 25.4882812,22.265625 C22.4804688,22.421875 18.984375,22.5 15,22.5 C11.015625,22.5 7.51953125,22.421875 4.51171875,22.265625 C3.30078125,22.265625 2.27539062,21.8066406 1.43554688,20.8886719 C0.595703125,19.9707031 0.17578125,18.8476562 0.17578125,17.5195312 C0.05859375,15.4101562 0,13.3203125 0,11.25 C0,9.8828125 0.078125,7.79296875 0.234375,4.98046875 C0.234375,3.65234375 0.64453125,2.52929688 1.46484375,1.61132812 C2.28515625,0.693359375 3.30078125,0.234375 4.51171875,0.234375 C7.36328125,0.078125 10.6835938,0 14.4726562,0 L15,0 L15.5273438,0 C19.3164062,0 22.6367188,0.078125 25.4882812,0.234375 C26.6992188,0.234375 27.7246094,0.693359375 28.5644531,1.61132812 C29.4042969,2.52929688 29.8242188,3.65234375 29.8242188,4.98046875 Z M12.1289062,16.9921875 L20.625,11.25 L12.1289062,5.44921875 L12.1289062,16.9921875 Z" id="形狀"></path>
            </g>
        </g>
    </g>
</svg>