<?xml version="1.0" encoding="UTF-8"?>
<svg width="14px" height="14px" viewBox="0 0 14 14" version="1.1" xmlns="http://www.w3.org/2000/svg" xmlns:xlink="http://www.w3.org/1999/xlink">
    <title>icon-close-ad</title>
    <g id="元素" stroke="none" stroke-width="1" fill="none" fill-rule="evenodd">
        <g id="icon-export" transform="translate(-830, -106)" fill="#000000" fill-rule="nonzero">
            <g id="icon-close-ad" transform="translate(830, 106)">
                <path d="M10.5136719,0.943359375 C9.43815104,0.314453125 8.26692708,0 7,0 C5.73307292,0 4.56184896,0.312174479 3.48632812,0.936523438 C2.41080729,1.5608724 1.5608724,2.41080729 0.936523438,3.48632812 C0.312174479,4.56184896 0,5.73307292 0,7 C0,8.26692708 0.312174479,9.43815104 0.936523438,10.5136719 C1.5608724,11.5891927 2.41080729,12.4391276 3.48632812,13.0634766 C4.56184896,13.6878255 5.73307292,14 7,14 C8.26692708,14 9.43815104,13.6878255 10.5136719,13.0634766 C11.5891927,12.4391276 12.4391276,11.5891927 13.0634766,10.5136719 C13.6878255,9.43815104 14,8.26692708 14,7 C14,5.73307292 13.6878255,4.56184896 13.0634766,3.48632812 C12.4391276,2.41080729 11.5891927,1.56315104 10.5136719,0.943359375 Z M9.80273438,9.11914062 C9.90299479,9.21028646 9.953125,9.32421875 9.953125,9.4609375 C9.953125,9.59765625 9.90527344,9.71386719 9.80957031,9.80957031 C9.71386719,9.90527344 9.59765625,9.953125 9.4609375,9.953125 C9.32421875,9.953125 9.20572917,9.90755208 9.10546875,9.81640625 L7,7.69726562 L4.89453125,9.81640625 C4.79427083,9.90755208 4.67578125,9.953125 4.5390625,9.953125 C4.40234375,9.953125 4.28613281,9.90527344 4.19042969,9.80957031 C4.09472656,9.71386719 4.046875,9.59765625 4.046875,9.4609375 C4.046875,9.32421875 4.09700521,9.21028646 4.19726562,9.11914062 L6.30273438,7 L4.19726562,4.88085938 C4.09700521,4.78971354 4.046875,4.67578125 4.046875,4.5390625 C4.046875,4.40234375 4.09472656,4.28613281 4.19042969,4.19042969 C4.28613281,4.09472656 4.40234375,4.046875 4.5390625,4.046875 C4.67578125,4.046875 4.79427083,4.09244792 4.89453125,4.18359375 L7,6.30273438 L9.10546875,4.18359375 C9.20572917,4.09244792 9.32421875,4.046875 9.4609375,4.046875 C9.59765625,4.046875 9.71386719,4.09472656 9.80957031,4.19042969 C9.90527344,4.28613281 9.953125,4.4000651 9.953125,4.53222656 C9.953125,4.66438802 9.90299479,4.78059896 9.80273438,4.88085938 L7.69726562,7 L9.80273438,9.11914062 Z" id="形狀"></path>
            </g>
        </g>
    </g>
</svg>