<?xml version="1.0" encoding="UTF-8"?>
<svg width="20px" height="21px" viewBox="0 0 20 21" version="1.1" xmlns="http://www.w3.org/2000/svg" xmlns:xlink="http://www.w3.org/1999/xlink">
    <title>icon-search</title>
    <defs>
        <polygon id="path-1" points="0 0 20 0 20 20 0 20"></polygon>
    </defs>
    <g id="元素" stroke="none" stroke-width="1" fill="none" fill-rule="evenodd">
        <g id="icon-export" transform="translate(-590, -102)">
            <g id="icon-search" transform="translate(590, 102.25)">
                <mask id="mask-2" fill="white">
                    <use xlink:href="#path-1"></use>
                </mask>
                <g id="Clip-2"></g>
                <path d="M4.17204371,13.6025039 C1.57228173,11.0031839 1.57228173,6.7732988 4.17204371,4.17397874 C5.43112126,2.91511521 7.10600528,2.22222222 8.88710779,2.22222222 C10.6682103,2.22222222 12.3430943,2.91511521 13.6021719,4.17397874 C14.8612494,5.43284226 15.5555556,7.10744158 15.5555556,8.88824133 C15.5555556,10.6690411 14.8612494,12.3436404 13.6021719,13.6025039 C12.3430943,14.8613674 10.6682103,15.5555556 8.88710779,15.5555556 C7.10600528,15.5555556 5.43112126,14.8613674 4.17204371,13.6025039 M19.6529678,17.9769942 L15.8087258,14.1322831 C16.9730034,12.608152 17.612043,10.7576894 17.6132935,8.80595149 C17.6132935,6.45411353 16.6966282,4.24231058 15.0321239,2.57939485 C13.3688703,0.915228807 11.1566178,0 8.80430195,0 C6.45198606,0 4.23973363,0.915228807 2.57647997,2.57939485 C-0.858826656,6.01275319 -0.858826656,11.6004001 2.57647997,15.0325081 C4.23973363,16.6966742 6.45198606,17.6131533 8.80430195,17.6131533 C10.7564365,17.611903 12.6060246,16.9729932 14.1317159,15.8089522 L17.9759579,19.6524131 C18.2073127,19.8837209 18.5112004,20 18.8150881,20 C19.1177252,20 19.4216129,19.8837209 19.6529678,19.6524131 C20.1156774,19.1897974 20.1156774,18.4396099 19.6529678,17.9769942" id="Fill-1" fill="#000000" mask="url(#mask-2)"></path>
            </g>
        </g>
    </g>
</svg>