<?xml version="1.0" encoding="UTF-8"?>
<svg width="22px" height="20px" viewBox="0 0 22 20" version="1.1" xmlns="http://www.w3.org/2000/svg" xmlns:xlink="http://www.w3.org/1999/xlink">
    <title>icon-favorite-full</title>
    <g id="元素" stroke="none" stroke-width="1" fill="none" fill-rule="evenodd">
        <g id="icon-export" transform="translate(-871, -105)" fill="#000000" fill-rule="nonzero">
            <g id="icon-favorite-full" transform="translate(870.9993, 105.5625)">
                <path d="M21.4843944,3.95297653 C21.1549797,3.15092332 20.6823412,2.44196557 20.0664789,1.82610329 C18.8633991,0.608701095 17.424,0 15.7482817,0 C14.8316495,0 13.9615649,0.200513302 13.1380282,0.601539906 C12.3144914,1.00256651 11.6019531,1.56830047 11.0004131,2.29874178 C10.3988732,1.56830047 9.6863349,1.00256651 8.86279812,0.601539906 C8.03926135,0.200513302 7.16917684,0 6.2525446,0 C4.57682629,0 3.13742723,0.615862285 1.93434742,1.84758685 C1.31848513,2.46344914 0.845846635,3.17240689 0.516431925,3.97446009 C0.158372457,4.81948044 -0.0134960876,5.69314554 0.00082629108,6.5954554 C0.0151486698,7.58369953 0.222823161,8.51823474 0.623849765,9.39906103 C1.02487637,10.2798873 1.59061033,11.0282316 2.32105164,11.6440939 C2.39266354,11.7013834 2.45711424,11.7586729 2.51440376,11.8159624 C2.71491706,11.987831 3.52413146,12.7182723 4.94204695,14.0072864 C7.92110172,16.7428607 9.76152739,18.4257402 10.4633239,19.0559249 C10.6208701,19.1848263 10.7998998,19.249277 11.0004131,19.249277 C11.2009264,19.249277 11.3799562,19.1848263 11.5375023,19.0559249 C12.0101408,18.6262535 13.3063161,17.4446573 15.4260282,15.5111362 C17.688964,13.4487136 19.0925571,12.1668607 19.6368075,11.6655775 C20.3815712,11.0497152 20.9616275,10.2977903 21.3769765,9.40980282 C21.7923255,8.52181534 22,7.57653834 22,6.57397183 C22,5.65733959 21.8281315,4.78367449 21.4843944,3.95297653 Z" id="路徑"></path>
            </g>
        </g>
    </g>
</svg>