<?xml version="1.0" encoding="UTF-8"?>
<svg width="28px" height="27px" viewBox="0 0 28 27" version="1.1" xmlns="http://www.w3.org/2000/svg" xmlns:xlink="http://www.w3.org/1999/xlink">
    <title>icon-line</title>
    <g id="元素" stroke="none" stroke-width="1" fill="none" fill-rule="evenodd">
        <g id="icon-export" transform="translate(-161, -105)" fill="#000000">
            <path d="M174.982522,105 C167.292135,105 161,110.070643 161,116.279594 C161,121.833156 165.963795,126.489869 172.710362,127.386718 C173.164794,127.4902 173.794007,127.697166 173.933833,128.076601 C174.073658,128.421543 174.038702,128.97345 173.968789,129.318392 L173.794007,130.491193 C173.724095,130.836135 173.514357,131.87096 175.017478,131.250065 C176.520599,130.62917 183.092385,126.524364 186.028714,123.178429 C188.021223,121.005296 189,118.763175 189,116.279594 C188.965044,110.036149 182.707865,105 174.982522,105 Z M169.494382,119.970471 L166.697878,119.970471 C166.313358,119.970471 165.963795,119.625529 165.963795,119.246093 L165.963795,113.727026 C165.963795,113.313096 166.313358,113.002648 166.697878,113.002648 C167.117353,113.002648 167.43196,113.34759 167.43196,113.727026 L167.43196,118.521716 L169.494382,118.521716 C169.913858,118.521716 170.228464,118.866657 170.228464,119.246093 C170.228464,119.625529 169.913858,119.970471 169.494382,119.970471 Z M172.395755,119.211599 C172.395755,119.625529 172.081149,119.935977 171.661673,119.935977 C171.242197,119.935977 170.927591,119.591035 170.927591,119.211599 L170.927591,113.692531 C170.927591,113.278601 171.242197,112.968154 171.661673,112.968154 C172.081149,112.968154 172.395755,113.313096 172.395755,113.692531 L172.395755,119.211599 Z M179.072409,119.211599 C179.072409,119.522047 178.862672,119.798 178.583021,119.901483 C178.513109,119.935977 178.443196,119.935977 178.338327,119.935977 C178.093633,119.935977 177.883895,119.832494 177.74407,119.660023 L174.912609,115.83117 L174.912609,119.246093 C174.912609,119.660023 174.598002,119.970471 174.178527,119.970471 C173.759051,119.970471 173.444444,119.625529 173.444444,119.246093 L173.444444,113.727026 C173.444444,113.416578 173.654182,113.140625 173.933833,113.037142 C174.003745,113.002648 174.108614,113.002648 174.143571,113.002648 C174.388265,113.002648 174.598002,113.106131 174.737828,113.313096 L177.604245,117.176443 L177.604245,113.76152 C177.604245,113.34759 177.918851,113.037142 178.338327,113.037142 C178.757803,113.037142 179.072409,113.382084 179.072409,113.76152 L179.072409,119.211599 Z M183.581773,115.727688 C184.001248,115.727688 184.315855,116.072629 184.315855,116.452065 C184.315855,116.865995 184.001248,117.176443 183.581773,117.176443 L181.519351,117.176443 L181.519351,118.487221 L183.546816,118.487221 C183.966292,118.487221 184.280899,118.832163 184.280899,119.211599 C184.280899,119.625529 183.966292,119.935977 183.546816,119.935977 L180.750312,119.935977 C180.330836,119.935977 180.01623,119.591035 180.01623,119.211599 L180.01623,113.692531 C180.01623,113.278601 180.330836,112.968154 180.750312,112.968154 L183.546816,112.968154 C183.966292,112.968154 184.280899,113.313096 184.280899,113.692531 C184.280899,114.106462 183.966292,114.416909 183.546816,114.416909 L181.519351,114.416909 L181.519351,115.727688 L183.581773,115.727688 Z" id="icon-line"></path>
        </g>
    </g>
</svg>