<?xml version="1.0" encoding="UTF-8"?>
<svg width="14px" height="17px" viewBox="0 0 14 17" version="1.1" xmlns="http://www.w3.org/2000/svg" xmlns:xlink="http://www.w3.org/1999/xlink">
    <title>lock-open</title>
    <g id="元素" stroke="none" stroke-width="1" fill="none" fill-rule="evenodd">
        <g id="icon-export" transform="translate(-465, -590)" fill="#000000" fill-rule="nonzero">
            <g id="lock-open" transform="translate(465.5, 590.0614)">
                <path d="M11,6.03306686 L3.859375,6.03306686 L3.59375,4.87681686 C3.375,4.05390019 3.44791667,3.28046269 3.8125,2.55650436 C4.17708333,1.83254603 4.80208333,1.35077519 5.6875,1.11119186 C6.55208333,0.882025194 7.33072917,0.983587694 8.0234375,1.41587936 C8.71614583,1.84817103 9.171875,2.48098353 9.390625,3.31431686 L9.609375,4.15806686 C9.640625,4.29348353 9.71614583,4.39504603 9.8359375,4.46275436 C9.95572917,4.53046269 10.0833333,4.54869186 10.21875,4.51744186 C10.3541667,4.48619186 10.4557292,4.41067103 10.5234375,4.29087936 C10.5911458,4.17108769 10.609375,4.04348353 10.578125,3.90806686 L10.359375,3.06431686 C10.2135417,2.51223353 9.98177083,2.02004603 9.6640625,1.58775436 C9.34635417,1.15546269 8.96614583,0.809108527 8.5234375,0.54869186 C8.08072917,0.288275194 7.59635417,0.11900436 7.0703125,0.0408793605 C6.54427083,-0.0372456395 5.99479167,-0.00339147287 5.421875,0.14244186 C4.84895833,0.29869186 4.35416667,0.543483527 3.9375,0.87681686 C3.52083333,1.21015019 3.19270833,1.60077519 2.953125,2.04869186 C2.71354167,2.49660853 2.56510417,2.98619186 2.5078125,3.51744186 C2.45052083,4.04869186 2.49479167,4.58515019 2.640625,5.12681686 L2.84375,6.03306686 L2,6.03306686 C1.44791667,6.03306686 0.9765625,6.22837936 0.5859375,6.61900436 C0.1953125,7.00962936 0,7.48098353 0,8.03306686 L0,14.0330669 C0,14.5851502 0.1953125,15.0565044 0.5859375,15.4471294 C0.9765625,15.8377544 1.44791667,16.0330669 2,16.0330669 L11,16.0330669 C11.5520833,16.0330669 12.0234375,15.8377544 12.4140625,15.4471294 C12.8046875,15.0565044 13,14.5851502 13,14.0330669 L13,8.03306686 C13,7.48098353 12.8046875,7.00962936 12.4140625,6.61900436 C12.0234375,6.22837936 11.5520833,6.03306686 11,6.03306686 Z M12,14.0330669 C12,14.3143169 11.9010417,14.551296 11.703125,14.7440044 C11.5052083,14.9367127 11.2708333,15.0330669 11,15.0330669 L2,15.0330669 C1.72916667,15.0330669 1.49479167,14.9367127 1.296875,14.7440044 C1.09895833,14.551296 1,14.3143169 1,14.0330669 L1,8.03306686 C1,7.76223353 1.09895833,7.52785853 1.296875,7.32994186 C1.49479167,7.13202519 1.72916667,7.03306686 2,7.03306686 L11,7.03306686 C11.2708333,7.03306686 11.5052083,7.13202519 11.703125,7.32994186 C11.9010417,7.52785853 12,7.76223353 12,8.03306686 L12,14.0330669 Z M6.5,9.03306686 C6.21875,9.03306686 5.98177083,9.13202519 5.7890625,9.32994186 C5.59635417,9.52785853 5.5,9.76223353 5.5,10.0330669 C5.5,10.2205669 5.546875,10.3898377 5.640625,10.5408794 C5.734375,10.691921 5.85416667,10.8091085 6,10.8924419 L6,12.5330669 C6,12.6684835 6.04947917,12.785671 6.1484375,12.8846294 C6.24739583,12.9835877 6.36458333,13.0330669 6.5,13.0330669 C6.63541667,13.0330669 6.75260417,12.9835877 6.8515625,12.8846294 C6.95052083,12.785671 7,12.6684835 7,12.5330669 L7,10.8924419 C7.14583333,10.8091085 7.265625,10.691921 7.359375,10.5408794 C7.453125,10.3898377 7.5,10.2205669 7.5,10.0330669 C7.5,9.76223353 7.40364583,9.52785853 7.2109375,9.32994186 C7.01822917,9.13202519 6.78125,9.03306686 6.5,9.03306686 Z" id="形狀"></path>
            </g>
        </g>
    </g>
</svg>