<?xml version="1.0" encoding="UTF-8"?>
<svg width="14px" height="17px" viewBox="0 0 14 17" version="1.1" xmlns="http://www.w3.org/2000/svg" xmlns:xlink="http://www.w3.org/1999/xlink">
    <title>lock</title>
    <g id="元素" stroke="none" stroke-width="1" fill="none" fill-rule="evenodd">
        <g id="icon-export" transform="translate(-413, -585)" fill="#000000" fill-rule="nonzero">
            <g id="lock" transform="translate(413.8672, 585.1384)">
                <path d="M11.7773438,3.96484375 C11.4648438,3.18359375 11.0286458,2.49348958 10.46875,1.89453125 C9.90885417,1.30859375 9.2578125,0.846354167 8.515625,0.5078125 C7.76041667,0.169270833 6.96614583,0 6.1328125,0 C5.29947917,0 4.50520833,0.169270833 3.75,0.5078125 C3.02083333,0.846354167 2.37304688,1.31184896 1.80664062,1.90429688 C1.24023438,2.49674479 0.80078125,3.18359375 0.48828125,3.96484375 C0.162760417,4.75911458 0,5.59244792 0,6.46484375 L0,14.9804688 C0,15.3190104 0.1171875,15.6119792 0.3515625,15.859375 C0.5859375,16.1067708 0.865885417,16.2304688 1.19140625,16.2304688 L11.0546875,16.2304688 C11.3932292,16.2304688 11.6796875,16.1067708 11.9140625,15.859375 C12.1484375,15.6119792 12.265625,15.3190104 12.265625,14.9804688 L12.265625,7.4609375 L12.265625,7.12890625 L12.265625,6.46484375 C12.265625,5.59244792 12.1028646,4.75911458 11.7773438,3.96484375 Z M4.21875,1.66015625 L4.23828125,1.66015625 L4.2578125,1.640625 C4.84375,1.3671875 5.46875,1.23046875 6.1328125,1.23046875 C6.78385417,1.23046875 7.40885417,1.3671875 8.0078125,1.640625 C8.59375,1.90104167 9.11458333,2.27213542 9.5703125,2.75390625 C10.0260417,3.23567708 10.3776042,3.7890625 10.625,4.4140625 C10.8984375,5.06510417 11.0351562,5.74869792 11.0351562,6.46484375 L11.0351562,6.9921875 L1.23046875,6.9921875 L1.23046875,6.9921875 L1.23046875,6.46484375 C1.23046875,5.74869792 1.36067708,5.06510417 1.62109375,4.4140625 C1.88151042,3.7890625 2.23958333,3.23567708 2.6953125,2.75390625 C3.15104167,2.27213542 3.65885417,1.90755208 4.21875,1.66015625 Z M11.0351562,8.2421875 L11.0351562,14.9804688 C11.0351562,14.9804688 11.0351562,14.9869792 11.0351562,15 L1.23046875,15 C1.23046875,14.9869792 1.23046875,14.9804688 1.23046875,14.9804688 L1.23046875,8.2421875 L11.0351562,8.2421875 Z M5.56640625,11.015625 L5.56640625,12.6367188 C5.56640625,12.7929688 5.62174479,12.9264323 5.73242188,13.0371094 C5.84309896,13.1477865 5.9765625,13.203125 6.1328125,13.203125 C6.2890625,13.203125 6.42578125,13.1477865 6.54296875,13.0371094 C6.66015625,12.9264323 6.71875,12.7929688 6.71875,12.6367188 L6.71875,11.015625 C7.03125,10.8072917 7.1875,10.5078125 7.1875,10.1171875 C7.1875,9.83072917 7.08658854,9.58333333 6.88476562,9.375 C6.68294271,9.16666667 6.43554688,9.0625 6.14257812,9.0625 C5.84960938,9.0625 5.59895833,9.16666667 5.390625,9.375 C5.18229167,9.58333333 5.078125,9.83072917 5.078125,10.1171875 C5.078125,10.5078125 5.24088542,10.8072917 5.56640625,11.015625 Z" id="形狀"></path>
            </g>
        </g>
    </g>
</svg>