<?xml version="1.0" encoding="UTF-8"?>
<svg width="20px" height="21px" viewBox="0 0 20 21" version="1.1" xmlns="http://www.w3.org/2000/svg" xmlns:xlink="http://www.w3.org/1999/xlink">
    <title></title>
    <g id="page-v3" stroke="none" stroke-width="1" fill="none" fill-rule="evenodd">
        <g id="332_網路訂單查詢-list" transform="translate(-705, -947)" fill="#000000" fill-rule="nonzero">
            <g id="群組-4copy-3copy-3copycopycopycopy-2copycopy" transform="translate(691, 936)">
                <g id="" transform="translate(14, 11.25)">
                    <path d="M19.9804688,9.23828125 C19.9674479,9.13411458 19.9414062,9.02994792 19.9023438,8.92578125 C19.8632812,8.82161458 19.8111979,8.73046875 19.7460938,8.65234375 L19.7460938,8.65234375 L19.7265625,8.6328125 C19.7005208,8.59375 19.6679688,8.5546875 19.6289062,8.515625 C19.5898438,8.4765625 19.5507812,8.4375 19.5117188,8.3984375 L16.25,5.1171875 L16.25,3.10546875 C16.25,2.93619792 16.188151,2.78971354 16.0644531,2.66601562 C15.9407552,2.54231771 15.7942708,2.48046875 15.625,2.48046875 L13.6523438,2.48046875 L11.3671875,0.52734375 C11.015625,0.17578125 10.5729167,0 10.0390625,0 C9.50520833,0 9.0625,0.17578125 8.7109375,0.52734375 L6.4453125,2.48046875 L4.375,2.48046875 C4.20572917,2.48046875 4.05924479,2.54231771 3.93554688,2.66601562 C3.81184896,2.78971354 3.75,2.93619792 3.75,3.10546875 L3.75,5.15625 L0.56640625,8.33984375 C0.397135417,8.45703125 0.260416667,8.60677083 0.15625,8.7890625 C0.0520833333,8.97135417 0,9.17317708 0,9.39453125 L0,18.75 C0,19.1015625 0.123697917,19.3977865 0.37109375,19.6386719 C0.618489583,19.8795573 0.911458333,20 1.25,20 L18.75,20 C19.0885417,20 19.3815104,19.8795573 19.6289062,19.6386719 C19.8763021,19.3977865 20,19.1015625 20,18.75 L20,9.4140625 C20,9.38802083 20,9.35872396 20,9.32617188 C20,9.29361979 19.9934896,9.26432292 19.9804688,9.23828125 Z M5.25390625,14.1796875 L1.25,17.890625 L1.25,10.6445312 L5.25390625,14.1796875 Z M6.46484375,14.765625 C6.50390625,14.7395833 6.53971354,14.7135417 6.57226562,14.6875 C6.60481771,14.6614583 6.640625,14.6289062 6.6796875,14.5898438 C6.69270833,14.5768229 6.70572917,14.5605469 6.71875,14.5410156 C6.73177083,14.5214844 6.74479167,14.4986979 6.7578125,14.4726562 L9.453125,11.9726562 C9.51822917,11.9205729 9.59309896,11.8782552 9.67773438,11.8457031 C9.76236979,11.813151 9.85026042,11.796875 9.94140625,11.796875 C10.0325521,11.796875 10.1204427,11.813151 10.2050781,11.8457031 C10.2897135,11.8782552 10.3580729,11.9140625 10.4101562,11.953125 L17.9101562,18.75 L2.1484375,18.75 L6.46484375,14.765625 Z M14.8046875,14.2578125 L18.75,10.7617188 L18.75,17.8125 L14.8046875,14.2578125 Z M17.5390625,8.14453125 L17.5195312,8.14453125 L18.59375,9.21875 L16.25,11.3085938 L16.25,6.85546875 L17.5390625,8.14453125 Z M9.58984375,1.40625 C9.65494792,1.35416667 9.7265625,1.31184896 9.8046875,1.27929688 C9.8828125,1.24674479 9.9609375,1.23046875 10.0390625,1.23046875 C10.1171875,1.23046875 10.1953125,1.24674479 10.2734375,1.27929688 C10.3515625,1.31184896 10.4231771,1.35416667 10.4882812,1.40625 L11.7382812,2.48046875 L8.33984375,2.48046875 L9.58984375,1.40625 Z M15,3.73046875 L15,12.421875 L13.8867188,13.4179688 L11.2109375,10.9960938 C10.8463542,10.7096354 10.4264323,10.563151 9.95117188,10.5566406 C9.47591146,10.5501302 9.04296875,10.703125 8.65234375,11.015625 L6.171875,13.3203125 L5,12.2851562 L5,3.73046875 L15,3.73046875 Z M2.03125,8.65234375 L3.75,6.93359375 L3.75,11.171875 L1.46484375,9.16015625 L1.9921875,8.65234375 L2.03125,8.65234375 Z" id="形狀"></path>
                </g>
            </g>
        </g>
    </g>
</svg>