<?xml version="1.0" encoding="UTF-8"?>
<svg width="18px" height="19px" viewBox="0 0 18 19" version="1.1" xmlns="http://www.w3.org/2000/svg" xmlns:xlink="http://www.w3.org/1999/xlink">
    <title>service</title>
    <g id="元素" stroke="none" stroke-width="1" fill="none" fill-rule="evenodd">
        <g id="icon-export" transform="translate(-275, -273)" fill="#000000" fill-rule="nonzero">
            <g id="service" transform="translate(275.25, 273.75)">
                <path d="M15.1171875,4.94140625 C15.0390625,4.60286458 14.921875,4.26432292 14.765625,3.92578125 C14.4401042,3.15755208 13.9713542,2.47395833 13.359375,1.875 C12.7604167,1.2890625 12.0638021,0.833333333 11.2695312,0.5078125 C10.4492188,0.169270833 9.59635417,0 8.7109375,0 C7.82552083,0 6.97265625,0.169270833 6.15234375,0.5078125 C5.37109375,0.833333333 4.67447917,1.29231771 4.0625,1.88476562 C3.45052083,2.47721354 2.98177083,3.15755208 2.65625,3.92578125 C2.51302083,4.25130208 2.39583333,4.59635417 2.3046875,4.9609375 C1.9921875,5.06510417 1.69921875,5.21484375 1.42578125,5.41015625 C1.13932292,5.61848958 0.891927083,5.86588542 0.68359375,6.15234375 C0.227864583,6.76432292 0,7.45442708 0,8.22265625 C0,9.16015625 0.33203125,9.9609375 0.99609375,10.625 C1.47786458,11.1067708 2.04427083,11.4192708 2.6953125,11.5625 C2.74739583,11.5755208 2.79947917,11.5820312 2.8515625,11.5820312 C3.046875,11.5820312 3.20963542,11.5104167 3.33984375,11.3671875 C3.47005208,11.2369792 3.53515625,11.0742188 3.53515625,10.8789062 L3.515625,6.4453125 C3.515625,5.05208333 4.01692708,3.86067708 5.01953125,2.87109375 C6.03515625,1.88151042 7.26236979,1.38671875 8.70117188,1.38671875 C10.139974,1.38671875 11.3671875,1.88151042 12.3828125,2.87109375 C13.3984375,3.86067708 13.90625,5.05208333 13.90625,6.4453125 L13.90625,11.0546875 C13.90625,12.4479167 13.3984375,13.6393229 12.3828125,14.6289062 C11.9791667,15.0325521 11.5169271,15.3580729 10.9960938,15.6054688 C11.0091146,15.4622396 11.015625,15.3190104 11.015625,15.1757812 C11.0026042,14.5768229 10.78125,14.0625 10.3515625,13.6328125 C9.921875,13.203125 9.40755208,12.9752604 8.80859375,12.9492188 L8.75,12.9492188 C8.125,12.9492188 7.59114583,13.1738281 7.1484375,13.6230469 C6.70572917,14.0722656 6.484375,14.609375 6.484375,15.234375 C6.484375,15.8463542 6.70247396,16.3736979 7.13867188,16.8164062 C7.57486979,17.2591146 8.09895833,17.4869792 8.7109375,17.5 L8.7109375,17.5 L8.75,17.5 L8.75,17.5 L8.7890625,17.5 L8.80859375,17.5 L8.80859375,17.5 L8.80859375,17.5 C9.66796875,17.4869792 10.4882812,17.3177083 11.2695312,16.9921875 C12.0507812,16.6666667 12.7473958,16.2076823 13.359375,15.6152344 C13.9713542,15.0227865 14.4466146,14.3424479 14.7851562,13.5742188 C15.0716146,12.8841146 15.2408854,12.1614583 15.2929688,11.40625 C15.7486979,11.2369792 16.1523438,10.9765625 16.5039062,10.625 C17.1679688,9.9609375 17.5,9.16015625 17.5,8.22265625 C17.5,7.46744792 17.2786458,6.78710938 16.8359375,6.18164062 C16.3932292,5.57617188 15.8203125,5.16276042 15.1171875,4.94140625 Z M0.3515625,9.31640625 C0.364583333,9.35546875 0.384114583,9.40104167 0.41015625,9.453125 C0.384114583,9.38802083 0.364583333,9.34244792 0.3515625,9.31640625 Z M0.546875,9.74609375 C0.572916667,9.79817708 0.60546875,9.85677083 0.64453125,9.921875 C0.592447917,9.84375 0.559895833,9.78515625 0.546875,9.74609375 Z M2.12890625,9.765625 C2.07682292,9.7265625 2.03125,9.6875 1.9921875,9.6484375 C1.58854167,9.24479167 1.38671875,8.76953125 1.38671875,8.22265625 C1.38671875,7.84505208 1.47786458,7.5 1.66015625,7.1875 C1.77734375,6.96614583 1.93359375,6.77734375 2.12890625,6.62109375 L2.12890625,9.765625 Z M2.421875,5.09765625 L2.421875,5.09765625 C2.43489583,5.03255208 2.4609375,4.94791667 2.5,4.84375 C2.47395833,4.93489583 2.44791667,5.01953125 2.421875,5.09765625 Z M2.734375,11.40625 C2.66927083,11.3932292 2.60416667,11.3802083 2.5390625,11.3671875 C2.65625,11.3932292 2.72135417,11.40625 2.734375,11.40625 C2.74739583,11.40625 2.76041667,11.40625 2.7734375,11.40625 C2.76041667,11.40625 2.74739583,11.40625 2.734375,11.40625 Z M3.37890625,10.8984375 L3.37890625,10.8789062 L3.359375,6.4453125 L3.37890625,10.8789062 C3.37890625,10.8919271 3.37890625,10.8984375 3.37890625,10.8984375 Z M4.74609375,1.484375 C4.83723958,1.41927083 4.90234375,1.37369792 4.94140625,1.34765625 C4.86328125,1.39973958 4.79817708,1.4453125 4.74609375,1.484375 Z M6.2109375,0.64453125 C5.8203125,0.813802083 5.44270833,1.015625 5.078125,1.25 C5.44270833,1.015625 5.8203125,0.813802083 6.2109375,0.64453125 C6.22395833,0.64453125 6.24023438,0.641276042 6.25976562,0.634765625 C6.27929688,0.628255208 6.29557292,0.625 6.30859375,0.625 C6.26953125,0.625 6.23697917,0.631510417 6.2109375,0.64453125 Z M7.3828125,1.38671875 C7.3828125,1.38671875 7.39583333,1.38346354 7.421875,1.37695312 C7.44791667,1.37044271 7.46744792,1.3671875 7.48046875,1.3671875 C7.49348958,1.3671875 7.50651042,1.3671875 7.51953125,1.3671875 C7.51953125,1.3671875 7.47395833,1.37369792 7.3828125,1.38671875 Z M13.2421875,1.9921875 C12.65625,1.41927083 11.9791667,0.970052083 11.2109375,0.64453125 C11.1979167,0.64453125 11.1816406,0.641276042 11.1621094,0.634765625 C11.1425781,0.628255208 11.1263021,0.625 11.1132812,0.625 C11.1263021,0.625 11.1425781,0.628255208 11.1621094,0.634765625 C11.1816406,0.641276042 11.1979167,0.64453125 11.2109375,0.64453125 C11.9791667,0.970052083 12.65625,1.41927083 13.2421875,1.9921875 C13.28125,2.03125 13.3203125,2.0703125 13.359375,2.109375 L13.2421875,1.9921875 Z M13.4765625,2.2265625 C13.5286458,2.27864583 13.5872396,2.34375 13.6523438,2.421875 C13.5872396,2.34375 13.5286458,2.27864583 13.4765625,2.2265625 Z M13.6914062,2.4609375 C13.7174479,2.5 13.7695312,2.56510417 13.8476562,2.65625 C13.7955729,2.60416667 13.7434896,2.5390625 13.6914062,2.4609375 Z M9.62890625,15.234375 C9.62890625,15.46875 9.54752604,15.6705729 9.38476562,15.8398438 C9.22200521,16.0091146 9.0234375,16.1002604 8.7890625,16.1132812 L8.75,16.1132812 C8.50260417,16.1132812 8.29427083,16.0253906 8.125,15.8496094 C7.95572917,15.6738281 7.87109375,15.46875 7.87109375,15.234375 C7.87109375,14.9869792 7.95572917,14.7753906 8.125,14.5996094 C8.29427083,14.4238281 8.50260417,14.3359375 8.75,14.3359375 C8.99739583,14.3359375 9.20572917,14.4238281 9.375,14.5996094 C9.54427083,14.7753906 9.62890625,14.9869792 9.62890625,15.234375 Z M9.78515625,15.390625 C9.78515625,15.3385417 9.78515625,15.2864583 9.78515625,15.234375 C9.78515625,15.2083333 9.78515625,15.1888021 9.78515625,15.1757812 C9.78515625,15.1757812 9.78515625,15.1822917 9.78515625,15.1953125 C9.78515625,15.2083333 9.78515625,15.2213542 9.78515625,15.234375 C9.78515625,15.2864583 9.78515625,15.3385417 9.78515625,15.390625 Z M13.2421875,15.5078125 C13.2421875,15.5078125 13.203125,15.546875 13.125,15.625 C13.1380208,15.6119792 13.1608073,15.5924479 13.1933594,15.5664062 C13.2259115,15.5403646 13.2421875,15.5208333 13.2421875,15.5078125 C13.28125,15.46875 13.3203125,15.4296875 13.359375,15.390625 C13.3203125,15.4427083 13.28125,15.4817708 13.2421875,15.5078125 Z M14.0625,11.0546875 C14.0625,11.1458333 14.0625,11.2369792 14.0625,11.328125 C14.0625,11.2369792 14.0625,11.1458333 14.0625,11.0546875 L14.0625,6.4453125 C14.0625,6.39322917 14.0625,6.35416667 14.0625,6.328125 C14.0625,6.34114583 14.0625,6.36067708 14.0625,6.38671875 C14.0625,6.41276042 14.0625,6.43229167 14.0625,6.4453125 L14.0625,11.0546875 Z M14.6289062,13.515625 C14.5898438,13.6067708 14.5442708,13.6979167 14.4921875,13.7890625 C14.5442708,13.6979167 14.5898438,13.6067708 14.6289062,13.515625 C14.6289062,13.5026042 14.6354167,13.4863281 14.6484375,13.4667969 C14.6614583,13.4472656 14.6679688,13.4309896 14.6679688,13.4179688 C14.6549479,13.4570312 14.6419271,13.4895833 14.6289062,13.515625 Z M14.6289062,3.984375 C14.5898438,3.89322917 14.5442708,3.80208333 14.4921875,3.7109375 C14.5442708,3.80208333 14.5898438,3.89322917 14.6289062,3.984375 C14.6419271,4.01041667 14.6614583,4.05598958 14.6875,4.12109375 C14.6744792,4.08203125 14.6549479,4.03645833 14.6289062,3.984375 Z M14.9804688,5.078125 C14.9804688,5.0390625 14.9739583,4.99348958 14.9609375,4.94140625 C14.9609375,4.95442708 14.9641927,4.97395833 14.9707031,5 C14.9772135,5.02604167 14.9804688,5.05208333 14.9804688,5.078125 Z M15.1367188,6.2890625 C15.2278646,6.328125 15.3059896,6.37369792 15.3710938,6.42578125 C15.3059896,6.37369792 15.2278646,6.328125 15.1367188,6.2890625 Z M15.625,9.765625 C15.4817708,9.90885417 15.3190104,10.0260417 15.1367188,10.1171875 L15.1367188,10.1171875 C15.3190104,10.0260417 15.4817708,9.90885417 15.625,9.765625 C15.625,9.75260417 15.6315104,9.74609375 15.6445312,9.74609375 C15.6445312,9.73307292 15.6510417,9.7265625 15.6640625,9.7265625 C15.6510417,9.7265625 15.6445312,9.73307292 15.6445312,9.74609375 C15.6315104,9.74609375 15.625,9.75260417 15.625,9.765625 Z M15.5078125,9.6484375 C15.4427083,9.71354167 15.3710938,9.77864583 15.2929688,9.84375 L15.2929688,6.5625 C15.5143229,6.73177083 15.6901042,6.92708333 15.8203125,7.1484375 C16.015625,7.47395833 16.1132812,7.83203125 16.1132812,8.22265625 C16.1132812,8.76953125 15.9114583,9.24479167 15.5078125,9.6484375 Z M17.2070312,7.265625 C17.1809896,7.1875 17.1679688,7.1484375 17.1679688,7.1484375 C17.1809896,7.17447917 17.1940104,7.21354167 17.2070312,7.265625 Z M17.0117188,6.77734375 C17.0247396,6.79036458 17.0442708,6.82942708 17.0703125,6.89453125 C17.0572917,6.88151042 17.047526,6.85872396 17.0410156,6.82617188 C17.0345052,6.79361979 17.0247396,6.77734375 17.0117188,6.77734375 Z M17.1679688,9.296875 C17.1679688,9.27083333 17.1809896,9.22526042 17.2070312,9.16015625 C17.1940104,9.18619792 17.1809896,9.23177083 17.1679688,9.296875 Z" id="形狀"></path>
            </g>
        </g>
    </g>
</svg>