<?xml version="1.0" encoding="UTF-8"?>
<svg width="14px" height="19px" viewBox="0 0 14 19" version="1.1" xmlns="http://www.w3.org/2000/svg" xmlns:xlink="http://www.w3.org/1999/xlink">
    <title>user</title>
    <g id="元素" stroke="none" stroke-width="1" fill="none" fill-rule="evenodd">
        <g id="icon-export" transform="translate(-440, -588)" fill="#000000" fill-rule="nonzero">
            <g id="user" transform="translate(440.4961, 588.7695)">
                <path d="M12.5,14.21875 C12.1744792,13.4375 11.7122396,12.7473958 11.1132812,12.1484375 C10.5143229,11.5494792 9.82421875,11.0872396 9.04296875,10.7617188 C8.78255208,10.6445312 8.50911458,10.546875 8.22265625,10.46875 C9.01692708,10.2083333 9.71354167,9.77864583 10.3125,9.1796875 C11.3671875,8.125 11.8945312,6.85546875 11.8945312,5.37109375 C11.8945312,3.88671875 11.3671875,2.62044271 10.3125,1.57226562 C9.2578125,0.524088542 7.98828125,0 6.50390625,0 C5.01953125,0 3.75325521,0.524088542 2.70507812,1.57226562 C1.65690104,2.62044271 1.1328125,3.88671875 1.1328125,5.37109375 C1.1328125,6.85546875 1.65364583,8.125 2.6953125,9.1796875 C3.29427083,9.77864583 3.99088542,10.2083333 4.78515625,10.46875 C4.48567708,10.546875 4.21223958,10.6445312 3.96484375,10.7617188 C3.18359375,11.0872396 2.49348958,11.5494792 1.89453125,12.1484375 C1.29557292,12.7473958 0.833333333,13.4375 0.5078125,14.21875 C0.169270833,15.0260417 0,15.8723958 0,16.7578125 C0,16.953125 0.068359375,17.1191406 0.205078125,17.2558594 C0.341796875,17.3925781 0.5078125,17.4609375 0.703125,17.4609375 C0.8984375,17.4609375 1.06445312,17.3925781 1.20117188,17.2558594 C1.33789062,17.1191406 1.40625,16.953125 1.40625,16.7578125 C1.40625,15.3515625 1.90429688,14.1471354 2.90039062,13.1445312 C3.89648438,12.1419271 5.10091146,11.640625 6.51367188,11.640625 C7.92643229,11.640625 9.13085938,12.1386719 10.1269531,13.1347656 C11.1230469,14.1308594 11.6210938,15.3385417 11.6210938,16.7578125 C11.6210938,16.953125 11.6894531,17.1191406 11.8261719,17.2558594 C11.9628906,17.3925781 12.1289062,17.4609375 12.3242188,17.4609375 C12.5195312,17.4609375 12.6855469,17.3925781 12.8222656,17.2558594 C12.9589844,17.1191406 13.0273438,16.953125 13.0273438,16.7578125 C13.0143229,15.8723958 12.8385417,15.0260417 12.5,14.21875 Z M3.69140625,8.18359375 C2.92317708,7.40234375 2.5390625,6.46484375 2.5390625,5.37109375 C2.5390625,4.27734375 2.92643229,3.34309896 3.70117188,2.56835938 C4.47591146,1.79361979 5.41015625,1.40625 6.50390625,1.40625 C7.59765625,1.40625 8.53190104,1.79361979 9.30664062,2.56835938 C10.0813802,3.34309896 10.46875,4.27734375 10.46875,5.37109375 C10.46875,6.46484375 10.0813802,7.40234375 9.30664062,8.18359375 C8.53190104,8.96484375 7.59765625,9.35546875 6.50390625,9.35546875 C5.41015625,9.35546875 4.47265625,8.96484375 3.69140625,8.18359375 Z" id="形狀"></path>
            </g>
        </g>
    </g>
</svg>